<?xml version="1.0" encoding="UTF-8" standalone="no"?>
<!-- Created with Inkscape (http://www.inkscape.org/) -->

<svg
   width="210mm"
   height="297mm"
   viewBox="0 0 210 297"
   version="1.1"
   id="svg1"
   xml:space="preserve"
   inkscape:version="1.3.2 (1:1.3.2+202311252150+091e20ef0f)"
   sodipodi:docname="geometric-logic-algorithm.svg"
   inkscape:export-filename="geometric-logic-algorithm.png"
   inkscape:export-xdpi="192"
   inkscape:export-ydpi="192"
   xmlns:inkscape="http://www.inkscape.org/namespaces/inkscape"
   xmlns:sodipodi="http://sodipodi.sourceforge.net/DTD/sodipodi-0.dtd"
   xmlns="http://www.w3.org/2000/svg"
   xmlns:svg="http://www.w3.org/2000/svg"
   xmlns:ns4="http://www.iki.fi/pav/software/textext/"><sodipodi:namedview
     id="namedview1"
     pagecolor="#ffffff"
     bordercolor="#cccccc"
     borderopacity="1"
     inkscape:showpageshadow="0"
     inkscape:pageopacity="1"
     inkscape:pagecheckerboard="0"
     inkscape:deskcolor="#ffffff"
     inkscape:document-units="mm"
     showborder="false"
     inkscape:zoom="1"
     inkscape:cx="-45"
     inkscape:cy="533"
     inkscape:window-width="1920"
     inkscape:window-height="1055"
     inkscape:window-x="0"
     inkscape:window-y="0"
     inkscape:window-maximized="1"
     inkscape:current-layer="layer1"
     showgrid="false" /><defs
     id="defs1"><marker
   style="overflow:visible"
   id="Arrow2Send"
   refX="0"
   refY="0"
   orient="auto"
   inkscape:stockid="Arrow2Send"><path
     transform="matrix(-0.3,0,0,-0.3,0.69,0)"
     d="M 8.7185878,4.0337352 -2.2072895,0.01601326 8.7185884,-4.0017078 c -1.7454984,2.3720609 -1.7354408,5.6174519 -6e-7,8.035443 z"
     style="fill-rule:evenodd;stroke-width:0.625;stroke-linejoin:round"
     id="path3909"
     inkscape:connector-curvature="0" /></marker><marker
   style="overflow:visible"
   id="Arrow1Lend"
   refX="0"
   refY="0"
   orient="auto"
   inkscape:stockid="Arrow1Lend"><path
     transform="matrix(-0.8,0,0,-0.8,-10,0)"
     style="fill-rule:evenodd;stroke:#000000;stroke-width:1pt"
     d="M 0,0 5,-5 -12.5,0 5,5 0,0 z"
     id="path3879"
     inkscape:connector-curvature="0" /></marker><marker
   style="overflow:visible"
   id="Arrow2Lend"
   refX="0"
   refY="0"
   orient="auto"
   inkscape:stockid="Arrow2Lend"><path
     transform="matrix(-1.1,0,0,-1.1,-1.1,0)"
     d="M 8.7185878,4.0337352 -2.2072895,0.01601326 8.7185884,-4.0017078 c -1.7454984,2.3720609 -1.7354408,5.6174519 -6e-7,8.035443 z"
     style="fill-rule:evenodd;stroke-width:0.625;stroke-linejoin:round"
     id="path3897"
     inkscape:connector-curvature="0" /></marker><marker
   style="overflow:visible"
   id="Arrow2Mend"
   refX="0"
   refY="0"
   orient="auto"
   inkscape:stockid="Arrow2Mend"><path
     transform="scale(-0.6,-0.6)"
     d="M 8.7185878,4.0337352 -2.2072895,0.01601326 8.7185884,-4.0017078 c -1.7454984,2.3720609 -1.7354408,5.6174519 -6e-7,8.035443 z"
     style="fill-rule:evenodd;stroke-width:0.625;stroke-linejoin:round"
     id="path3903"
     inkscape:connector-curvature="0" /></marker><marker
   style="overflow:visible"
   id="Arrow1Mend"
   refX="0"
   refY="0"
   orient="auto"
   inkscape:stockid="Arrow1Mend"><path
     transform="matrix(-0.4,0,0,-0.4,-4,0)"
     style="fill-rule:evenodd;stroke:#000000;stroke-width:1pt"
     d="M 0,0 5,-5 -12.5,0 5,5 0,0 z"
     id="path3885"
     inkscape:connector-curvature="0" /></marker><marker
   style="overflow:visible"
   id="Arrow2Lend-2"
   refX="0"
   refY="0"
   orient="auto"
   inkscape:stockid="Arrow2Lend"><path
     transform="matrix(-1.1,0,0,-1.1,-1.1,0)"
     d="M 8.7185878,4.0337352 -2.2072895,0.01601326 8.7185884,-4.0017078 c -1.7454984,2.3720609 -1.7354408,5.6174519 -6e-7,8.035443 z"
     style="fill-rule:evenodd;stroke-width:0.625;stroke-linejoin:round"
     id="path3897-9"
     inkscape:connector-curvature="0" /></marker><marker
   style="overflow:visible"
   id="Arrow2Lend-1"
   refX="0"
   refY="0"
   orient="auto"
   inkscape:stockid="Arrow2Lend"><path
     transform="matrix(-1.1,0,0,-1.1,-1.1,0)"
     d="M 8.7185878,4.0337352 -2.2072895,0.01601326 8.7185884,-4.0017078 c -1.7454984,2.3720609 -1.7354408,5.6174519 -6e-7,8.035443 z"
     style="fill-rule:evenodd;stroke-width:0.625;stroke-linejoin:round"
     id="path3897-94"
     inkscape:connector-curvature="0" /></marker><marker
   style="overflow:visible"
   id="Arrow2Lend-8"
   refX="0"
   refY="0"
   orient="auto"
   inkscape:stockid="Arrow2Lend"><path
     transform="matrix(-1.1,0,0,-1.1,-1.1,0)"
     d="M 8.7185878,4.0337352 -2.2072895,0.01601326 8.7185884,-4.0017078 c -1.7454984,2.3720609 -1.7354408,5.6174519 -6e-7,8.035443 z"
     style="fill-rule:evenodd;stroke-width:0.625;stroke-linejoin:round"
     id="path3897-4"
     inkscape:connector-curvature="0" /></marker><marker
   style="overflow:visible"
   id="Arrow2Lend-0"
   refX="0"
   refY="0"
   orient="auto"
   inkscape:stockid="Arrow2Lend"><path
     transform="matrix(-1.1,0,0,-1.1,-1.1,0)"
     d="M 8.7185878,4.0337352 -2.2072895,0.01601326 8.7185884,-4.0017078 c -1.7454984,2.3720609 -1.7354408,5.6174519 -6e-7,8.035443 z"
     style="fill-rule:evenodd;stroke-width:0.625;stroke-linejoin:round"
     id="path3897-3"
     inkscape:connector-curvature="0" /></marker><marker
   style="overflow:visible"
   id="Arrow2Lend-10"
   refX="0"
   refY="0"
   orient="auto"
   inkscape:stockid="Arrow2Lend"><path
     transform="matrix(-1.1,0,0,-1.1,-1.1,0)"
     d="M 8.7185878,4.0337352 -2.2072895,0.01601326 8.7185884,-4.0017078 c -1.7454984,2.3720609 -1.7354408,5.6174519 -6e-7,8.035443 z"
     style="fill-rule:evenodd;stroke-width:0.625;stroke-linejoin:round"
     id="path3897-6"
     inkscape:connector-curvature="0" /></marker><marker
   style="overflow:visible"
   id="Arrow2Lend-06"
   refX="0"
   refY="0"
   orient="auto"
   inkscape:stockid="Arrow2Lend"><path
     transform="matrix(-1.1,0,0,-1.1,-1.1,0)"
     d="M 8.7185878,4.0337352 -2.2072895,0.01601326 8.7185884,-4.0017078 c -1.7454984,2.3720609 -1.7354408,5.6174519 -6e-7,8.035443 z"
     style="fill-rule:evenodd;stroke-width:0.625;stroke-linejoin:round"
     id="path3897-1"
     inkscape:connector-curvature="0" /></marker><marker
   style="overflow:visible"
   id="Arrow2Lend-4"
   refX="0"
   refY="0"
   orient="auto"
   inkscape:stockid="Arrow2Lend"><path
     transform="matrix(-1.1,0,0,-1.1,-1.1,0)"
     d="M 8.7185878,4.0337352 -2.2072895,0.01601326 8.7185884,-4.0017078 c -1.7454984,2.3720609 -1.7354408,5.6174519 -6e-7,8.035443 z"
     style="fill-rule:evenodd;stroke-width:0.625;stroke-linejoin:round"
     id="path3897-7"
     inkscape:connector-curvature="0" /></marker><marker
   style="overflow:visible"
   id="Arrow2MendS"
   refX="0"
   refY="0"
   orient="auto"
   inkscape:stockid="Arrow2MendS"><path
     transform="scale(-0.6,-0.6)"
     d="M 8.7185878,4.0337352 -2.2072895,0.01601326 8.7185884,-4.0017078 c -1.7454984,2.3720609 -1.7354408,5.6174519 -6e-7,8.035443 z"
     style="fill:#0000ff;fill-rule:evenodd;stroke:#0000ff;stroke-width:0.625;stroke-linejoin:round"
     id="path7051"
     inkscape:connector-curvature="0" /></marker><marker
   style="overflow:visible"
   id="Arrow2MendSG"
   refX="0"
   refY="0"
   orient="auto"
   inkscape:stockid="Arrow2MendSG"><path
     transform="scale(-0.6,-0.6)"
     d="M 8.7185878,4.0337352 -2.2072895,0.01601326 8.7185884,-4.0017078 c -1.7454984,2.3720609 -1.7354408,5.6174519 -6e-7,8.035443 z"
     style="fill:#ff0000;fill-rule:evenodd;stroke:#ff0000;stroke-width:0.625;stroke-linejoin:round"
     id="path7329"
     inkscape:connector-curvature="0" /></marker><marker
   style="overflow:visible"
   id="Arrow2MendSGT"
   refX="0"
   refY="0"
   orient="auto"
   inkscape:stockid="Arrow2MendSGT"><path
     transform="scale(-0.6,-0.6)"
     d="M 8.7185878,4.0337352 -2.2072895,0.01601326 8.7185884,-4.0017078 c -1.7454984,2.3720609 -1.7354408,5.6174519 -6e-7,8.035443 z"
     style="fill:#000000;fill-rule:evenodd;stroke:#000000;stroke-width:0.625;stroke-linejoin:round"
     id="path4633"
     inkscape:connector-curvature="0" /></marker><defs
   id="id-d353f4ce-4449-42a9-b4ca-8c5628c06b5e">
    <g
   id="id-f4a03e63-cc2f-4d8b-a29a-b2ede943ca72">
      <symbol
   overflow="visible"
   id="id-4bfdd170-549e-44fb-a83a-e71956987fc4">
        <path
   style="stroke:none;stroke-width:0"
   d=""
   id="id-f255a034-98f8-487f-ae57-8ffc05d4342c" />
      </symbol>
      <symbol
   overflow="visible"
   id="id-4376af16-2162-4a41-93d1-f9802d92b6d1">
        <path
   style="stroke:none;stroke-width:0"
   d="M 3.015625,-3.15625 H 4.71875 c 1.40625,0 2.796875,-1.03125 2.796875,-2.140625 0,-0.78125 -0.65625,-1.515625 -1.96875,-1.515625 h -3.21875 c -0.1875,0 -0.296875,0 -0.296875,0.1875 0,0.125 0.078125,0.125 0.28125,0.125 0.125,0 0.3125,0.015625 0.421875,0.015625 0.171875,0.03125 0.21875,0.046875 0.21875,0.171875 0,0.03125 0,0.0625 -0.03125,0.1875 l -1.34375,5.34375 c -0.09375,0.390625 -0.109375,0.46875 -0.90625,0.46875 -0.15625,0 -0.265625,0 -0.265625,0.1875 C 0.40625,0 0.515625,0 0.546875,0 0.828125,0 1.53125,-0.03125 1.8125,-0.03125 c 0.21875,0 0.4375,0.015625 0.640625,0.015625 0.21875,0 0.4375,0.015625 0.640625,0.015625 0.078125,0 0.203125,0 0.203125,-0.203125 0,-0.109375 -0.09375,-0.109375 -0.28125,-0.109375 -0.359375,0 -0.640625,0 -0.640625,-0.171875 0,-0.0625 0.015625,-0.109375 0.03125,-0.171875 z M 3.734375,-6.125 C 3.828125,-6.46875 3.84375,-6.5 4.28125,-6.5 h 0.953125 c 0.828125,0 1.359375,0.265625 1.359375,0.953125 0,0.390625 -0.203125,1.25 -0.59375,1.609375 -0.5,0.453125 -1.09375,0.53125 -1.53125,0.53125 H 3.0625 Z m 0,0"
   id="id-1f863375-b1fa-4d11-9e55-838e35e4cd57" />
      </symbol>
      <symbol
   overflow="visible"
   id="id-00a32764-e981-47b7-b72b-e8a1831ac42b">
        <path
   style="stroke:none;stroke-width:0"
   d="M 4.359375,-0.0625 C 5.90625,-0.640625 7.375,-2.421875 7.375,-4.34375 c 0,-1.609375 -1.0625,-2.6875 -2.546875,-2.6875 -2.140625,0 -4.34375,2.265625 -4.34375,4.59375 0,1.65625 1.125,2.65625 2.5625,2.65625 0.25,0 0.578125,-0.046875 0.96875,-0.15625 -0.03125,0.625 -0.03125,0.640625 -0.03125,0.78125 0,0.3125 0,1.09375 0.828125,1.09375 1.171875,0 1.65625,-1.828125 1.65625,-1.9375 0,-0.0625 -0.0625,-0.09375 -0.109375,-0.09375 -0.078125,0 -0.09375,0.046875 -0.125,0.109375 C 6,0.71875 5.421875,0.96875 5.078125,0.96875 c -0.46875,0 -0.609375,-0.265625 -0.71875,-1.03125 z m -1.875,-0.078125 c -0.78125,-0.3125 -1.125,-1.078125 -1.125,-1.984375 0,-0.6875 0.265625,-2.109375 1.015625,-3.171875 C 3.109375,-6.3125 4.046875,-6.78125 4.78125,-6.78125 5.765625,-6.78125 6.5,-6 6.5,-4.671875 c 0,1 -0.515625,3.34375 -2.1875,4.265625 -0.046875,-0.34375 -0.140625,-1.0625 -0.875,-1.0625 -0.53125,0 -1.015625,0.484375 -1.015625,1.015625 0,0.1875 0.0625,0.296875 0.0625,0.3125 z M 3.09375,-0.03125 c -0.140625,0 -0.453125,0 -0.453125,-0.421875 0,-0.40625 0.375,-0.796875 0.796875,-0.796875 0.421875,0 0.609375,0.234375 0.609375,0.84375 0,0.140625 -0.015625,0.15625 -0.109375,0.203125 C 3.671875,-0.09375 3.375,-0.03125 3.09375,-0.03125 Z m 0,0"
   id="id-8922b435-2dc3-402d-adcd-6a0db016a677" />
      </symbol>
      <symbol
   overflow="visible"
   id="id-eb4accdf-71db-4cfd-98b1-c4ac6a797627">
        <path
   style="stroke:none;stroke-width:0"
   d="m 3.734375,-6.125 c 0.0625,-0.234375 0.09375,-0.328125 0.28125,-0.359375 C 4.109375,-6.5 4.421875,-6.5 4.625,-6.5 c 0.703125,0 1.8125,0 1.8125,0.984375 0,0.34375 -0.15625,1.03125 -0.546875,1.421875 -0.265625,0.25 -0.78125,0.578125 -1.6875,0.578125 H 3.09375 Z m 1.4375,2.734375 c 1.015625,-0.21875 2.1875,-0.921875 2.1875,-1.921875 0,-0.859375 -0.890625,-1.5 -2.203125,-1.5 H 2.328125 c -0.203125,0 -0.296875,0 -0.296875,0.203125 C 2.03125,-6.5 2.125,-6.5 2.3125,-6.5 c 0.015625,0 0.203125,0 0.375,0.015625 0.1875,0.03125 0.265625,0.03125 0.265625,0.171875 0,0.03125 0,0.0625 -0.03125,0.1875 l -1.34375,5.34375 C 1.484375,-0.390625 1.46875,-0.3125 0.671875,-0.3125 0.5,-0.3125 0.40625,-0.3125 0.40625,-0.109375 0.40625,0 0.53125,0 0.546875,0 c 0.28125,0 0.984375,-0.03125 1.25,-0.03125 0.28125,0 1,0.03125 1.28125,0.03125 0.078125,0 0.1875,0 0.1875,-0.203125 0,-0.109375 -0.078125,-0.109375 -0.28125,-0.109375 -0.359375,0 -0.640625,0 -0.640625,-0.171875 0,-0.0625 0.015625,-0.109375 0.03125,-0.171875 l 0.65625,-2.640625 h 1.1875 c 0.90625,0 1.078125,0.5625 1.078125,0.90625 0,0.140625 -0.078125,0.453125 -0.140625,0.6875 C 5.09375,-1.421875 5,-1.0625 5,-0.859375 5,0.21875 6.203125,0.21875 6.328125,0.21875 c 0.84375,0 1.203125,-1 1.203125,-1.140625 0,-0.125 -0.109375,-0.125 -0.125,-0.125 -0.09375,0 -0.109375,0.0625 -0.125,0.140625 C 7.03125,-0.171875 6.59375,0 6.375,0 6.046875,0 5.96875,-0.21875 5.96875,-0.609375 c 0,-0.3125 0.0625,-0.8125 0.109375,-1.140625 0.015625,-0.140625 0.03125,-0.328125 0.03125,-0.46875 0,-0.765625 -0.671875,-1.078125 -0.9375,-1.171875 z m 0,0"
   id="id-cf26a903-2b5c-4d19-90b8-4093c698aa43" />
      </symbol>
      <symbol
   overflow="visible"
   id="id-08dc06af-e462-4757-b048-12857bcf819d">
        <path
   style="stroke:none;stroke-width:0"
   d="m 1.90625,-0.53125 c 0,-0.28125 -0.234375,-0.53125 -0.515625,-0.53125 -0.296875,0 -0.53125,0.25 -0.53125,0.53125 C 0.859375,-0.234375 1.09375,0 1.390625,0 1.671875,0 1.90625,-0.234375 1.90625,-0.53125 Z m 0,0"
   id="id-b36712b2-3738-4083-8d5a-1556b0e8d486" />
      </symbol>
      <symbol
   overflow="visible"
   id="id-068b5312-106e-4409-8a69-d10ffb50fce8">
        <path
   style="stroke:none;stroke-width:0"
   d="m 7.171875,-6.5625 c 0.015625,-0.046875 0.03125,-0.09375 0.03125,-0.15625 0,-0.09375 -0.046875,-0.09375 -0.25,-0.09375 H 2.75 c -0.234375,0 -0.25,0.015625 -0.3125,0.203125 L 1.890625,-4.8125 c -0.015625,0.046875 -0.03125,0.125 -0.03125,0.140625 0,0 0,0.109375 0.125,0.109375 0.09375,0 0.109375,-0.078125 0.125,-0.109375 C 2.5,-5.84375 3.015625,-6.5 4.5625,-6.5 h 1.625 L 0.625,-0.265625 c 0,0 -0.046875,0.140625 -0.046875,0.171875 C 0.578125,0 0.640625,0 0.828125,0 H 5.15625 c 0.25,0 0.25,-0.015625 0.3125,-0.203125 L 6.1875,-2.40625 c 0,-0.03125 0.03125,-0.109375 0.03125,-0.140625 0,-0.0625 -0.03125,-0.109375 -0.125,-0.109375 -0.09375,0 -0.109375,0.03125 -0.171875,0.25 C 5.484375,-1.0625 5,-0.34375 3.3125,-0.34375 H 1.609375 Z m 0,0"
   id="id-ec73132d-eed6-441c-8a69-1ac8dcba79a1" />
      </symbol>
      <symbol
   overflow="visible"
   id="id-3a72e553-226c-4dcb-be50-313e0592ad38">
        <path
   style="stroke:none;stroke-width:0"
   d=""
   id="id-a1f934c0-ec24-4b4a-af3e-d4a2f944a6d8" />
      </symbol>
      <symbol
   overflow="visible"
   id="id-e7a6c1fd-5da7-43a8-a711-81c719982595">
        <path
   style="stroke:none;stroke-width:0"
   d="M 3.546875,-5.75 C 3.46875,-5.921875 3.40625,-5.96875 3.3125,-5.96875 c -0.125,0 -0.15625,0.078125 -0.21875,0.21875 L 0.625,-0.171875 c -0.0625,0.125 -0.078125,0.140625 -0.078125,0.1875 0,0.109375 0.09375,0.203125 0.203125,0.203125 0.0625,0 0.140625,-0.015625 0.234375,-0.203125 L 3.3125,-5.28125 5.65625,0.015625 C 5.75,0.21875 5.859375,0.21875 5.890625,0.21875 6,0.21875 6.09375,0.125 6.09375,0.015625 c 0,-0.015625 0,-0.03125 -0.0625,-0.15625 z m 0,0"
   id="id-3bd22309-0304-4e3f-80e6-3be7ef967540" />
      </symbol>
      <symbol
   overflow="visible"
   id="id-a9163ad6-e9b5-4a68-bab2-2244e7750f37">
        <path
   style="stroke:none;stroke-width:0"
   d="M 8.3125,-2.296875 C 7.765625,-1.875 7.5,-1.46875 7.421875,-1.328125 c -0.453125,0.6875 -0.53125,1.3125 -0.53125,1.3125 0,0.125 0.125,0.125 0.203125,0.125 C 7.25,0.109375 7.265625,0.09375 7.3125,-0.09375 7.53125,-1.0625 8.125,-1.90625 9.25,-2.359375 9.375,-2.40625 9.40625,-2.421875 9.40625,-2.5 c 0,-0.0625 -0.0625,-0.09375 -0.078125,-0.109375 C 8.875,-2.765625 7.671875,-3.265625 7.296875,-4.9375 7.265625,-5.0625 7.25,-5.09375 7.09375,-5.09375 c -0.078125,0 -0.203125,0 -0.203125,0.125 0,0.015625 0.09375,0.640625 0.5,1.3125 0.203125,0.296875 0.5,0.640625 0.921875,0.96875 H 0.90625 c -0.171875,0 -0.359375,0 -0.359375,0.1875 0,0.203125 0.1875,0.203125 0.359375,0.203125 z m 0,0"
   id="id-4002e39c-8142-425f-accf-c10a9df212e3" />
      </symbol>
    </g>
  </defs>
  

    
    
    
    
    
    
    
    
    
  
      
      
      
      
      
      
      
      
      
      </defs><g
     inkscape:label="Layer 1"
     inkscape:groupmode="layer"
     id="layer1"><path
       id="path1"
       style="fill:#aaeeff;stroke:#0000ff;stroke-width:0.529167;stroke-linecap:round;stroke-dasharray:none;stroke-opacity:1"
       d="m 58.688808,137.41675 c -1.511824,6.05788 5.594738,4.34993 8.918918,4.47793 2.948362,0.11353 7.634374,-0.45435 8.192572,-3.35161 0.601503,-3.12204 -3.705212,-6.19528 -6.854379,-6.6331 -3.843652,-0.53437 -9.645969,3.05794 -10.257111,5.50678 z"
       sodipodi:nodetypes="saaas"
       inkscape:export-filename="geometric-logic-algorithm.png"
       inkscape:export-xdpi="192"
       inkscape:export-ydpi="192" /><path
       id="path1-6"
       style="fill:#aaeeff;stroke:#0000ff;stroke-width:0.529167;stroke-linecap:round;stroke-dasharray:none;stroke-opacity:1"
       d="m 83.734655,132.88825 c -1.387549,3.1344 4.665495,5.18356 7.646125,6.87637 2.862167,1.62552 7.504157,5.59152 9.43195,2.92358 2.08624,-2.88722 -3.127878,-6.90936 -6.208503,-8.69768 -3.149556,-1.82833 -9.395404,-4.43234 -10.869572,-1.10227 z"
       sodipodi:nodetypes="aaaaa" /><path
       id="path1-9"
       style="fill:#aaeeff;stroke:#0000ff;stroke-width:0.529167;stroke-linecap:round;stroke-dasharray:none;stroke-opacity:1"
       d="m 154.0834,137.0168 c -0.32805,-4.45926 -8.53468,-5.73897 -12.73629,-4.20957 -2.9143,1.06081 -6.27911,5.14254 -4.89001,7.91541 1.30706,2.60908 5.85384,1.3219 8.72017,0.77435 3.26414,-0.62356 9.14994,-1.16598 8.90613,-4.48019 z"
       sodipodi:nodetypes="aaaaa" /><path
       id="path1-1"
       style="fill:#aaeeff;stroke:#0000ff;stroke-width:0.529167;stroke-linecap:round;stroke-dasharray:none;stroke-opacity:1"
       d="m 51.171226,132.5037 c 2.136125,4.3069 -5.097885,9.7628 -9.841713,10.54291 -3.060257,0.50325 -8.009141,-1.31402 -8.192572,-4.40995 -0.172596,-2.91305 4.430151,-4.01194 7.164711,-5.03069 3.412648,-1.27135 9.251434,-4.36481 10.869574,-1.10227 z"
       sodipodi:nodetypes="aaaaa" /><path
       id="path1-1-6"
       style="fill:#aaeeff;stroke:#0000ff;stroke-width:0.529167;stroke-linecap:round;stroke-dasharray:none;stroke-opacity:1"
       d="m -91.188084,129.9283 c 1.42294,7.06952 -11.176476,12.16605 -18.352616,11.45466 -4.62934,-0.45893 -11.09421,-5.01324 -10.15806,-9.5701 0.88087,-4.28769 7.97635,-4.09295 12.33393,-4.50737 5.43812,-0.51716 15.098856,-2.73245 16.176746,2.62281 z"
       sodipodi:nodetypes="aaaaa"
       inkscape:export-filename="../../misc-programs/reinforcement-learning-experiments/Halmos-nutshell.png"
       inkscape:export-xdpi="192"
       inkscape:export-ydpi="192" /><text
       xml:space="preserve"
       style="font-weight:300;font-size:14.1111px;line-height:1.25;font-family:'Alibaba PuHuiTi';-inkscape-font-specification:'Alibaba PuHuiTi, Light';letter-spacing:0px;word-spacing:0px;stroke-width:0.264583"
       x="107.3102"
       y="138.37663"
       id="text8"><tspan
         sodipodi:role="line"
         id="tspan8"
         style="font-size:14.1111px;stroke-width:0.264583"
         x="107.3102"
         y="138.37663">. . . .</tspan></text><path
       sodipodi:nodetypes="csscssccsscsscc"
       inkscape:connector-curvature="0"
       id="path7003"
       style="font-style:normal;font-variant:normal;font-weight:normal;font-stretch:normal;font-size:300px;line-height:125%;font-family:'TeX Gyre Pagella';-inkscape-font-specification:'TeX Gyre Pagella';text-align:center;letter-spacing:0px;word-spacing:0px;writing-mode:lr-tb;text-anchor:middle;fill:#4d4d4d;fill-opacity:1;stroke:none;stroke-width:0.15739"
       d="m 146.71852,126.64271 c -2.06263,-0.95998 -6.19416,-1.5826 -15.77308,-1.81462 l -20.99036,-0.50843 c -11.76149,-0.28489 -15.045122,-1.26867 -17.593094,-2.3388 -2.426606,1.03867 -5.829937,2.0984 -16.501072,2.3388 l -22.567649,0.50843 c -9.579754,0.21583 -13.346458,0.82317 -15.894409,1.81462 0.121409,-0.95998 0.970655,-0.92364 3.154613,-1.28562 2.79062,-0.44063 7.405394,-0.987 14.80243,-1.15364 l 22.567649,-0.50842 c 8.730937,-0.19677 12.011832,-1.79285 14.438438,-2.72134 2.426648,0.97571 5.102656,2.47937 14.802474,2.72134 l 20.38367,0.50842 c 8.36609,0.20868 13.10382,0.69727 15.89444,1.10645 2.3053,0.3462 3.15461,0.3099 3.27595,1.33281" /><path
       sodipodi:nodetypes="csscssccsscsscc"
       inkscape:connector-curvature="0"
       id="path7003-1"
       style="font-style:normal;font-variant:normal;font-weight:normal;font-stretch:normal;font-size:300px;line-height:125%;font-family:'TeX Gyre Pagella';-inkscape-font-specification:'TeX Gyre Pagella';text-align:center;letter-spacing:0px;word-spacing:0px;writing-mode:lr-tb;text-anchor:middle;fill:#4d4d4d;fill-opacity:1;stroke:none;stroke-width:0.133909"
       d="m -50.155264,181.07461 c 0.95998,-1.49309 1.5826,-4.48378 1.81462,-11.41771 l 0.50843,-15.19436 c 0.28489,-8.51383 1.26867,-10.89076 2.3388,-12.73516 -1.03867,-1.75656 -2.0984,-4.22014 -2.3388,-11.94469 l -0.50843,-16.33611 c -0.21583,-6.93453 -0.82317,-9.66114 -1.81462,-11.50554 0.95998,0.0879 0.92364,0.70263 1.28562,2.28354 0.44063,2.02006 0.987,5.36057 1.15364,10.71508 l 0.50842,16.33612 c 0.19677,6.32009 1.79285,8.69504 2.72134,10.4516 -0.97571,1.75657 -2.47937,3.69367 -2.72134,10.7151 l -0.50842,14.75519 c -0.20868,6.05599 -0.69727,9.48552 -1.10645,11.50556 -0.3462,1.66876 -0.3099,2.28354 -1.33281,2.37138" /><text
       xml:space="preserve"
       style="font-weight:300;font-size:6.35px;line-height:1.25;font-family:'Alibaba PuHuiTi';-inkscape-font-specification:'Alibaba PuHuiTi, Light';letter-spacing:0px;word-spacing:0px;stroke-width:0.264583"
       x="70.071869"
       y="116.78802"
       id="text1"><tspan
         sodipodi:role="line"
         id="tspan1"
         style="font-style:normal;font-variant:normal;font-weight:normal;font-stretch:normal;font-size:8.46667px;font-family:'Latin Modern Roman';-inkscape-font-specification:'Latin Modern Roman, Normal';font-variant-ligatures:normal;font-variant-caps:normal;font-variant-numeric:normal;font-variant-east-asian:normal;stroke-width:0.264583"
         x="70.071869"
         y="116.78802"><tspan
   style="font-style:italic"
   id="tspan9">n</tspan> predicates</tspan></text><g
       transform="matrix(0.705556,0,0,0.705556,111.35039,149.31188)"
       ns4:version="1.10.2"
       ns4:texconverter="pdflatex"
       ns4:pdfconverter="inkscape"
       ns4:text="n choose 1 ${n \\choose 1}$"
       ns4:preamble="/home/yky/.config/inkscape/extensions/textext/default_packages.tex"
       ns4:scale="2.0"
       ns4:alignment="middle center"
       ns4:stroke-to-path="0"
       ns4:inkscapeversion="1.3.2"
       id="g128"
       ns4:jacobian_sqrt="0.705556"><defs
   id="id-037ff985-9b8c-415a-9ef3-82f72f3fb68a">
    <g
   id="id-ff44b3c7-603e-4a90-95ad-09c0a132ee35">
      <symbol
   overflow="visible"
   id="id-d624aa7b-fa1c-47df-af38-d057f0374b25">
        <path
   style="stroke:none"
   d=""
   id="id-89cebd18-9b4c-40d5-a2c9-a71dfa030a40" />
      </symbol>
      <symbol
   overflow="visible"
   id="id-c2464b77-8c05-4247-90b0-9daff5681e39">
        <path
   style="stroke:none"
   d="M 1.09375,-3.421875 V -0.75 c 0,0.4375 -0.109375,0.4375 -0.78125,0.4375 V 0 c 0.359375,-0.015625 0.859375,-0.03125 1.140625,-0.03125 0.25,0 0.765625,0.015625 1.109375,0.03125 v -0.3125 c -0.671875,0 -0.78125,0 -0.78125,-0.4375 V -2.59375 C 1.78125,-3.625 2.5,-4.1875 3.125,-4.1875 c 0.640625,0 0.75,0.53125 0.75,1.109375 V -0.75 c 0,0.4375 -0.109375,0.4375 -0.78125,0.4375 V 0 c 0.34375,-0.015625 0.859375,-0.03125 1.125,-0.03125 0.25,0 0.78125,0.015625 1.109375,0.03125 v -0.3125 c -0.515625,0 -0.765625,0 -0.765625,-0.296875 v -1.90625 c 0,-0.859375 0,-1.15625 -0.3125,-1.515625 -0.140625,-0.171875 -0.46875,-0.375 -1.046875,-0.375 C 2.46875,-4.40625 2,-3.984375 1.71875,-3.359375 V -4.40625 L 0.3125,-4.296875 v 0.3125 c 0.703125,0 0.78125,0.0625 0.78125,0.5625 z m 0,0"
   id="id-5976d525-b6b9-470e-b544-d96e9997ba54" />
      </symbol>
      <symbol
   overflow="visible"
   id="id-35ea9c71-1c16-478c-8889-46a741967b8e">
        <path
   style="stroke:none"
   d="m 1.171875,-2.171875 c 0,-1.625 0.8125,-2.046875 1.34375,-2.046875 0.09375,0 0.71875,0.015625 1.0625,0.375 -0.40625,0.03125 -0.46875,0.328125 -0.46875,0.453125 0,0.265625 0.1875,0.453125 0.453125,0.453125 0.265625,0 0.46875,-0.15625 0.46875,-0.46875 0,-0.671875 -0.765625,-1.0625 -1.53125,-1.0625 -1.25,0 -2.15625,1.078125 -2.15625,2.3125 0,1.28125 0.984375,2.265625 2.140625,2.265625 1.328125,0 1.65625,-1.203125 1.65625,-1.296875 0,-0.09375 -0.109375,-0.09375 -0.140625,-0.09375 -0.078125,0 -0.109375,0.03125 -0.125,0.09375 -0.28125,0.921875 -0.9375,1.046875 -1.296875,1.046875 -0.53125,0 -1.40625,-0.421875 -1.40625,-2.03125 z m 0,0"
   id="id-e370c591-ea2b-4a79-ac5e-b29f8901a693" />
      </symbol>
      <symbol
   overflow="visible"
   id="id-0f0d0c82-e3c1-4499-956f-d6a3f773c0f4">
        <path
   style="stroke:none"
   d="m 1.09375,-0.75 c 0,0.4375 -0.109375,0.4375 -0.78125,0.4375 V 0 c 0.359375,-0.015625 0.859375,-0.03125 1.140625,-0.03125 0.25,0 0.765625,0.015625 1.109375,0.03125 v -0.3125 c -0.671875,0 -0.78125,0 -0.78125,-0.4375 V -2.59375 C 1.78125,-3.625 2.5,-4.1875 3.125,-4.1875 c 0.640625,0 0.75,0.53125 0.75,1.109375 V -0.75 c 0,0.4375 -0.109375,0.4375 -0.78125,0.4375 V 0 c 0.34375,-0.015625 0.859375,-0.03125 1.125,-0.03125 0.25,0 0.78125,0.015625 1.109375,0.03125 v -0.3125 c -0.515625,0 -0.765625,0 -0.765625,-0.296875 v -1.90625 c 0,-0.859375 0,-1.15625 -0.3125,-1.515625 -0.140625,-0.171875 -0.46875,-0.375 -1.046875,-0.375 -0.84375,0 -1.28125,0.59375 -1.453125,0.984375 v -3.5 L 0.3125,-6.8125 V -6.5 c 0.703125,0 0.78125,0.0625 0.78125,0.5625 z m 0,0"
   id="id-8e445c29-09a7-48bb-91fa-3cd41f8baa66" />
      </symbol>
      <symbol
   overflow="visible"
   id="id-5da06de2-e37b-4922-893d-bb54c390965d">
        <path
   style="stroke:none"
   d="M 4.6875,-2.140625 C 4.6875,-3.40625 3.703125,-4.46875 2.5,-4.46875 c -1.25,0 -2.21875,1.09375 -2.21875,2.328125 0,1.296875 1.03125,2.25 2.203125,2.25 1.203125,0 2.203125,-0.984375 2.203125,-2.25 z m -2.1875,2 c -0.4375,0 -0.875,-0.203125 -1.140625,-0.671875 -0.25,-0.4375 -0.25,-1.046875 -0.25,-1.40625 0,-0.390625 0,-0.921875 0.234375,-1.359375 C 1.609375,-4.03125 2.078125,-4.25 2.484375,-4.25 c 0.4375,0 0.859375,0.21875 1.125,0.65625 0.265625,0.421875 0.265625,1 0.265625,1.375 0,0.359375 0,0.90625 -0.21875,1.34375 C 3.421875,-0.421875 2.984375,-0.140625 2.5,-0.140625 Z m 0,0"
   id="id-9a7db982-dc48-4ca3-8f05-858090f549a4" />
      </symbol>
      <symbol
   overflow="visible"
   id="id-bc10ee76-e361-4328-a8ae-8d7bc220f5f8">
        <path
   style="stroke:none"
   d="m 2.078125,-1.9375 c 0.21875,0.046875 1.03125,0.203125 1.03125,0.921875 0,0.5 -0.34375,0.90625 -1.125,0.90625 -0.84375,0 -1.203125,-0.5625 -1.390625,-1.421875 C 0.5625,-1.65625 0.5625,-1.6875 0.453125,-1.6875 c -0.125,0 -0.125,0.0625 -0.125,0.234375 V -0.125 c 0,0.171875 0,0.234375 0.109375,0.234375 0.046875,0 0.0625,-0.015625 0.25,-0.203125 0.015625,-0.015625 0.015625,-0.03125 0.203125,-0.21875 0.4375,0.40625 0.890625,0.421875 1.09375,0.421875 1.140625,0 1.609375,-0.671875 1.609375,-1.390625 0,-0.515625 -0.296875,-0.828125 -0.421875,-0.9375 C 2.84375,-2.546875 2.453125,-2.625 2.03125,-2.703125 1.46875,-2.8125 0.8125,-2.9375 0.8125,-3.515625 c 0,-0.359375 0.25,-0.765625 1.109375,-0.765625 1.09375,0 1.15625,0.90625 1.171875,1.203125 0,0.09375 0.09375,0.09375 0.109375,0.09375 0.140625,0 0.140625,-0.046875 0.140625,-0.234375 v -1.015625 c 0,-0.15625 0,-0.234375 -0.109375,-0.234375 -0.046875,0 -0.078125,0 -0.203125,0.125 -0.03125,0.03125 -0.125,0.125 -0.171875,0.15625 -0.375,-0.28125 -0.78125,-0.28125 -0.9375,-0.28125 -1.21875,0 -1.59375,0.671875 -1.59375,1.234375 0,0.34375 0.15625,0.625 0.421875,0.84375 0.328125,0.25 0.609375,0.3125 1.328125,0.453125 z m 0,0"
   id="id-49b0cd65-e3ec-40e1-a1dd-031e99d5ddad" />
      </symbol>
      <symbol
   overflow="visible"
   id="id-01a2f70d-3fcd-440f-9760-375d3e3ffe0b">
        <path
   style="stroke:none"
   d="M 1.109375,-2.515625 C 1.171875,-4 2.015625,-4.25 2.359375,-4.25 c 1.015625,0 1.125,1.34375 1.125,1.734375 z m 0,0.21875 h 2.78125 c 0.21875,0 0.25,0 0.25,-0.21875 0,-0.984375 -0.546875,-1.953125 -1.78125,-1.953125 -1.15625,0 -2.078125,1.03125 -2.078125,2.28125 0,1.328125 1.046875,2.296875 2.1875,2.296875 C 3.6875,0.109375 4.140625,-1 4.140625,-1.1875 4.140625,-1.28125 4.0625,-1.3125 4,-1.3125 c -0.078125,0 -0.109375,0.0625 -0.125,0.140625 -0.34375,1.03125 -1.25,1.03125 -1.34375,1.03125 -0.5,0 -0.890625,-0.296875 -1.125,-0.671875 -0.296875,-0.46875 -0.296875,-1.125 -0.296875,-1.484375 z m 0,0"
   id="id-547318c0-447d-4ba6-b979-460a71984889" />
      </symbol>
      <symbol
   overflow="visible"
   id="id-b348067e-ac17-45a0-b36a-e1efeb8aa9c1">
        <path
   style="stroke:none"
   d="m 2.9375,-6.375 c 0,-0.25 0,-0.265625 -0.234375,-0.265625 C 2.078125,-6 1.203125,-6 0.890625,-6 v 0.3125 c 0.203125,0 0.78125,0 1.296875,-0.265625 v 5.171875 c 0,0.359375 -0.03125,0.46875 -0.921875,0.46875 h -0.3125 V 0 c 0.34375,-0.03125 1.203125,-0.03125 1.609375,-0.03125 0.390625,0 1.265625,0 1.609375,0.03125 v -0.3125 h -0.3125 c -0.90625,0 -0.921875,-0.109375 -0.921875,-0.46875 z m 0,0"
   id="id-7a557dec-2844-4c9d-b94d-bf636b85167e" />
      </symbol>
      <symbol
   overflow="visible"
   id="id-22de6ac0-e53e-4e1c-a25a-7b40ce4fc9ca">
        <path
   style="stroke:none"
   d=""
   id="id-35923a0d-08a7-40ae-9475-03cb27bb2860" />
      </symbol>
      <symbol
   overflow="visible"
   id="id-f11a016b-c0d6-49d1-908f-93369aab5bad">
        <path
   style="stroke:none"
   d="m 4.109375,11.453125 c 0,-0.03125 -0.015625,-0.0625 -0.03125,-0.09375 C 3.625,10.875 2.9375,10.0625 2.515625,8.4375 2.296875,7.53125 2.203125,6.515625 2.203125,5.578125 c 0,-2.625 0.625,-4.453125 1.828125,-5.75 0.078125,-0.09375 0.078125,-0.109375 0.078125,-0.125 C 4.109375,-0.40625 4.03125,-0.40625 4,-0.40625 c -0.15625,0 -0.6875,0.609375 -0.8125,0.75 -1.03125,1.21875 -1.671875,3 -1.671875,5.234375 0,1.40625 0.25,3.40625 1.5625,5.09375 0.09375,0.125 0.734375,0.875 0.921875,0.875 0.03125,0 0.109375,0 0.109375,-0.09375 z m 0,0"
   id="id-d7f8d88c-0179-47a9-af47-bbce46fc9eb2" />
      </symbol>
      <symbol
   overflow="visible"
   id="id-55d127f1-6076-4dfe-813a-5d79d0944fb4">
        <path
   style="stroke:none"
   d="m 3.046875,5.578125 c 0,-1.40625 -0.25,-3.421875 -1.5625,-5.09375 -0.09375,-0.125 -0.75,-0.890625 -0.921875,-0.890625 -0.046875,0 -0.125,0.03125 -0.125,0.109375 0,0.03125 0.015625,0.0625 0.0625,0.09375 C 0.984375,0.3125 1.625,1.125 2.03125,2.71875 2.265625,3.625 2.359375,4.640625 2.359375,5.578125 c 0,1 -0.09375,2.015625 -0.359375,3 -0.375,1.390625 -0.96875,2.1875 -1.46875,2.75 -0.09375,0.09375 -0.09375,0.109375 -0.09375,0.125 0,0.07813 0.078125,0.09375 0.125,0.09375 0.140625,0 0.6875,-0.59375 0.8125,-0.734375 1.015625,-1.21875 1.671875,-3 1.671875,-5.234375 z m 0,0"
   id="id-4bd0a36d-0146-4994-87d3-7850bdbd751e" />
      </symbol>
      <symbol
   overflow="visible"
   id="id-8499dfc6-478c-40fe-b3bb-f63c6b882c07">
        <path
   style="stroke:none"
   d=""
   id="id-bf1a816c-44dc-4a48-85e0-c223af7f0d3a" />
      </symbol>
      <symbol
   overflow="visible"
   id="id-3392d43e-c000-4f19-8852-ad59242bd489">
        <path
   style="stroke:none"
   d="m 0.84375,-0.4375 c -0.015625,0.09375 -0.0625,0.265625 -0.0625,0.28125 0,0.15625 0.125,0.21875 0.234375,0.21875 0.125,0 0.234375,-0.078125 0.28125,-0.140625 0.03125,-0.0625 0.078125,-0.296875 0.125,-0.4375 0.03125,-0.125 0.109375,-0.453125 0.140625,-0.625 0.046875,-0.15625 0.09375,-0.3125 0.125,-0.46875 0.078125,-0.28125 0.09375,-0.34375 0.296875,-0.625 C 2.171875,-2.515625 2.5,-2.875 3.03125,-2.875 c 0.390625,0 0.40625,0.359375 0.40625,0.484375 0,0.421875 -0.296875,1.1875 -0.40625,1.484375 -0.078125,0.203125 -0.109375,0.265625 -0.109375,0.375 0,0.375 0.296875,0.59375 0.65625,0.59375 0.703125,0 1,-0.953125 1,-1.0625 0,-0.09375 -0.078125,-0.09375 -0.109375,-0.09375 -0.09375,0 -0.09375,0.046875 -0.125,0.125 C 4.1875,-0.40625 3.875,-0.125 3.609375,-0.125 c -0.15625,0 -0.1875,-0.09375 -0.1875,-0.25 0,-0.15625 0.046875,-0.25 0.171875,-0.5625 0.078125,-0.21875 0.359375,-0.953125 0.359375,-1.34375 0,-0.671875 -0.53125,-0.796875 -0.90625,-0.796875 -0.578125,0 -0.96875,0.359375 -1.171875,0.640625 -0.046875,-0.484375 -0.453125,-0.640625 -0.75,-0.640625 -0.296875,0 -0.453125,0.21875 -0.546875,0.375 -0.15625,0.265625 -0.25,0.65625 -0.25,0.703125 0,0.078125 0.09375,0.078125 0.125,0.078125 0.09375,0 0.09375,-0.015625 0.140625,-0.203125 0.109375,-0.40625 0.25,-0.75 0.515625,-0.75 0.1875,0 0.234375,0.15625 0.234375,0.34375 0,0.125 -0.0625,0.390625 -0.125,0.578125 -0.046875,0.1875 -0.109375,0.46875 -0.140625,0.625 z m 0,0"
   id="id-8480a311-5436-4e72-b64a-1d92a5965b6b" />
      </symbol>
      <symbol
   overflow="visible"
   id="id-d0856e3b-1d0e-4895-8dec-e1215f1d9c23">
        <path
   style="stroke:none"
   d=""
   id="id-d09da9c1-1c16-40ee-8c18-9fefc0464a9d" />
      </symbol>
      <symbol
   overflow="visible"
   id="id-daf657f8-3c04-49ad-a9c5-894bc0ccacd4">
        <path
   style="stroke:none"
   d="m 2.328125,-4.4375 c 0,-0.1875 0,-0.1875 -0.203125,-0.1875 -0.453125,0.4375 -1.078125,0.4375 -1.359375,0.4375 v 0.25 c 0.15625,0 0.625,0 1,-0.1875 v 3.546875 c 0,0.234375 0,0.328125 -0.6875,0.328125 H 0.8125 V 0 c 0.125,0 0.984375,-0.03125 1.234375,-0.03125 0.21875,0 1.09375,0.03125 1.25,0.03125 V -0.25 H 3.03125 c -0.703125,0 -0.703125,-0.09375 -0.703125,-0.328125 z m 0,0"
   id="id-e70fa1ef-da38-4fce-ac8e-d1ef31f7c53a" />
      </symbol>
    </g>
  </defs>
  <g
   id="id-03975fa3-d0a4-4de7-8acf-782ffd6cc880"
   transform="translate(-149.025,-126.289)">
    <g
   style="fill:#000000;fill-opacity:1"
   id="id-bf56ec74-24c4-4573-837c-a5f1e84c0ab2">
      <g
   transform="translate(148.712,134.765)"
   id="g2720"><path
   style="stroke:none"
   d="M 1.09375,-3.421875 V -0.75 c 0,0.4375 -0.109375,0.4375 -0.78125,0.4375 V 0 c 0.359375,-0.015625 0.859375,-0.03125 1.140625,-0.03125 0.25,0 0.765625,0.015625 1.109375,0.03125 v -0.3125 c -0.671875,0 -0.78125,0 -0.78125,-0.4375 V -2.59375 C 1.78125,-3.625 2.5,-4.1875 3.125,-4.1875 c 0.640625,0 0.75,0.53125 0.75,1.109375 V -0.75 c 0,0.4375 -0.109375,0.4375 -0.78125,0.4375 V 0 c 0.34375,-0.015625 0.859375,-0.03125 1.125,-0.03125 0.25,0 0.78125,0.015625 1.109375,0.03125 v -0.3125 c -0.515625,0 -0.765625,0 -0.765625,-0.296875 v -1.90625 c 0,-0.859375 0,-1.15625 -0.3125,-1.515625 -0.140625,-0.171875 -0.46875,-0.375 -1.046875,-0.375 C 2.46875,-4.40625 2,-3.984375 1.71875,-3.359375 V -4.40625 L 0.3125,-4.296875 v 0.3125 c 0.703125,0 0.78125,0.0625 0.78125,0.5625 z m 0,0"
   id="id-a9d792b9-2ad8-4acc-b0a6-c1e766888480" />
      </g></g>
    <g
   style="fill:#000000;fill-opacity:1"
   id="id-1650087e-c5b0-4a26-963b-94eb82b5bd43">
      <g
   transform="translate(157.565,134.765)"
   id="g9398"><path
   style="stroke:none"
   d="m 1.171875,-2.171875 c 0,-1.625 0.8125,-2.046875 1.34375,-2.046875 0.09375,0 0.71875,0.015625 1.0625,0.375 -0.40625,0.03125 -0.46875,0.328125 -0.46875,0.453125 0,0.265625 0.1875,0.453125 0.453125,0.453125 0.265625,0 0.46875,-0.15625 0.46875,-0.46875 0,-0.671875 -0.765625,-1.0625 -1.53125,-1.0625 -1.25,0 -2.15625,1.078125 -2.15625,2.3125 0,1.28125 0.984375,2.265625 2.140625,2.265625 1.328125,0 1.65625,-1.203125 1.65625,-1.296875 0,-0.09375 -0.109375,-0.09375 -0.140625,-0.09375 -0.078125,0 -0.109375,0.03125 -0.125,0.09375 -0.28125,0.921875 -0.9375,1.046875 -1.296875,1.046875 -0.53125,0 -1.40625,-0.421875 -1.40625,-2.03125 z m 0,0"
   id="id-63e407b3-b437-4d56-905c-74babff58851" />
      </g></g>
    <g
   style="fill:#000000;fill-opacity:1"
   id="id-3bf979bd-008e-492e-bad5-809eacd24a95">
      <g
   transform="translate(161.723,134.765)"
   id="g5572"><path
   style="stroke:none"
   d="m 1.09375,-0.75 c 0,0.4375 -0.109375,0.4375 -0.78125,0.4375 V 0 c 0.359375,-0.015625 0.859375,-0.03125 1.140625,-0.03125 0.25,0 0.765625,0.015625 1.109375,0.03125 v -0.3125 c -0.671875,0 -0.78125,0 -0.78125,-0.4375 V -2.59375 C 1.78125,-3.625 2.5,-4.1875 3.125,-4.1875 c 0.640625,0 0.75,0.53125 0.75,1.109375 V -0.75 c 0,0.4375 -0.109375,0.4375 -0.78125,0.4375 V 0 c 0.34375,-0.015625 0.859375,-0.03125 1.125,-0.03125 0.25,0 0.78125,0.015625 1.109375,0.03125 v -0.3125 c -0.515625,0 -0.765625,0 -0.765625,-0.296875 v -1.90625 c 0,-0.859375 0,-1.15625 -0.3125,-1.515625 -0.140625,-0.171875 -0.46875,-0.375 -1.046875,-0.375 -0.84375,0 -1.28125,0.59375 -1.453125,0.984375 v -3.5 L 0.3125,-6.8125 V -6.5 c 0.703125,0 0.78125,0.0625 0.78125,0.5625 z m 0,0"
   id="id-8beddaaa-725a-4e34-9087-859ebb93f5b5" />
      </g><g
   transform="translate(167.258,134.765)"
   id="g3592"><path
   style="stroke:none"
   d="M 4.6875,-2.140625 C 4.6875,-3.40625 3.703125,-4.46875 2.5,-4.46875 c -1.25,0 -2.21875,1.09375 -2.21875,2.328125 0,1.296875 1.03125,2.25 2.203125,2.25 1.203125,0 2.203125,-0.984375 2.203125,-2.25 z m -2.1875,2 c -0.4375,0 -0.875,-0.203125 -1.140625,-0.671875 -0.25,-0.4375 -0.25,-1.046875 -0.25,-1.40625 0,-0.390625 0,-0.921875 0.234375,-1.359375 C 1.609375,-4.03125 2.078125,-4.25 2.484375,-4.25 c 0.4375,0 0.859375,0.21875 1.125,0.65625 0.265625,0.421875 0.265625,1 0.265625,1.375 0,0.359375 0,0.90625 -0.21875,1.34375 C 3.421875,-0.421875 2.984375,-0.140625 2.5,-0.140625 Z m 0,0"
   id="id-d857a8e3-8b43-40a0-8c8b-51ddd8baaf5a" />
      </g></g>
    <g
   style="fill:#000000;fill-opacity:1"
   id="id-0e94a9b2-7b29-4be6-9add-63cba72a336c">
      <g
   transform="translate(172.509,134.765)"
   id="g8808"><path
   style="stroke:none"
   d="M 4.6875,-2.140625 C 4.6875,-3.40625 3.703125,-4.46875 2.5,-4.46875 c -1.25,0 -2.21875,1.09375 -2.21875,2.328125 0,1.296875 1.03125,2.25 2.203125,2.25 1.203125,0 2.203125,-0.984375 2.203125,-2.25 z m -2.1875,2 c -0.4375,0 -0.875,-0.203125 -1.140625,-0.671875 -0.25,-0.4375 -0.25,-1.046875 -0.25,-1.40625 0,-0.390625 0,-0.921875 0.234375,-1.359375 C 1.609375,-4.03125 2.078125,-4.25 2.484375,-4.25 c 0.4375,0 0.859375,0.21875 1.125,0.65625 0.265625,0.421875 0.265625,1 0.265625,1.375 0,0.359375 0,0.90625 -0.21875,1.34375 C 3.421875,-0.421875 2.984375,-0.140625 2.5,-0.140625 Z m 0,0"
   id="id-f6acf13a-05ee-4d5e-874b-d8324415490b" />
      </g><g
   transform="translate(177.49,134.765)"
   id="g4626"><path
   style="stroke:none"
   d="m 2.078125,-1.9375 c 0.21875,0.046875 1.03125,0.203125 1.03125,0.921875 0,0.5 -0.34375,0.90625 -1.125,0.90625 -0.84375,0 -1.203125,-0.5625 -1.390625,-1.421875 C 0.5625,-1.65625 0.5625,-1.6875 0.453125,-1.6875 c -0.125,0 -0.125,0.0625 -0.125,0.234375 V -0.125 c 0,0.171875 0,0.234375 0.109375,0.234375 0.046875,0 0.0625,-0.015625 0.25,-0.203125 0.015625,-0.015625 0.015625,-0.03125 0.203125,-0.21875 0.4375,0.40625 0.890625,0.421875 1.09375,0.421875 1.140625,0 1.609375,-0.671875 1.609375,-1.390625 0,-0.515625 -0.296875,-0.828125 -0.421875,-0.9375 C 2.84375,-2.546875 2.453125,-2.625 2.03125,-2.703125 1.46875,-2.8125 0.8125,-2.9375 0.8125,-3.515625 c 0,-0.359375 0.25,-0.765625 1.109375,-0.765625 1.09375,0 1.15625,0.90625 1.171875,1.203125 0,0.09375 0.09375,0.09375 0.109375,0.09375 0.140625,0 0.140625,-0.046875 0.140625,-0.234375 v -1.015625 c 0,-0.15625 0,-0.234375 -0.109375,-0.234375 -0.046875,0 -0.078125,0 -0.203125,0.125 -0.03125,0.03125 -0.125,0.125 -0.171875,0.15625 -0.375,-0.28125 -0.78125,-0.28125 -0.9375,-0.28125 -1.21875,0 -1.59375,0.671875 -1.59375,1.234375 0,0.34375 0.15625,0.625 0.421875,0.84375 0.328125,0.25 0.609375,0.3125 1.328125,0.453125 z m 0,0"
   id="id-ec5fba0f-70a6-4abf-b819-378ef795411e" />
      </g><g
   transform="translate(181.419,134.765)"
   id="g5437"><path
   style="stroke:none"
   d="M 1.109375,-2.515625 C 1.171875,-4 2.015625,-4.25 2.359375,-4.25 c 1.015625,0 1.125,1.34375 1.125,1.734375 z m 0,0.21875 h 2.78125 c 0.21875,0 0.25,0 0.25,-0.21875 0,-0.984375 -0.546875,-1.953125 -1.78125,-1.953125 -1.15625,0 -2.078125,1.03125 -2.078125,2.28125 0,1.328125 1.046875,2.296875 2.1875,2.296875 C 3.6875,0.109375 4.140625,-1 4.140625,-1.1875 4.140625,-1.28125 4.0625,-1.3125 4,-1.3125 c -0.078125,0 -0.109375,0.0625 -0.125,0.140625 -0.34375,1.03125 -1.25,1.03125 -1.34375,1.03125 -0.5,0 -0.890625,-0.296875 -1.125,-0.671875 -0.296875,-0.46875 -0.296875,-1.125 -0.296875,-1.484375 z m 0,0"
   id="id-558ae9bf-4891-47d0-8b81-0899b044a803" />
      </g></g>
    <g
   style="fill:#000000;fill-opacity:1"
   id="id-80483b9a-93e2-4be9-8a44-0da420e5c99f">
      <g
   transform="translate(189.174,134.765)"
   id="g6685"><path
   style="stroke:none"
   d="m 2.9375,-6.375 c 0,-0.25 0,-0.265625 -0.234375,-0.265625 C 2.078125,-6 1.203125,-6 0.890625,-6 v 0.3125 c 0.203125,0 0.78125,0 1.296875,-0.265625 v 5.171875 c 0,0.359375 -0.03125,0.46875 -0.921875,0.46875 h -0.3125 V 0 c 0.34375,-0.03125 1.203125,-0.03125 1.609375,-0.03125 0.390625,0 1.265625,0 1.609375,0.03125 v -0.3125 h -0.3125 c -0.90625,0 -0.921875,-0.109375 -0.921875,-0.46875 z m 0,0"
   id="id-88aa1e4b-337a-4fdd-87f2-63585298ddd6" />
      </g></g>
    <g
   style="fill:#000000;fill-opacity:1"
   id="id-c441dc3a-7eb8-4272-b7d4-4a1ad895c0ac">
      <g
   transform="translate(197.474,126.695)"
   id="g1245"><path
   style="stroke:none"
   d="m 4.109375,11.453125 c 0,-0.03125 -0.015625,-0.0625 -0.03125,-0.09375 C 3.625,10.875 2.9375,10.0625 2.515625,8.4375 2.296875,7.53125 2.203125,6.515625 2.203125,5.578125 c 0,-2.625 0.625,-4.453125 1.828125,-5.75 0.078125,-0.09375 0.078125,-0.109375 0.078125,-0.125 C 4.109375,-0.40625 4.03125,-0.40625 4,-0.40625 c -0.15625,0 -0.6875,0.609375 -0.8125,0.75 -1.03125,1.21875 -1.671875,3 -1.671875,5.234375 0,1.40625 0.25,3.40625 1.5625,5.09375 0.09375,0.125 0.734375,0.875 0.921875,0.875 0.03125,0 0.109375,0 0.109375,-0.09375 z m 0,0"
   id="id-162cd7fb-7f96-480b-ad2b-a4268de2be47" />
      </g></g>
    <g
   style="fill:#000000;fill-opacity:1"
   id="id-ab7ee8b1-5ad7-48b1-a18f-7e87a639f1f4">
      <g
   transform="translate(202.04,130.344)"
   id="g8328"><path
   style="stroke:none"
   d="m 0.84375,-0.4375 c -0.015625,0.09375 -0.0625,0.265625 -0.0625,0.28125 0,0.15625 0.125,0.21875 0.234375,0.21875 0.125,0 0.234375,-0.078125 0.28125,-0.140625 0.03125,-0.0625 0.078125,-0.296875 0.125,-0.4375 0.03125,-0.125 0.109375,-0.453125 0.140625,-0.625 0.046875,-0.15625 0.09375,-0.3125 0.125,-0.46875 0.078125,-0.28125 0.09375,-0.34375 0.296875,-0.625 C 2.171875,-2.515625 2.5,-2.875 3.03125,-2.875 c 0.390625,0 0.40625,0.359375 0.40625,0.484375 0,0.421875 -0.296875,1.1875 -0.40625,1.484375 -0.078125,0.203125 -0.109375,0.265625 -0.109375,0.375 0,0.375 0.296875,0.59375 0.65625,0.59375 0.703125,0 1,-0.953125 1,-1.0625 0,-0.09375 -0.078125,-0.09375 -0.109375,-0.09375 -0.09375,0 -0.09375,0.046875 -0.125,0.125 C 4.1875,-0.40625 3.875,-0.125 3.609375,-0.125 c -0.15625,0 -0.1875,-0.09375 -0.1875,-0.25 0,-0.15625 0.046875,-0.25 0.171875,-0.5625 0.078125,-0.21875 0.359375,-0.953125 0.359375,-1.34375 0,-0.671875 -0.53125,-0.796875 -0.90625,-0.796875 -0.578125,0 -0.96875,0.359375 -1.171875,0.640625 -0.046875,-0.484375 -0.453125,-0.640625 -0.75,-0.640625 -0.296875,0 -0.453125,0.21875 -0.546875,0.375 -0.15625,0.265625 -0.25,0.65625 -0.25,0.703125 0,0.078125 0.09375,0.078125 0.125,0.078125 0.09375,0 0.09375,-0.015625 0.140625,-0.203125 0.109375,-0.40625 0.25,-0.75 0.515625,-0.75 0.1875,0 0.234375,0.15625 0.234375,0.34375 0,0.125 -0.0625,0.390625 -0.125,0.578125 -0.046875,0.1875 -0.109375,0.46875 -0.140625,0.625 z m 0,0"
   id="id-67df365a-4e03-485d-917c-f17a46c128bb" />
      </g></g>
    <g
   style="fill:#000000;fill-opacity:1"
   id="id-8806f52a-19ec-4159-8927-46ed93ac11d8">
      <g
   transform="translate(202.517,138.2)"
   id="g3911"><path
   style="stroke:none"
   d="m 2.328125,-4.4375 c 0,-0.1875 0,-0.1875 -0.203125,-0.1875 -0.453125,0.4375 -1.078125,0.4375 -1.359375,0.4375 v 0.25 c 0.15625,0 0.625,0 1,-0.1875 v 3.546875 c 0,0.234375 0,0.328125 -0.6875,0.328125 H 0.8125 V 0 c 0.125,0 0.984375,-0.03125 1.234375,-0.03125 0.21875,0 1.09375,0.03125 1.25,0.03125 V -0.25 H 3.03125 c -0.703125,0 -0.703125,-0.09375 -0.703125,-0.328125 z m 0,0"
   id="id-f00a1a04-58fe-4f00-92f4-ebd9a5c5a060" />
      </g></g>
    <g
   style="fill:#000000;fill-opacity:1"
   id="id-7c748c30-c5b2-46ad-b4b7-980d23e163ed">
      <g
   transform="translate(206.965,126.695)"
   id="g959"><path
   style="stroke:none"
   d="m 3.046875,5.578125 c 0,-1.40625 -0.25,-3.421875 -1.5625,-5.09375 -0.09375,-0.125 -0.75,-0.890625 -0.921875,-0.890625 -0.046875,0 -0.125,0.03125 -0.125,0.109375 0,0.03125 0.015625,0.0625 0.0625,0.09375 C 0.984375,0.3125 1.625,1.125 2.03125,2.71875 2.265625,3.625 2.359375,4.640625 2.359375,5.578125 c 0,1 -0.09375,2.015625 -0.359375,3 -0.375,1.390625 -0.96875,2.1875 -1.46875,2.75 -0.09375,0.09375 -0.09375,0.109375 -0.09375,0.125 0,0.07813 0.078125,0.09375 0.125,0.09375 0.140625,0 0.6875,-0.59375 0.8125,-0.734375 1.015625,-1.21875 1.671875,-3 1.671875,-5.234375 z m 0,0"
   id="id-b4995937-7964-40f9-8337-55870856b82c" />
      </g></g>
  </g>
</g><g
       transform="matrix(0.705556,0,0,0.705556,34.488384,149.31188)"
       ns4:version="1.10.2"
       ns4:texconverter="pdflatex"
       ns4:pdfconverter="inkscape"
       ns4:text="n choose k ${n \\choose k}$"
       ns4:preamble="/home/yky/.config/inkscape/extensions/textext/default_packages.tex"
       ns4:scale="2.0"
       ns4:alignment="middle center"
       ns4:stroke-to-path="0"
       ns4:inkscapeversion="1.3.2"
       id="g1260"
       ns4:jacobian_sqrt="0.705556"><defs
   id="id-167f7fb7-c4c6-4d9b-b05f-67e74e9fcf41">
    <g
   id="id-7fe2f9cc-a950-4fe0-b7e2-41ff83ae8c1b">
      <symbol
   overflow="visible"
   id="id-2f2b9b2d-c946-4533-83cc-701e294745a3">
        <path
   style="stroke:none"
   d=""
   id="id-8370a03d-cc07-4b60-9ba7-5ee23fa9217d" />
      </symbol>
      <symbol
   overflow="visible"
   id="id-a72df396-3ef6-4c4f-9c14-f01e49218c41">
        <path
   style="stroke:none"
   d="M 1.09375,-3.421875 V -0.75 c 0,0.4375 -0.109375,0.4375 -0.78125,0.4375 V 0 c 0.359375,-0.015625 0.859375,-0.03125 1.140625,-0.03125 0.25,0 0.765625,0.015625 1.109375,0.03125 v -0.3125 c -0.671875,0 -0.78125,0 -0.78125,-0.4375 V -2.59375 C 1.78125,-3.625 2.5,-4.1875 3.125,-4.1875 c 0.640625,0 0.75,0.53125 0.75,1.109375 V -0.75 c 0,0.4375 -0.109375,0.4375 -0.78125,0.4375 V 0 c 0.34375,-0.015625 0.859375,-0.03125 1.125,-0.03125 0.25,0 0.78125,0.015625 1.109375,0.03125 v -0.3125 c -0.515625,0 -0.765625,0 -0.765625,-0.296875 v -1.90625 c 0,-0.859375 0,-1.15625 -0.3125,-1.515625 -0.140625,-0.171875 -0.46875,-0.375 -1.046875,-0.375 C 2.46875,-4.40625 2,-3.984375 1.71875,-3.359375 V -4.40625 L 0.3125,-4.296875 v 0.3125 c 0.703125,0 0.78125,0.0625 0.78125,0.5625 z m 0,0"
   id="id-5dc40553-d7eb-41fe-8620-6a88054e1066" />
      </symbol>
      <symbol
   overflow="visible"
   id="id-86461399-1f73-44c7-addd-02b856c45b89">
        <path
   style="stroke:none"
   d="m 1.171875,-2.171875 c 0,-1.625 0.8125,-2.046875 1.34375,-2.046875 0.09375,0 0.71875,0.015625 1.0625,0.375 -0.40625,0.03125 -0.46875,0.328125 -0.46875,0.453125 0,0.265625 0.1875,0.453125 0.453125,0.453125 0.265625,0 0.46875,-0.15625 0.46875,-0.46875 0,-0.671875 -0.765625,-1.0625 -1.53125,-1.0625 -1.25,0 -2.15625,1.078125 -2.15625,2.3125 0,1.28125 0.984375,2.265625 2.140625,2.265625 1.328125,0 1.65625,-1.203125 1.65625,-1.296875 0,-0.09375 -0.109375,-0.09375 -0.140625,-0.09375 -0.078125,0 -0.109375,0.03125 -0.125,0.09375 -0.28125,0.921875 -0.9375,1.046875 -1.296875,1.046875 -0.53125,0 -1.40625,-0.421875 -1.40625,-2.03125 z m 0,0"
   id="id-56b4710b-5c24-4e8e-a687-adaf5600ad82" />
      </symbol>
      <symbol
   overflow="visible"
   id="id-e754690b-92e4-4b27-a7d5-3ed5a1674495">
        <path
   style="stroke:none"
   d="m 1.09375,-0.75 c 0,0.4375 -0.109375,0.4375 -0.78125,0.4375 V 0 c 0.359375,-0.015625 0.859375,-0.03125 1.140625,-0.03125 0.25,0 0.765625,0.015625 1.109375,0.03125 v -0.3125 c -0.671875,0 -0.78125,0 -0.78125,-0.4375 V -2.59375 C 1.78125,-3.625 2.5,-4.1875 3.125,-4.1875 c 0.640625,0 0.75,0.53125 0.75,1.109375 V -0.75 c 0,0.4375 -0.109375,0.4375 -0.78125,0.4375 V 0 c 0.34375,-0.015625 0.859375,-0.03125 1.125,-0.03125 0.25,0 0.78125,0.015625 1.109375,0.03125 v -0.3125 c -0.515625,0 -0.765625,0 -0.765625,-0.296875 v -1.90625 c 0,-0.859375 0,-1.15625 -0.3125,-1.515625 -0.140625,-0.171875 -0.46875,-0.375 -1.046875,-0.375 -0.84375,0 -1.28125,0.59375 -1.453125,0.984375 v -3.5 L 0.3125,-6.8125 V -6.5 c 0.703125,0 0.78125,0.0625 0.78125,0.5625 z m 0,0"
   id="id-0582ae91-954d-47c7-904c-29d0b04f73ed" />
      </symbol>
      <symbol
   overflow="visible"
   id="id-869b63ec-7b83-494f-bd86-2bfc348e78f8">
        <path
   style="stroke:none"
   d="M 4.6875,-2.140625 C 4.6875,-3.40625 3.703125,-4.46875 2.5,-4.46875 c -1.25,0 -2.21875,1.09375 -2.21875,2.328125 0,1.296875 1.03125,2.25 2.203125,2.25 1.203125,0 2.203125,-0.984375 2.203125,-2.25 z m -2.1875,2 c -0.4375,0 -0.875,-0.203125 -1.140625,-0.671875 -0.25,-0.4375 -0.25,-1.046875 -0.25,-1.40625 0,-0.390625 0,-0.921875 0.234375,-1.359375 C 1.609375,-4.03125 2.078125,-4.25 2.484375,-4.25 c 0.4375,0 0.859375,0.21875 1.125,0.65625 0.265625,0.421875 0.265625,1 0.265625,1.375 0,0.359375 0,0.90625 -0.21875,1.34375 C 3.421875,-0.421875 2.984375,-0.140625 2.5,-0.140625 Z m 0,0"
   id="id-05ddfcc0-d2bc-429c-b38f-0bcf8988dfe8" />
      </symbol>
      <symbol
   overflow="visible"
   id="id-14a2f776-ec85-4db1-8474-95a889394f17">
        <path
   style="stroke:none"
   d="m 2.078125,-1.9375 c 0.21875,0.046875 1.03125,0.203125 1.03125,0.921875 0,0.5 -0.34375,0.90625 -1.125,0.90625 -0.84375,0 -1.203125,-0.5625 -1.390625,-1.421875 C 0.5625,-1.65625 0.5625,-1.6875 0.453125,-1.6875 c -0.125,0 -0.125,0.0625 -0.125,0.234375 V -0.125 c 0,0.171875 0,0.234375 0.109375,0.234375 0.046875,0 0.0625,-0.015625 0.25,-0.203125 0.015625,-0.015625 0.015625,-0.03125 0.203125,-0.21875 0.4375,0.40625 0.890625,0.421875 1.09375,0.421875 1.140625,0 1.609375,-0.671875 1.609375,-1.390625 0,-0.515625 -0.296875,-0.828125 -0.421875,-0.9375 C 2.84375,-2.546875 2.453125,-2.625 2.03125,-2.703125 1.46875,-2.8125 0.8125,-2.9375 0.8125,-3.515625 c 0,-0.359375 0.25,-0.765625 1.109375,-0.765625 1.09375,0 1.15625,0.90625 1.171875,1.203125 0,0.09375 0.09375,0.09375 0.109375,0.09375 0.140625,0 0.140625,-0.046875 0.140625,-0.234375 v -1.015625 c 0,-0.15625 0,-0.234375 -0.109375,-0.234375 -0.046875,0 -0.078125,0 -0.203125,0.125 -0.03125,0.03125 -0.125,0.125 -0.171875,0.15625 -0.375,-0.28125 -0.78125,-0.28125 -0.9375,-0.28125 -1.21875,0 -1.59375,0.671875 -1.59375,1.234375 0,0.34375 0.15625,0.625 0.421875,0.84375 0.328125,0.25 0.609375,0.3125 1.328125,0.453125 z m 0,0"
   id="id-faa04343-f726-4421-8cec-777c32b5b60f" />
      </symbol>
      <symbol
   overflow="visible"
   id="id-e2e03aaf-3446-4d95-9687-ba692b340cd7">
        <path
   style="stroke:none"
   d="M 1.109375,-2.515625 C 1.171875,-4 2.015625,-4.25 2.359375,-4.25 c 1.015625,0 1.125,1.34375 1.125,1.734375 z m 0,0.21875 h 2.78125 c 0.21875,0 0.25,0 0.25,-0.21875 0,-0.984375 -0.546875,-1.953125 -1.78125,-1.953125 -1.15625,0 -2.078125,1.03125 -2.078125,2.28125 0,1.328125 1.046875,2.296875 2.1875,2.296875 C 3.6875,0.109375 4.140625,-1 4.140625,-1.1875 4.140625,-1.28125 4.0625,-1.3125 4,-1.3125 c -0.078125,0 -0.109375,0.0625 -0.125,0.140625 -0.34375,1.03125 -1.25,1.03125 -1.34375,1.03125 -0.5,0 -0.890625,-0.296875 -1.125,-0.671875 -0.296875,-0.46875 -0.296875,-1.125 -0.296875,-1.484375 z m 0,0"
   id="id-3888da23-e527-4574-8f50-bf5f0cf00c82" />
      </symbol>
      <symbol
   overflow="visible"
   id="id-010c1db2-4222-4867-a5e1-f97d041dbbe0">
        <path
   style="stroke:none"
   d="m 1.0625,-0.75 c 0,0.4375 -0.109375,0.4375 -0.78125,0.4375 V 0 c 0.328125,-0.015625 0.796875,-0.03125 1.078125,-0.03125 0.3125,0 0.703125,0.015625 1.109375,0.03125 v -0.3125 c -0.671875,0 -0.78125,0 -0.78125,-0.4375 v -1.03125 l 0.640625,-0.546875 c 0.765625,1.046875 1.1875,1.609375 1.1875,1.796875 0,0.1875 -0.171875,0.21875 -0.359375,0.21875 V 0 c 0.265625,-0.015625 0.859375,-0.03125 1.078125,-0.03125 0.28125,0 0.578125,0.015625 0.859375,0.03125 v -0.3125 c -0.375,0 -0.59375,0 -0.96875,-0.53125 L 2.859375,-2.625 c -0.015625,-0.015625 -0.0625,-0.078125 -0.0625,-0.109375 0,-0.03125 0.71875,-0.640625 0.8125,-0.71875 0.625,-0.5 1.046875,-0.53125 1.25,-0.53125 v -0.3125 c -0.28125,0.03125 -0.40625,0.03125 -0.6875,0.03125 -0.359375,0 -0.984375,-0.015625 -1.125,-0.03125 v 0.3125 c 0.1875,0 0.296875,0.109375 0.296875,0.25 0,0.203125 -0.140625,0.3125 -0.21875,0.390625 l -1.40625,1.203125 v -4.78125 L 0.28125,-6.8125 V -6.5 c 0.703125,0 0.78125,0.0625 0.78125,0.5625 z m 0,0"
   id="id-4478cb82-39cb-4566-9495-c0ca772d7ec3" />
      </symbol>
      <symbol
   overflow="visible"
   id="id-9d355cfd-b771-4fa5-b254-2a3afcee3483">
        <path
   style="stroke:none"
   d=""
   id="id-c8de6151-0b51-4493-b1fe-0dfae7c1c20e" />
      </symbol>
      <symbol
   overflow="visible"
   id="id-37fd0085-3e7b-4ea1-bcf5-6ca1c8e0a886">
        <path
   style="stroke:none"
   d="m 4.109375,11.453125 c 0,-0.03125 -0.015625,-0.0625 -0.03125,-0.09375 C 3.625,10.875 2.9375,10.0625 2.515625,8.4375 2.296875,7.53125 2.203125,6.515625 2.203125,5.578125 c 0,-2.625 0.625,-4.453125 1.828125,-5.75 0.078125,-0.09375 0.078125,-0.109375 0.078125,-0.125 C 4.109375,-0.40625 4.03125,-0.40625 4,-0.40625 c -0.15625,0 -0.6875,0.609375 -0.8125,0.75 -1.03125,1.21875 -1.671875,3 -1.671875,5.234375 0,1.40625 0.25,3.40625 1.5625,5.09375 0.09375,0.125 0.734375,0.875 0.921875,0.875 0.03125,0 0.109375,0 0.109375,-0.09375 z m 0,0"
   id="id-17f48ba9-7e01-4727-98c4-00195dd7cc04" />
      </symbol>
      <symbol
   overflow="visible"
   id="id-2e539b1a-6619-45a9-bf62-c5cc3f8b4cec">
        <path
   style="stroke:none"
   d="m 3.046875,5.578125 c 0,-1.40625 -0.25,-3.421875 -1.5625,-5.09375 -0.09375,-0.125 -0.75,-0.890625 -0.921875,-0.890625 -0.046875,0 -0.125,0.03125 -0.125,0.109375 0,0.03125 0.015625,0.0625 0.0625,0.09375 C 0.984375,0.3125 1.625,1.125 2.03125,2.71875 2.265625,3.625 2.359375,4.640625 2.359375,5.578125 c 0,1 -0.09375,2.015625 -0.359375,3 -0.375,1.390625 -0.96875,2.1875 -1.46875,2.75 -0.09375,0.09375 -0.09375,0.109375 -0.09375,0.125 0,0.07813 0.078125,0.09375 0.125,0.09375 0.140625,0 0.6875,-0.59375 0.8125,-0.734375 1.015625,-1.21875 1.671875,-3 1.671875,-5.234375 z m 0,0"
   id="id-65b42971-d499-4b06-8208-1ae4df214864" />
      </symbol>
      <symbol
   overflow="visible"
   id="id-73f87891-d149-432b-9823-ea27fc92932e">
        <path
   style="stroke:none"
   d=""
   id="id-3cda14d3-fd58-48b1-a64d-079a9a9de9b1" />
      </symbol>
      <symbol
   overflow="visible"
   id="id-eafab2a9-fd36-4917-a236-1f8ce674d859">
        <path
   style="stroke:none"
   d="m 0.84375,-0.4375 c -0.015625,0.09375 -0.0625,0.265625 -0.0625,0.28125 0,0.15625 0.125,0.21875 0.234375,0.21875 0.125,0 0.234375,-0.078125 0.28125,-0.140625 0.03125,-0.0625 0.078125,-0.296875 0.125,-0.4375 0.03125,-0.125 0.109375,-0.453125 0.140625,-0.625 0.046875,-0.15625 0.09375,-0.3125 0.125,-0.46875 0.078125,-0.28125 0.09375,-0.34375 0.296875,-0.625 C 2.171875,-2.515625 2.5,-2.875 3.03125,-2.875 c 0.390625,0 0.40625,0.359375 0.40625,0.484375 0,0.421875 -0.296875,1.1875 -0.40625,1.484375 -0.078125,0.203125 -0.109375,0.265625 -0.109375,0.375 0,0.375 0.296875,0.59375 0.65625,0.59375 0.703125,0 1,-0.953125 1,-1.0625 0,-0.09375 -0.078125,-0.09375 -0.109375,-0.09375 -0.09375,0 -0.09375,0.046875 -0.125,0.125 C 4.1875,-0.40625 3.875,-0.125 3.609375,-0.125 c -0.15625,0 -0.1875,-0.09375 -0.1875,-0.25 0,-0.15625 0.046875,-0.25 0.171875,-0.5625 0.078125,-0.21875 0.359375,-0.953125 0.359375,-1.34375 0,-0.671875 -0.53125,-0.796875 -0.90625,-0.796875 -0.578125,0 -0.96875,0.359375 -1.171875,0.640625 -0.046875,-0.484375 -0.453125,-0.640625 -0.75,-0.640625 -0.296875,0 -0.453125,0.21875 -0.546875,0.375 -0.15625,0.265625 -0.25,0.65625 -0.25,0.703125 0,0.078125 0.09375,0.078125 0.125,0.078125 0.09375,0 0.09375,-0.015625 0.140625,-0.203125 0.109375,-0.40625 0.25,-0.75 0.515625,-0.75 0.1875,0 0.234375,0.15625 0.234375,0.34375 0,0.125 -0.0625,0.390625 -0.125,0.578125 -0.046875,0.1875 -0.109375,0.46875 -0.140625,0.625 z m 0,0"
   id="id-ffee7589-bb32-4be7-9144-ff266e8c94b1" />
      </symbol>
      <symbol
   overflow="visible"
   id="id-9069f69f-c7fb-462b-b336-38ba45ef2eb4">
        <path
   style="stroke:none"
   d="m 2.1875,-4.625 c 0,-0.015625 0.015625,-0.109375 0.015625,-0.109375 0,-0.046875 -0.015625,-0.109375 -0.109375,-0.109375 -0.140625,0 -0.71875,0.0625 -0.890625,0.078125 -0.046875,0 -0.15625,0.015625 -0.15625,0.15625 0,0.09375 0.109375,0.09375 0.1875,0.09375 0.328125,0 0.328125,0.0625 0.328125,0.109375 0,0.046875 -0.015625,0.09375 -0.015625,0.15625 L 0.5625,-0.3125 c -0.046875,0.125 -0.046875,0.140625 -0.046875,0.15625 0,0.109375 0.09375,0.21875 0.25,0.21875 0.1875,0 0.265625,-0.125 0.3125,-0.28125 0.015625,-0.03125 0.3125,-1.265625 0.34375,-1.359375 0.5,0.046875 0.890625,0.21875 0.890625,0.578125 0,0.03125 0,0.0625 -0.015625,0.140625 -0.03125,0.09375 -0.03125,0.140625 -0.03125,0.21875 0,0.484375 0.40625,0.703125 0.75,0.703125 0.671875,0 0.875,-1.046875 0.875,-1.0625 0,-0.09375 -0.078125,-0.09375 -0.109375,-0.09375 -0.09375,0 -0.109375,0.046875 -0.140625,0.171875 C 3.5625,-0.625 3.375,-0.125 3.03125,-0.125 c -0.1875,0 -0.25,-0.171875 -0.25,-0.359375 0,-0.125 0,-0.140625 0.046875,-0.3125 0.015625,-0.03125 0.03125,-0.140625 0.03125,-0.21875 0,-0.625 -0.828125,-0.71875 -1.125,-0.734375 C 1.9375,-1.875 2.1875,-2.109375 2.3125,-2.21875 2.671875,-2.546875 3.015625,-2.875 3.40625,-2.875 c 0.078125,0 0.171875,0.015625 0.234375,0.09375 C 3.34375,-2.734375 3.28125,-2.5 3.28125,-2.390625 c 0,0.140625 0.109375,0.25 0.265625,0.25 0.203125,0 0.40625,-0.15625 0.40625,-0.4375 0,-0.234375 -0.171875,-0.5 -0.53125,-0.5 -0.40625,0 -0.765625,0.296875 -1.125,0.625 C 2,-2.1875 1.78125,-1.96875 1.484375,-1.84375 Z m 0,0"
   id="id-4fe3b5c0-1b93-48b4-99ff-456030377440" />
      </symbol>
    </g>
  </defs>
  <g
   id="id-dd5809c8-e5df-4083-8d3b-6a12687a5a61"
   transform="translate(-149.025,-126.289)">
    <g
   style="fill:#000000;fill-opacity:1"
   id="id-2c1422b3-c196-4bcb-9987-22cb2abab620">
      <g
   transform="translate(148.712,134.765)"
   id="g5183"><path
   style="stroke:none"
   d="M 1.09375,-3.421875 V -0.75 c 0,0.4375 -0.109375,0.4375 -0.78125,0.4375 V 0 c 0.359375,-0.015625 0.859375,-0.03125 1.140625,-0.03125 0.25,0 0.765625,0.015625 1.109375,0.03125 v -0.3125 c -0.671875,0 -0.78125,0 -0.78125,-0.4375 V -2.59375 C 1.78125,-3.625 2.5,-4.1875 3.125,-4.1875 c 0.640625,0 0.75,0.53125 0.75,1.109375 V -0.75 c 0,0.4375 -0.109375,0.4375 -0.78125,0.4375 V 0 c 0.34375,-0.015625 0.859375,-0.03125 1.125,-0.03125 0.25,0 0.78125,0.015625 1.109375,0.03125 v -0.3125 c -0.515625,0 -0.765625,0 -0.765625,-0.296875 v -1.90625 c 0,-0.859375 0,-1.15625 -0.3125,-1.515625 -0.140625,-0.171875 -0.46875,-0.375 -1.046875,-0.375 C 2.46875,-4.40625 2,-3.984375 1.71875,-3.359375 V -4.40625 L 0.3125,-4.296875 v 0.3125 c 0.703125,0 0.78125,0.0625 0.78125,0.5625 z m 0,0"
   id="id-eeebb1b1-415c-40b1-8454-2cfdab17542b" />
      </g></g>
    <g
   style="fill:#000000;fill-opacity:1"
   id="id-32362c1a-a7e9-43d3-8b1f-02c7c6b5d3e7">
      <g
   transform="translate(157.565,134.765)"
   id="g1089"><path
   style="stroke:none"
   d="m 1.171875,-2.171875 c 0,-1.625 0.8125,-2.046875 1.34375,-2.046875 0.09375,0 0.71875,0.015625 1.0625,0.375 -0.40625,0.03125 -0.46875,0.328125 -0.46875,0.453125 0,0.265625 0.1875,0.453125 0.453125,0.453125 0.265625,0 0.46875,-0.15625 0.46875,-0.46875 0,-0.671875 -0.765625,-1.0625 -1.53125,-1.0625 -1.25,0 -2.15625,1.078125 -2.15625,2.3125 0,1.28125 0.984375,2.265625 2.140625,2.265625 1.328125,0 1.65625,-1.203125 1.65625,-1.296875 0,-0.09375 -0.109375,-0.09375 -0.140625,-0.09375 -0.078125,0 -0.109375,0.03125 -0.125,0.09375 -0.28125,0.921875 -0.9375,1.046875 -1.296875,1.046875 -0.53125,0 -1.40625,-0.421875 -1.40625,-2.03125 z m 0,0"
   id="id-5368ff91-76ef-4e68-959d-546383fd005d" />
      </g></g>
    <g
   style="fill:#000000;fill-opacity:1"
   id="id-0af52ffe-2845-4885-9bbe-ba5025bdc70d">
      <g
   transform="translate(161.723,134.765)"
   id="g4634"><path
   style="stroke:none"
   d="m 1.09375,-0.75 c 0,0.4375 -0.109375,0.4375 -0.78125,0.4375 V 0 c 0.359375,-0.015625 0.859375,-0.03125 1.140625,-0.03125 0.25,0 0.765625,0.015625 1.109375,0.03125 v -0.3125 c -0.671875,0 -0.78125,0 -0.78125,-0.4375 V -2.59375 C 1.78125,-3.625 2.5,-4.1875 3.125,-4.1875 c 0.640625,0 0.75,0.53125 0.75,1.109375 V -0.75 c 0,0.4375 -0.109375,0.4375 -0.78125,0.4375 V 0 c 0.34375,-0.015625 0.859375,-0.03125 1.125,-0.03125 0.25,0 0.78125,0.015625 1.109375,0.03125 v -0.3125 c -0.515625,0 -0.765625,0 -0.765625,-0.296875 v -1.90625 c 0,-0.859375 0,-1.15625 -0.3125,-1.515625 -0.140625,-0.171875 -0.46875,-0.375 -1.046875,-0.375 -0.84375,0 -1.28125,0.59375 -1.453125,0.984375 v -3.5 L 0.3125,-6.8125 V -6.5 c 0.703125,0 0.78125,0.0625 0.78125,0.5625 z m 0,0"
   id="id-976aae6b-be6e-424c-9d22-df5e594154b5" />
      </g><g
   transform="translate(167.258,134.765)"
   id="g8265"><path
   style="stroke:none"
   d="M 4.6875,-2.140625 C 4.6875,-3.40625 3.703125,-4.46875 2.5,-4.46875 c -1.25,0 -2.21875,1.09375 -2.21875,2.328125 0,1.296875 1.03125,2.25 2.203125,2.25 1.203125,0 2.203125,-0.984375 2.203125,-2.25 z m -2.1875,2 c -0.4375,0 -0.875,-0.203125 -1.140625,-0.671875 -0.25,-0.4375 -0.25,-1.046875 -0.25,-1.40625 0,-0.390625 0,-0.921875 0.234375,-1.359375 C 1.609375,-4.03125 2.078125,-4.25 2.484375,-4.25 c 0.4375,0 0.859375,0.21875 1.125,0.65625 0.265625,0.421875 0.265625,1 0.265625,1.375 0,0.359375 0,0.90625 -0.21875,1.34375 C 3.421875,-0.421875 2.984375,-0.140625 2.5,-0.140625 Z m 0,0"
   id="id-48137da5-cd55-4662-a8d6-b4656ac41a70" />
      </g></g>
    <g
   style="fill:#000000;fill-opacity:1"
   id="id-0b2cda82-ea18-4914-89ec-d8ae25c14274">
      <g
   transform="translate(172.509,134.765)"
   id="g2064"><path
   style="stroke:none"
   d="M 4.6875,-2.140625 C 4.6875,-3.40625 3.703125,-4.46875 2.5,-4.46875 c -1.25,0 -2.21875,1.09375 -2.21875,2.328125 0,1.296875 1.03125,2.25 2.203125,2.25 1.203125,0 2.203125,-0.984375 2.203125,-2.25 z m -2.1875,2 c -0.4375,0 -0.875,-0.203125 -1.140625,-0.671875 -0.25,-0.4375 -0.25,-1.046875 -0.25,-1.40625 0,-0.390625 0,-0.921875 0.234375,-1.359375 C 1.609375,-4.03125 2.078125,-4.25 2.484375,-4.25 c 0.4375,0 0.859375,0.21875 1.125,0.65625 0.265625,0.421875 0.265625,1 0.265625,1.375 0,0.359375 0,0.90625 -0.21875,1.34375 C 3.421875,-0.421875 2.984375,-0.140625 2.5,-0.140625 Z m 0,0"
   id="id-9067b381-9713-443e-baba-fbcd34acd113" />
      </g><g
   transform="translate(177.49,134.765)"
   id="g6932"><path
   style="stroke:none"
   d="m 2.078125,-1.9375 c 0.21875,0.046875 1.03125,0.203125 1.03125,0.921875 0,0.5 -0.34375,0.90625 -1.125,0.90625 -0.84375,0 -1.203125,-0.5625 -1.390625,-1.421875 C 0.5625,-1.65625 0.5625,-1.6875 0.453125,-1.6875 c -0.125,0 -0.125,0.0625 -0.125,0.234375 V -0.125 c 0,0.171875 0,0.234375 0.109375,0.234375 0.046875,0 0.0625,-0.015625 0.25,-0.203125 0.015625,-0.015625 0.015625,-0.03125 0.203125,-0.21875 0.4375,0.40625 0.890625,0.421875 1.09375,0.421875 1.140625,0 1.609375,-0.671875 1.609375,-1.390625 0,-0.515625 -0.296875,-0.828125 -0.421875,-0.9375 C 2.84375,-2.546875 2.453125,-2.625 2.03125,-2.703125 1.46875,-2.8125 0.8125,-2.9375 0.8125,-3.515625 c 0,-0.359375 0.25,-0.765625 1.109375,-0.765625 1.09375,0 1.15625,0.90625 1.171875,1.203125 0,0.09375 0.09375,0.09375 0.109375,0.09375 0.140625,0 0.140625,-0.046875 0.140625,-0.234375 v -1.015625 c 0,-0.15625 0,-0.234375 -0.109375,-0.234375 -0.046875,0 -0.078125,0 -0.203125,0.125 -0.03125,0.03125 -0.125,0.125 -0.171875,0.15625 -0.375,-0.28125 -0.78125,-0.28125 -0.9375,-0.28125 -1.21875,0 -1.59375,0.671875 -1.59375,1.234375 0,0.34375 0.15625,0.625 0.421875,0.84375 0.328125,0.25 0.609375,0.3125 1.328125,0.453125 z m 0,0"
   id="id-21e05978-5a29-4b14-8343-1c98d698b09e" />
      </g><g
   transform="translate(181.419,134.765)"
   id="g2988"><path
   style="stroke:none"
   d="M 1.109375,-2.515625 C 1.171875,-4 2.015625,-4.25 2.359375,-4.25 c 1.015625,0 1.125,1.34375 1.125,1.734375 z m 0,0.21875 h 2.78125 c 0.21875,0 0.25,0 0.25,-0.21875 0,-0.984375 -0.546875,-1.953125 -1.78125,-1.953125 -1.15625,0 -2.078125,1.03125 -2.078125,2.28125 0,1.328125 1.046875,2.296875 2.1875,2.296875 C 3.6875,0.109375 4.140625,-1 4.140625,-1.1875 4.140625,-1.28125 4.0625,-1.3125 4,-1.3125 c -0.078125,0 -0.109375,0.0625 -0.125,0.140625 -0.34375,1.03125 -1.25,1.03125 -1.34375,1.03125 -0.5,0 -0.890625,-0.296875 -1.125,-0.671875 -0.296875,-0.46875 -0.296875,-1.125 -0.296875,-1.484375 z m 0,0"
   id="id-368e9e4e-32bd-41e1-8f5d-a9f585cc8192" />
      </g></g>
    <g
   style="fill:#000000;fill-opacity:1"
   id="id-01ac6e5e-03ad-4953-9e22-b3d2ae6c399e">
      <g
   transform="translate(189.174,134.765)"
   id="g4105"><path
   style="stroke:none"
   d="m 1.0625,-0.75 c 0,0.4375 -0.109375,0.4375 -0.78125,0.4375 V 0 c 0.328125,-0.015625 0.796875,-0.03125 1.078125,-0.03125 0.3125,0 0.703125,0.015625 1.109375,0.03125 v -0.3125 c -0.671875,0 -0.78125,0 -0.78125,-0.4375 v -1.03125 l 0.640625,-0.546875 c 0.765625,1.046875 1.1875,1.609375 1.1875,1.796875 0,0.1875 -0.171875,0.21875 -0.359375,0.21875 V 0 c 0.265625,-0.015625 0.859375,-0.03125 1.078125,-0.03125 0.28125,0 0.578125,0.015625 0.859375,0.03125 v -0.3125 c -0.375,0 -0.59375,0 -0.96875,-0.53125 L 2.859375,-2.625 c -0.015625,-0.015625 -0.0625,-0.078125 -0.0625,-0.109375 0,-0.03125 0.71875,-0.640625 0.8125,-0.71875 0.625,-0.5 1.046875,-0.53125 1.25,-0.53125 v -0.3125 c -0.28125,0.03125 -0.40625,0.03125 -0.6875,0.03125 -0.359375,0 -0.984375,-0.015625 -1.125,-0.03125 v 0.3125 c 0.1875,0 0.296875,0.109375 0.296875,0.25 0,0.203125 -0.140625,0.3125 -0.21875,0.390625 l -1.40625,1.203125 v -4.78125 L 0.28125,-6.8125 V -6.5 c 0.703125,0 0.78125,0.0625 0.78125,0.5625 z m 0,0"
   id="id-e9600e07-1678-4ace-ab18-6b7044dbd187" />
      </g></g>
    <g
   style="fill:#000000;fill-opacity:1"
   id="id-122f1930-928f-46ec-b03d-5dac49324895">
      <g
   transform="translate(197.751,126.695)"
   id="g3735"><path
   style="stroke:none"
   d="m 4.109375,11.453125 c 0,-0.03125 -0.015625,-0.0625 -0.03125,-0.09375 C 3.625,10.875 2.9375,10.0625 2.515625,8.4375 2.296875,7.53125 2.203125,6.515625 2.203125,5.578125 c 0,-2.625 0.625,-4.453125 1.828125,-5.75 0.078125,-0.09375 0.078125,-0.109375 0.078125,-0.125 C 4.109375,-0.40625 4.03125,-0.40625 4,-0.40625 c -0.15625,0 -0.6875,0.609375 -0.8125,0.75 -1.03125,1.21875 -1.671875,3 -1.671875,5.234375 0,1.40625 0.25,3.40625 1.5625,5.09375 0.09375,0.125 0.734375,0.875 0.921875,0.875 0.03125,0 0.109375,0 0.109375,-0.09375 z m 0,0"
   id="id-828cde2f-56e5-4e17-846a-144b9aec09d9" />
      </g></g>
    <g
   style="fill:#000000;fill-opacity:1"
   id="id-d28d9cba-d327-43fd-88b2-4f9fef189cce">
      <g
   transform="translate(202.317,130.344)"
   id="g1197"><path
   style="stroke:none"
   d="m 0.84375,-0.4375 c -0.015625,0.09375 -0.0625,0.265625 -0.0625,0.28125 0,0.15625 0.125,0.21875 0.234375,0.21875 0.125,0 0.234375,-0.078125 0.28125,-0.140625 0.03125,-0.0625 0.078125,-0.296875 0.125,-0.4375 0.03125,-0.125 0.109375,-0.453125 0.140625,-0.625 0.046875,-0.15625 0.09375,-0.3125 0.125,-0.46875 0.078125,-0.28125 0.09375,-0.34375 0.296875,-0.625 C 2.171875,-2.515625 2.5,-2.875 3.03125,-2.875 c 0.390625,0 0.40625,0.359375 0.40625,0.484375 0,0.421875 -0.296875,1.1875 -0.40625,1.484375 -0.078125,0.203125 -0.109375,0.265625 -0.109375,0.375 0,0.375 0.296875,0.59375 0.65625,0.59375 0.703125,0 1,-0.953125 1,-1.0625 0,-0.09375 -0.078125,-0.09375 -0.109375,-0.09375 -0.09375,0 -0.09375,0.046875 -0.125,0.125 C 4.1875,-0.40625 3.875,-0.125 3.609375,-0.125 c -0.15625,0 -0.1875,-0.09375 -0.1875,-0.25 0,-0.15625 0.046875,-0.25 0.171875,-0.5625 0.078125,-0.21875 0.359375,-0.953125 0.359375,-1.34375 0,-0.671875 -0.53125,-0.796875 -0.90625,-0.796875 -0.578125,0 -0.96875,0.359375 -1.171875,0.640625 -0.046875,-0.484375 -0.453125,-0.640625 -0.75,-0.640625 -0.296875,0 -0.453125,0.21875 -0.546875,0.375 -0.15625,0.265625 -0.25,0.65625 -0.25,0.703125 0,0.078125 0.09375,0.078125 0.125,0.078125 0.09375,0 0.09375,-0.015625 0.140625,-0.203125 0.109375,-0.40625 0.25,-0.75 0.515625,-0.75 0.1875,0 0.234375,0.15625 0.234375,0.34375 0,0.125 -0.0625,0.390625 -0.125,0.578125 -0.046875,0.1875 -0.109375,0.46875 -0.140625,0.625 z m 0,0"
   id="id-44b3229e-52f7-4f8f-b2e0-0e595dd8ac22" />
      </g></g>
    <g
   style="fill:#000000;fill-opacity:1"
   id="id-92289a2d-695f-4311-8cf8-03ac5a50d8c9">
      <g
   transform="translate(202.578,138.2)"
   id="g7375"><path
   style="stroke:none"
   d="m 2.1875,-4.625 c 0,-0.015625 0.015625,-0.109375 0.015625,-0.109375 0,-0.046875 -0.015625,-0.109375 -0.109375,-0.109375 -0.140625,0 -0.71875,0.0625 -0.890625,0.078125 -0.046875,0 -0.15625,0.015625 -0.15625,0.15625 0,0.09375 0.109375,0.09375 0.1875,0.09375 0.328125,0 0.328125,0.0625 0.328125,0.109375 0,0.046875 -0.015625,0.09375 -0.015625,0.15625 L 0.5625,-0.3125 c -0.046875,0.125 -0.046875,0.140625 -0.046875,0.15625 0,0.109375 0.09375,0.21875 0.25,0.21875 0.1875,0 0.265625,-0.125 0.3125,-0.28125 0.015625,-0.03125 0.3125,-1.265625 0.34375,-1.359375 0.5,0.046875 0.890625,0.21875 0.890625,0.578125 0,0.03125 0,0.0625 -0.015625,0.140625 -0.03125,0.09375 -0.03125,0.140625 -0.03125,0.21875 0,0.484375 0.40625,0.703125 0.75,0.703125 0.671875,0 0.875,-1.046875 0.875,-1.0625 0,-0.09375 -0.078125,-0.09375 -0.109375,-0.09375 -0.09375,0 -0.109375,0.046875 -0.140625,0.171875 C 3.5625,-0.625 3.375,-0.125 3.03125,-0.125 c -0.1875,0 -0.25,-0.171875 -0.25,-0.359375 0,-0.125 0,-0.140625 0.046875,-0.3125 0.015625,-0.03125 0.03125,-0.140625 0.03125,-0.21875 0,-0.625 -0.828125,-0.71875 -1.125,-0.734375 C 1.9375,-1.875 2.1875,-2.109375 2.3125,-2.21875 2.671875,-2.546875 3.015625,-2.875 3.40625,-2.875 c 0.078125,0 0.171875,0.015625 0.234375,0.09375 C 3.34375,-2.734375 3.28125,-2.5 3.28125,-2.390625 c 0,0.140625 0.109375,0.25 0.265625,0.25 0.203125,0 0.40625,-0.15625 0.40625,-0.4375 0,-0.234375 -0.171875,-0.5 -0.53125,-0.5 -0.40625,0 -0.765625,0.296875 -1.125,0.625 C 2,-2.1875 1.78125,-1.96875 1.484375,-1.84375 Z m 0,0"
   id="id-99bf66ae-c244-400a-affc-545e7a602dc0" />
      </g></g>
    <g
   style="fill:#000000;fill-opacity:1"
   id="id-ac8567fe-d8a6-4a49-9a24-f436812a5a49">
      <g
   transform="translate(207.242,126.695)"
   id="g1839"><path
   style="stroke:none"
   d="m 3.046875,5.578125 c 0,-1.40625 -0.25,-3.421875 -1.5625,-5.09375 -0.09375,-0.125 -0.75,-0.890625 -0.921875,-0.890625 -0.046875,0 -0.125,0.03125 -0.125,0.109375 0,0.03125 0.015625,0.0625 0.0625,0.09375 C 0.984375,0.3125 1.625,1.125 2.03125,2.71875 2.265625,3.625 2.359375,4.640625 2.359375,5.578125 c 0,1 -0.09375,2.015625 -0.359375,3 -0.375,1.390625 -0.96875,2.1875 -1.46875,2.75 -0.09375,0.09375 -0.09375,0.109375 -0.09375,0.125 0,0.07813 0.078125,0.09375 0.125,0.09375 0.140625,0 0.6875,-0.59375 0.8125,-0.734375 1.015625,-1.21875 1.671875,-3 1.671875,-5.234375 z m 0,0"
   id="id-faf4cc16-9e07-43f7-b8c2-78597c270d29" />
      </g></g>
  </g>
</g><path
       style="fill:none;stroke:#000000;stroke-width:0.264583px;stroke-linecap:butt;stroke-linejoin:miter;stroke-opacity:1"
       d="m 46.399346,169.43107 4.2297,-11.09832 14.598335,11.33921"
       id="path4"
       sodipodi:nodetypes="ccc" /><path
       style="fill:none;stroke:#000000;stroke-width:0.264583px;stroke-linecap:butt;stroke-linejoin:miter;stroke-opacity:1"
       d="M 85.559634,169.82223 50.629046,158.33275"
       id="path5"
       sodipodi:nodetypes="cc" /><path
       style="fill:none;stroke:#000000;stroke-width:0.264583px;stroke-linecap:butt;stroke-linejoin:miter;stroke-opacity:1"
       d="M 131.03247,169.87064 V 159.02588"
       id="path5-9"
       sodipodi:nodetypes="cc" /><path
       style="fill:none;stroke:#0000ff;stroke-width:0.264583px;stroke-linecap:butt;stroke-linejoin:miter;stroke-opacity:1"
       d="m -154.13116,133.80832 c 0,0 26.44948,10.72587 35.80256,2.72492"
       id="path5-9-3"
       sodipodi:nodetypes="cc" /><path
       style="fill:none;stroke:#0000ff;stroke-width:0.264583px;stroke-linecap:butt;stroke-linejoin:miter;stroke-opacity:1"
       d="m -112.85643,134.22188 c 0,0 8.43183,20.20897 7.78717,38.85813"
       id="path25"
       sodipodi:nodetypes="cc" /><path
       style="fill:none;stroke:#0000ff;stroke-width:0.264583px;stroke-linecap:butt;stroke-linejoin:miter;stroke-opacity:1"
       d="m -97.522314,130.86483 c 0,0 -7.902656,23.38397 -7.257996,42.03313"
       id="path24" /><path
       style="fill:none;stroke:#000000;stroke-width:0.264583px;stroke-linecap:butt;stroke-linejoin:miter;stroke-opacity:1"
       d="m -76.093644,139.7463 c 0,0 -14.73696,14.09992 -15.38162,32.74908"
       id="path5-9-3-5" /><g
       transform="matrix(1.05833,0,0,1.05833,41.010998,180.16242)"
       id="g7726"
       style="fill:#000000;fill-opacity:1"><path
   style="stroke:none;stroke-width:0"
   d="M 3.015625,-3.15625 H 4.71875 c 1.40625,0 2.796875,-1.03125 2.796875,-2.140625 0,-0.78125 -0.65625,-1.515625 -1.96875,-1.515625 h -3.21875 c -0.1875,0 -0.296875,0 -0.296875,0.1875 0,0.125 0.078125,0.125 0.28125,0.125 0.125,0 0.3125,0.015625 0.421875,0.015625 0.171875,0.03125 0.21875,0.046875 0.21875,0.171875 0,0.03125 0,0.0625 -0.03125,0.1875 l -1.34375,5.34375 c -0.09375,0.390625 -0.109375,0.46875 -0.90625,0.46875 -0.15625,0 -0.265625,0 -0.265625,0.1875 C 0.40625,0 0.515625,0 0.546875,0 0.828125,0 1.53125,-0.03125 1.8125,-0.03125 c 0.21875,0 0.4375,0.015625 0.640625,0.015625 0.21875,0 0.4375,0.015625 0.640625,0.015625 0.078125,0 0.203125,0 0.203125,-0.203125 0,-0.109375 -0.09375,-0.109375 -0.28125,-0.109375 -0.359375,0 -0.640625,0 -0.640625,-0.171875 0,-0.0625 0.015625,-0.109375 0.03125,-0.171875 z M 3.734375,-6.125 C 3.828125,-6.46875 3.84375,-6.5 4.28125,-6.5 h 0.953125 c 0.828125,0 1.359375,0.265625 1.359375,0.953125 0,0.390625 -0.203125,1.25 -0.59375,1.609375 -0.5,0.453125 -1.09375,0.53125 -1.53125,0.53125 H 3.0625 Z m 0,0"
   id="id-939e8c50-f1f2-48ac-a837-5b8fba354fbd" />
      </g><g
       transform="matrix(1.05833,0,0,1.05833,51.587948,180.16242)"
       id="g5664"
       style="fill:#000000;fill-opacity:1"><path
   style="stroke:none;stroke-width:0"
   d="M 3.546875,-5.75 C 3.46875,-5.921875 3.40625,-5.96875 3.3125,-5.96875 c -0.125,0 -0.15625,0.078125 -0.21875,0.21875 L 0.625,-0.171875 c -0.0625,0.125 -0.078125,0.140625 -0.078125,0.1875 0,0.109375 0.09375,0.203125 0.203125,0.203125 0.0625,0 0.140625,-0.015625 0.234375,-0.203125 L 3.3125,-5.28125 5.65625,0.015625 C 5.75,0.21875 5.859375,0.21875 5.890625,0.21875 6,0.21875 6.09375,0.125 6.09375,0.015625 c 0,-0.015625 0,-0.03125 -0.0625,-0.15625 z m 0,0"
   id="id-d131c6c6-f5a3-4ea0-905b-4216a4c31920" />
      </g><g
       transform="matrix(1.05833,0,0,1.05833,60.960518,180.16242)"
       id="g5662"
       style="fill:#000000;fill-opacity:1"><path
   style="stroke:none;stroke-width:0"
   d="M 4.359375,-0.0625 C 5.90625,-0.640625 7.375,-2.421875 7.375,-4.34375 c 0,-1.609375 -1.0625,-2.6875 -2.546875,-2.6875 -2.140625,0 -4.34375,2.265625 -4.34375,4.59375 0,1.65625 1.125,2.65625 2.5625,2.65625 0.25,0 0.578125,-0.046875 0.96875,-0.15625 -0.03125,0.625 -0.03125,0.640625 -0.03125,0.78125 0,0.3125 0,1.09375 0.828125,1.09375 1.171875,0 1.65625,-1.828125 1.65625,-1.9375 0,-0.0625 -0.0625,-0.09375 -0.109375,-0.09375 -0.078125,0 -0.09375,0.046875 -0.125,0.109375 C 6,0.71875 5.421875,0.96875 5.078125,0.96875 c -0.46875,0 -0.609375,-0.265625 -0.71875,-1.03125 z m -1.875,-0.078125 c -0.78125,-0.3125 -1.125,-1.078125 -1.125,-1.984375 0,-0.6875 0.265625,-2.109375 1.015625,-3.171875 C 3.109375,-6.3125 4.046875,-6.78125 4.78125,-6.78125 5.765625,-6.78125 6.5,-6 6.5,-4.671875 c 0,1 -0.515625,3.34375 -2.1875,4.265625 -0.046875,-0.34375 -0.140625,-1.0625 -0.875,-1.0625 -0.53125,0 -1.015625,0.484375 -1.015625,1.015625 0,0.1875 0.0625,0.296875 0.0625,0.3125 z M 3.09375,-0.03125 c -0.140625,0 -0.453125,0 -0.453125,-0.421875 0,-0.40625 0.375,-0.796875 0.796875,-0.796875 0.421875,0 0.609375,0.234375 0.609375,0.84375 0,0.140625 -0.015625,0.15625 -0.109375,0.203125 C 3.671875,-0.09375 3.375,-0.03125 3.09375,-0.03125 Z m 0,0"
   id="id-82352025-fd6e-4100-a649-540f166d921e" />
      </g><g
       transform="matrix(1.05833,0,0,1.05833,71.639068,180.16242)"
       id="g1228"
       style="fill:#000000;fill-opacity:1"><path
   style="stroke:none;stroke-width:0"
   d="M 3.546875,-5.75 C 3.46875,-5.921875 3.40625,-5.96875 3.3125,-5.96875 c -0.125,0 -0.15625,0.078125 -0.21875,0.21875 L 0.625,-0.171875 c -0.0625,0.125 -0.078125,0.140625 -0.078125,0.1875 0,0.109375 0.09375,0.203125 0.203125,0.203125 0.0625,0 0.140625,-0.015625 0.234375,-0.203125 L 3.3125,-5.28125 5.65625,0.015625 C 5.75,0.21875 5.859375,0.21875 5.890625,0.21875 6,0.21875 6.09375,0.125 6.09375,0.015625 c 0,-0.015625 0,-0.03125 -0.0625,-0.15625 z m 0,0"
   id="id-ee1f8839-4777-4ee0-8d8c-e42e6e214f04" />
      </g><g
       transform="matrix(1.05833,0,0,1.05833,81.01058,180.16242)"
       id="g940"
       style="fill:#000000;fill-opacity:1"><path
   style="stroke:none;stroke-width:0"
   d="m 3.734375,-6.125 c 0.0625,-0.234375 0.09375,-0.328125 0.28125,-0.359375 C 4.109375,-6.5 4.421875,-6.5 4.625,-6.5 c 0.703125,0 1.8125,0 1.8125,0.984375 0,0.34375 -0.15625,1.03125 -0.546875,1.421875 -0.265625,0.25 -0.78125,0.578125 -1.6875,0.578125 H 3.09375 Z m 1.4375,2.734375 c 1.015625,-0.21875 2.1875,-0.921875 2.1875,-1.921875 0,-0.859375 -0.890625,-1.5 -2.203125,-1.5 H 2.328125 c -0.203125,0 -0.296875,0 -0.296875,0.203125 C 2.03125,-6.5 2.125,-6.5 2.3125,-6.5 c 0.015625,0 0.203125,0 0.375,0.015625 0.1875,0.03125 0.265625,0.03125 0.265625,0.171875 0,0.03125 0,0.0625 -0.03125,0.1875 l -1.34375,5.34375 C 1.484375,-0.390625 1.46875,-0.3125 0.671875,-0.3125 0.5,-0.3125 0.40625,-0.3125 0.40625,-0.109375 0.40625,0 0.53125,0 0.546875,0 c 0.28125,0 0.984375,-0.03125 1.25,-0.03125 0.28125,0 1,0.03125 1.28125,0.03125 0.078125,0 0.1875,0 0.1875,-0.203125 0,-0.109375 -0.078125,-0.109375 -0.28125,-0.109375 -0.359375,0 -0.640625,0 -0.640625,-0.171875 0,-0.0625 0.015625,-0.109375 0.03125,-0.171875 l 0.65625,-2.640625 h 1.1875 c 0.90625,0 1.078125,0.5625 1.078125,0.90625 0,0.140625 -0.078125,0.453125 -0.140625,0.6875 C 5.09375,-1.421875 5,-1.0625 5,-0.859375 5,0.21875 6.203125,0.21875 6.328125,0.21875 c 0.84375,0 1.203125,-1 1.203125,-1.140625 0,-0.125 -0.109375,-0.125 -0.125,-0.125 -0.09375,0 -0.109375,0.0625 -0.125,0.140625 C 7.03125,-0.171875 6.59375,0 6.375,0 6.046875,0 5.96875,-0.21875 5.96875,-0.609375 c 0,-0.3125 0.0625,-0.8125 0.109375,-1.140625 0.015625,-0.140625 0.03125,-0.328125 0.03125,-0.46875 0,-0.765625 -0.671875,-1.078125 -0.9375,-1.171875 z m 0,0"
   id="id-79f85cf5-8edc-49a3-989b-2d8d2053ae1d" />
      </g><g
       transform="matrix(1.05833,0,0,1.05833,91.44148,180.16242)"
       id="g4094"
       style="fill:#000000;fill-opacity:1"><path
   style="stroke:none;stroke-width:0"
   d="M 3.546875,-5.75 C 3.46875,-5.921875 3.40625,-5.96875 3.3125,-5.96875 c -0.125,0 -0.15625,0.078125 -0.21875,0.21875 L 0.625,-0.171875 c -0.0625,0.125 -0.078125,0.140625 -0.078125,0.1875 0,0.109375 0.09375,0.203125 0.203125,0.203125 0.0625,0 0.140625,-0.015625 0.234375,-0.203125 L 3.3125,-5.28125 5.65625,0.015625 C 5.75,0.21875 5.859375,0.21875 5.890625,0.21875 6,0.21875 6.09375,0.125 6.09375,0.015625 c 0,-0.015625 0,-0.03125 -0.0625,-0.15625 z m 0,0"
   id="id-9a1e441d-a0cc-42f7-800d-cc5dacf6ed25" />
      </g><g
       transform="matrix(1.05833,0,0,1.05833,100.81299,180.16242)"
       id="g6705"
       style="fill:#000000;fill-opacity:1"><path
   style="stroke:none;stroke-width:0"
   d="m 1.90625,-0.53125 c 0,-0.28125 -0.234375,-0.53125 -0.515625,-0.53125 -0.296875,0 -0.53125,0.25 -0.53125,0.53125 C 0.859375,-0.234375 1.09375,0 1.390625,0 1.671875,0 1.90625,-0.234375 1.90625,-0.53125 Z m 0,0"
   id="id-a9328b70-7190-4661-86df-35fa90993c99" />
      </g><g
       transform="matrix(1.05833,0,0,1.05833,103.74245,180.16242)"
       id="g3117"
       style="fill:#000000;fill-opacity:1"><path
   style="stroke:none;stroke-width:0"
   d="m 1.90625,-0.53125 c 0,-0.28125 -0.234375,-0.53125 -0.515625,-0.53125 -0.296875,0 -0.53125,0.25 -0.53125,0.53125 C 0.859375,-0.234375 1.09375,0 1.390625,0 1.671875,0 1.90625,-0.234375 1.90625,-0.53125 Z m 0,0"
   id="id-0bb389d9-0ad5-4ee8-94bd-f50354728047" />
      </g><g
       transform="matrix(1.05833,0,0,1.05833,106.67085,180.16242)"
       id="g3165"
       style="fill:#000000;fill-opacity:1"><path
   style="stroke:none;stroke-width:0"
   d="m 1.90625,-0.53125 c 0,-0.28125 -0.234375,-0.53125 -0.515625,-0.53125 -0.296875,0 -0.53125,0.25 -0.53125,0.53125 C 0.859375,-0.234375 1.09375,0 1.390625,0 1.671875,0 1.90625,-0.234375 1.90625,-0.53125 Z m 0,0"
   id="id-5c23d5d6-0c7c-435e-852c-a34d118c0a03" />
      </g><path
       style="fill:#000000;fill-opacity:1;stroke:none;stroke-width:0"
       d="m 121.32608,177.73157 c -0.57878,0.44648 -0.85989,0.87643 -0.94258,1.02526 -0.47955,0.7276 -0.56223,1.38905 -0.56223,1.38905 0,0.13229 0.13229,0.13229 0.21497,0.13229 0.16536,0 0.1819,-0.0165 0.23151,-0.21497 0.23151,-1.02526 0.85989,-1.91822 2.05051,-2.39778 0.13229,-0.0496 0.16537,-0.0661 0.16537,-0.14883 0,-0.0661 -0.0662,-0.0992 -0.0827,-0.11575 -0.47955,-0.16536 -1.75285,-0.69453 -2.14973,-2.46392 -0.0331,-0.1323 -0.0496,-0.16537 -0.21497,-0.16537 -0.0827,0 -0.21497,0 -0.21497,0.13229 0,0.0165 0.0992,0.678 0.52916,1.38906 0.21497,0.31419 0.52917,0.67799 0.97565,1.02526 h -7.83826 c -0.1819,0 -0.38034,0 -0.38034,0.19843 0,0.21498 0.19844,0.21498 0.38034,0.21498 z m 0,0"
       id="id-2739868b-d14e-4882-a38e-0134ef49b327" /><path
       style="fill:#000000;fill-opacity:1;stroke:none;stroke-width:0"
       d="m -97.981614,172.76994 c -0.47253,-0.61254 -0.92755,-0.91005 -1.08506,-0.99756 -0.77005,-0.50752 -1.470086,-0.59502 -1.470086,-0.59502 -0.14,0 -0.14,0.14 -0.14,0.22751 0,0.175 0.0175,0.19251 0.22751,0.24501 1.085056,0.24501 2.030116,0.91005 2.537646,2.17012 0.0525,0.14 0.07,0.17501 0.15751,0.17501 0.07,0 0.105,-0.07 0.12251,-0.0875 0.175,-0.50752 0.73504,-1.8551 2.60764,-2.27513 0.14001,-0.035 0.17501,-0.0525 0.17501,-0.22751 0,-0.0875 0,-0.2275 -0.14001,-0.2275 -0.0175,0 -0.71755,0.10498 -1.47008,0.56002 -0.33252,0.22751 -0.71754,0.56004 -1.08506,1.03256 v -18.87879 c 0,-0.19252 0,-0.40253 -0.21001,-0.40253 -0.22751,0 -0.22751,0.21001 -0.22751,0.40253 z"
       id="id-2739868b-d14e-4882-a38e-0134ef49b327-5"
       sodipodi:nodetypes="cccsccsccssccsssc" /><g
       transform="matrix(1.05833,0,0,1.05833,126.00125,180.16242)"
       id="g9137"
       style="fill:#000000;fill-opacity:1"><path
   style="stroke:none;stroke-width:0"
   d="m 7.171875,-6.5625 c 0.015625,-0.046875 0.03125,-0.09375 0.03125,-0.15625 0,-0.09375 -0.046875,-0.09375 -0.25,-0.09375 H 2.75 c -0.234375,0 -0.25,0.015625 -0.3125,0.203125 L 1.890625,-4.8125 c -0.015625,0.046875 -0.03125,0.125 -0.03125,0.140625 0,0 0,0.109375 0.125,0.109375 0.09375,0 0.109375,-0.078125 0.125,-0.109375 C 2.5,-5.84375 3.015625,-6.5 4.5625,-6.5 h 1.625 L 0.625,-0.265625 c 0,0 -0.046875,0.140625 -0.046875,0.171875 C 0.578125,0 0.640625,0 0.828125,0 H 5.15625 c 0.25,0 0.25,-0.015625 0.3125,-0.203125 L 6.1875,-2.40625 c 0,-0.03125 0.03125,-0.109375 0.03125,-0.140625 0,-0.0625 -0.03125,-0.109375 -0.125,-0.109375 -0.09375,0 -0.109375,0.03125 -0.171875,0.25 C 5.484375,-1.0625 5,-0.34375 3.3125,-0.34375 H 1.609375 Z m 0,0"
   id="id-30ec64b6-333a-4f3f-98a4-0a6688a841f4" />
      </g><text
       xml:space="preserve"
       style="font-weight:300;font-size:6.35px;line-height:1.25;font-family:'Alibaba PuHuiTi';-inkscape-font-specification:'Alibaba PuHuiTi, Light';letter-spacing:0px;word-spacing:0px;stroke-width:0.264583"
       x="81.130386"
       y="102.12196"
       id="text7"><tspan
         sodipodi:role="line"
         id="tspan7"
         style="stroke-width:0.264583"
         x="81.130386"
         y="102.12196" /></text><text
       xml:space="preserve"
       style="font-weight:300;font-size:2.82222px;line-height:1.25;font-family:'Alibaba PuHuiTi';-inkscape-font-specification:'Alibaba PuHuiTi, Light';letter-spacing:0px;word-spacing:0px;fill:#0000ff;stroke-width:0.264583"
       x="-114.40601"
       y="135.5154"
       id="text2"><tspan
         sodipodi:role="line"
         id="tspan2"
         style="font-size:2.82222px;fill:#0000ff;stroke-width:0.264583"
         x="-114.40601"
         y="135.5154"></tspan></text><text
       xml:space="preserve"
       style="font-weight:300;font-size:2.82222px;line-height:1.25;font-family:'Alibaba PuHuiTi';-inkscape-font-specification:'Alibaba PuHuiTi, Light';letter-spacing:0px;word-spacing:0px;fill:#0000ff;stroke-width:0.264583"
       x="-98.925957"
       y="131.78326"
       id="text2-2"><tspan
         sodipodi:role="line"
         id="tspan2-7"
         style="font-size:2.82222px;fill:#0000ff;stroke-width:0.264583"
         x="-98.925957"
         y="131.78326"></tspan></text><text
       xml:space="preserve"
       style="font-weight:300;font-size:2.82222px;line-height:1.25;font-family:'Alibaba PuHuiTi';-inkscape-font-specification:'Alibaba PuHuiTi, Light';letter-spacing:0px;word-spacing:0px;stroke-width:0.264583"
       x="-77.556664"
       y="140.80031"
       id="text2-6"><tspan
         sodipodi:role="line"
         id="tspan2-0"
         style="font-size:2.82222px;stroke-width:0.264583"
         x="-77.556664"
         y="140.80031"></tspan></text><text
       xml:space="preserve"
       style="font-weight:300;font-size:4.93889px;line-height:1.25;font-family:'Alibaba PuHuiTi';-inkscape-font-specification:'Alibaba PuHuiTi, Light';letter-spacing:0px;word-spacing:0px;fill:#0000ff;stroke-width:0.264583"
       x="-127.90084"
       y="125.40681"
       id="text3"><tspan
         sodipodi:role="line"
         id="tspan3"
         style="font-style:normal;font-variant:normal;font-weight:normal;font-stretch:normal;font-size:4.93889px;font-family:'Alibaba PuHuiTi';-inkscape-font-specification:'Alibaba PuHuiTi';fill:#0000ff;stroke-width:0.264583"
         x="-127.90084"
         y="125.40681">Socrates</tspan></text><text
       xml:space="preserve"
       style="font-weight:300;font-size:4.93889px;line-height:1.25;font-family:'Alibaba PuHuiTi';-inkscape-font-specification:'Alibaba PuHuiTi, Light';letter-spacing:0px;word-spacing:0px;fill:#0000ff;stroke-width:0.264583"
       x="-155.20137"
       y="124.7241"
       id="text3-6"><tspan
         sodipodi:role="line"
         id="tspan3-3"
         style="font-style:normal;font-variant:normal;font-weight:normal;font-stretch:normal;font-size:4.93889px;font-family:'Alibaba PuHuiTi';-inkscape-font-specification:'Alibaba PuHuiTi';text-align:center;text-anchor:middle;fill:#0000ff;stroke-width:0.264583"
         x="-155.20137"
         y="124.7241">the predicate</tspan><tspan
         sodipodi:role="line"
         style="font-style:normal;font-variant:normal;font-weight:normal;font-stretch:normal;font-size:4.93889px;font-family:'Alibaba PuHuiTi';-inkscape-font-specification:'Alibaba PuHuiTi';text-align:center;text-anchor:middle;fill:#0000ff;stroke-width:0.264583"
         x="-155.20137"
         y="130.89771"
         id="tspan6">&quot;human&quot;</tspan></text><text
       xml:space="preserve"
       style="font-weight:300;font-size:4.93889px;line-height:1.25;font-family:'Alibaba PuHuiTi';-inkscape-font-specification:'Alibaba PuHuiTi, Light';letter-spacing:0px;word-spacing:0px;fill:#0000ff;stroke-width:0.264583"
       x="-101.87783"
       y="123.60541"
       id="text3-1"><tspan
         sodipodi:role="line"
         id="tspan3-8"
         style="font-style:normal;font-variant:normal;font-weight:normal;font-stretch:normal;font-size:4.93889px;font-family:'Alibaba PuHuiTi';-inkscape-font-specification:'Alibaba PuHuiTi';fill:#0000ff;stroke-width:0.264583"
         x="-101.87783"
         y="123.60541">Plato</tspan></text><text
       xml:space="preserve"
       style="font-weight:300;font-size:6.35px;line-height:1.25;font-family:'Alibaba PuHuiTi';-inkscape-font-specification:'Alibaba PuHuiTi, Light';letter-spacing:0px;word-spacing:0px;stroke-width:0.264583"
       x="-121.24975"
       y="109.38534"
       id="text3-1-9"><tspan
         sodipodi:role="line"
         id="tspan3-8-22"
         style="font-style:normal;font-variant:normal;font-weight:normal;font-stretch:normal;font-size:6.35px;font-family:'Alibaba PuHuiTi';-inkscape-font-specification:'Alibaba PuHuiTi';stroke-width:0.264583"
         x="-121.24975"
         y="109.38534">Subject Space <tspan
   style="font-style:italic;font-variant:normal;font-weight:normal;font-stretch:normal;font-size:7.05556px;font-family:'Latin Modern Roman';-inkscape-font-specification:'Latin Modern Roman, '"
   id="tspan5">X</tspan></tspan></text><text
       xml:space="preserve"
       style="font-weight:300;font-size:6.35px;line-height:1.25;font-family:'Alibaba PuHuiTi';-inkscape-font-specification:'Alibaba PuHuiTi, Light';letter-spacing:0px;word-spacing:0px;stroke-width:0.264583"
       x="-42.85162"
       y="131.68921"
       id="text3-1-9-5"><tspan
         sodipodi:role="line"
         id="tspan3-8-22-9"
         style="font-style:normal;font-variant:normal;font-weight:normal;font-stretch:normal;font-size:6.35px;font-family:'Alibaba PuHuiTi';-inkscape-font-specification:'Alibaba PuHuiTi';stroke-width:0.264583"
         x="-42.85162"
         y="131.68921">This is also</tspan><tspan
         sodipodi:role="line"
         style="font-style:normal;font-variant:normal;font-weight:normal;font-stretch:normal;font-size:6.35px;font-family:'Alibaba PuHuiTi';-inkscape-font-specification:'Alibaba PuHuiTi';stroke-width:0.264583"
         x="-42.85162"
         y="139.62671"
         id="tspan28">a Boolean</tspan><tspan
         sodipodi:role="line"
         style="font-style:normal;font-variant:normal;font-weight:normal;font-stretch:normal;font-size:6.35px;font-family:'Alibaba PuHuiTi';-inkscape-font-specification:'Alibaba PuHuiTi';stroke-width:0.264583"
         x="-42.85162"
         y="147.56421"
         id="tspan29">(commutative)</tspan><tspan
         sodipodi:role="line"
         style="font-style:normal;font-variant:normal;font-weight:normal;font-stretch:normal;font-size:6.35px;font-family:'Alibaba PuHuiTi';-inkscape-font-specification:'Alibaba PuHuiTi';stroke-width:0.264583"
         x="-42.85162"
         y="155.50171"
         id="tspan30">algebra</tspan></text><text
       xml:space="preserve"
       style="font-weight:300;font-size:6.35px;line-height:0.95;font-family:'Alibaba PuHuiTi';-inkscape-font-specification:'Alibaba PuHuiTi, Light';letter-spacing:0px;word-spacing:0px;stroke-width:0.264583"
       x="-146.27893"
       y="175.82249"
       id="text3-1-9-5-7"><tspan
         sodipodi:role="line"
         id="tspan3-8-22-6-4"
         style="font-style:normal;font-variant:normal;font-weight:normal;font-stretch:normal;font-size:6.35px;line-height:0.95;font-family:'Alibaba PuHuiTi';-inkscape-font-specification:'Alibaba PuHuiTi';text-align:center;text-anchor:middle;stroke-width:0.264583"
         x="-146.27893"
         y="175.82249">truth-value object <tspan
   style="font-style:italic;font-variant:normal;font-weight:normal;font-stretch:normal;font-size:7.05556px;line-height:0.95;font-family:'Latin Modern Roman';-inkscape-font-specification:'Latin Modern Roman, '"
   id="tspan27"></tspan></tspan><tspan
         sodipodi:role="line"
         style="font-style:normal;font-variant:normal;font-weight:normal;font-stretch:normal;font-size:6.35px;line-height:0.95;font-family:'Alibaba PuHuiTi';-inkscape-font-specification:'Alibaba PuHuiTi';text-align:center;text-anchor:middle;stroke-width:0.264583"
         x="-146.27893"
         y="182.25363"
         id="tspan26">or</tspan><tspan
         sodipodi:role="line"
         style="font-style:normal;font-variant:normal;font-weight:normal;font-stretch:normal;font-size:6.35px;line-height:0.95;font-family:'Alibaba PuHuiTi';-inkscape-font-specification:'Alibaba PuHuiTi';text-align:center;text-anchor:middle;stroke-width:0.264583"
         x="-146.27893"
         y="188.55777"
         id="tspan25">Boolean algebra <tspan
   style="font-style:italic;font-variant:normal;font-weight:normal;font-stretch:normal;font-size:7.05556px;line-height:0.95;font-family:'Latin Modern Roman';-inkscape-font-specification:'Latin Modern Roman, ';text-align:center;text-anchor:middle"
   id="tspan5-9-4">O</tspan></tspan></text><text
       xml:space="preserve"
       style="font-weight:300;font-size:4.93889px;line-height:1.25;font-family:'Alibaba PuHuiTi';-inkscape-font-specification:'Alibaba PuHuiTi, Light';letter-spacing:0px;word-spacing:0px;stroke-width:0.264583"
       x="-76.193291"
       y="129.04846"
       id="text3-1-0"><tspan
         sodipodi:role="line"
         id="tspan3-8-2"
         style="font-style:normal;font-variant:normal;font-weight:normal;font-stretch:normal;font-size:4.93889px;font-family:'Alibaba PuHuiTi';-inkscape-font-specification:'Alibaba PuHuiTi';text-align:center;text-anchor:middle;stroke-width:0.264583"
         x="-76.193291"
         y="129.04846">Kermit</tspan><tspan
         sodipodi:role="line"
         style="font-style:normal;font-variant:normal;font-weight:normal;font-stretch:normal;font-size:4.93889px;font-family:'Alibaba PuHuiTi';-inkscape-font-specification:'Alibaba PuHuiTi';text-align:center;text-anchor:middle;stroke-width:0.264583"
         x="-76.193291"
         y="135.22208"
         id="tspan4">the frog</tspan></text><rect
       style="opacity:1;fill:none;fill-opacity:0.999942;stroke:#000000;stroke-width:0.529167;stroke-linecap:round;stroke-dasharray:none"
       id="rect4"
       width="80.849739"
       height="38.218235"
       x="-136.56827"
       y="112.20229"
       ry="6.7756686" /><g
       inkscape:label=""
       transform="translate(-110.19,175.98761)"
       id="g24"><g
   id="g23"
   transform="matrix(0.705556,0,0,0.705556,-203.911,-60.9837)">
    <g
   style="fill:#000000;fill-opacity:1"
   id="g17">
      <g
   id="g12"
   transform="translate(288.289,93.917999)">
        <path
   style="stroke:none"
   d="m 2.828125,-6.15625 c 0,-0.390625 0.25,-1.03125 1.34375,-1.09375 C 4.21875,-7.265625 4.25,-7.3125 4.25,-7.359375 c 0,-0.125 -0.078125,-0.125 -0.1875,-0.125 -0.984375,0 -1.90625,0.515625 -1.90625,1.25 v 2.28125 c 0,0.390625 0,0.703125 -0.40625,1.03125 -0.34375,0.296875 -0.71875,0.3125 -0.9375,0.3125 C 0.75,-2.59375 0.71875,-2.546875 0.71875,-2.5 c 0,0.109375 0.0625,0.109375 0.15625,0.125 0.65625,0.03125 1.140625,0.390625 1.25,0.875 0.03125,0.109375 0.03125,0.140625 0.03125,0.5 v 1.96875 c 0,0.421875 0,0.734375 0.46875,1.109375 C 3.015625,2.375 3.671875,2.5 4.0625,2.5 4.171875,2.5 4.25,2.5 4.25,2.375 4.25,2.28125 4.203125,2.28125 4.09375,2.265625 3.46875,2.234375 2.984375,1.90625 2.84375,1.40625 2.828125,1.3125 2.828125,1.296875 2.828125,0.9375 v -2.09375 c 0,-0.453125 -0.09375,-0.625 -0.40625,-0.953125 C 2.21875,-2.3125 1.921875,-2.40625 1.640625,-2.5 c 0.828125,-0.21875 1.1875,-0.6875 1.1875,-1.265625 z m 0,0"
   id="path10" />
      </g>
      <g
   id="g16"
   transform="translate(293.27029,93.917999)">
        <path
   style="fill:#0000ff;stroke:none"
   d="m 4.078125,-6.265625 h 2.78125 c 0.171875,0 0.34375,0 0.34375,-0.1875 0,-0.203125 -0.171875,-0.203125 -0.34375,-0.203125 H 0.90625 c -0.15625,0 -0.359375,0 -0.359375,0.203125 0,0.1875 0.203125,0.1875 0.359375,0.1875 h 2.765625 v 5.90625 C 3.671875,-0.203125 3.671875,0 3.875,0 4.078125,0 4.078125,-0.171875 4.078125,-0.359375 Z m 0,0"
   id="path16" />
      </g>
    </g>
    <g
   style="fill:#000000;fill-opacity:1"
   id="g19">
      <g
   id="g18"
   transform="translate(303.78601,93.917999)">
        <path
   style="stroke:none"
   d="m 2.03125,-0.015625 c 0,-0.65625 -0.25,-1.046875 -0.640625,-1.046875 -0.328125,0 -0.53125,0.25 -0.53125,0.53125 C 0.859375,-0.265625 1.0625,0 1.390625,0 1.5,0 1.640625,-0.046875 1.734375,-0.125 1.765625,-0.15625 1.78125,-0.15625 1.78125,-0.15625 c 0.015625,0 0.015625,0 0.015625,0.140625 0,0.75 -0.34375,1.34375 -0.671875,1.671875 -0.109375,0.109375 -0.109375,0.125 -0.109375,0.15625 0,0.078125 0.046875,0.109375 0.09375,0.109375 0.109375,0 0.921875,-0.765625 0.921875,-1.9375 z m 0,0"
   id="path17" />
      </g>
    </g>
    <g
   style="fill:#000000;fill-opacity:1"
   id="g22">
      <g
   id="g20"
   transform="translate(310.98099,93.917999)">
        <path
   style="stroke:none"
   d="m 4.078125,-6.296875 c 0,-0.1875 0,-0.359375 -0.203125,-0.359375 -0.203125,0 -0.203125,0.203125 -0.203125,0.359375 V -0.40625 H 0.90625 c -0.15625,0 -0.359375,0 -0.359375,0.203125 C 0.546875,0 0.75,0 0.90625,0 h 5.953125 c 0.171875,0 0.34375,0 0.34375,-0.203125 0,-0.203125 -0.171875,-0.203125 -0.34375,-0.203125 h -2.78125 z m 0,0"
   id="path19" />
      </g>
      <g
   id="g21"
   transform="translate(318.72992,93.917999)">
        <path
   style="stroke:none"
   d="m 2.15625,1.171875 c 0,0.390625 -0.265625,1.03125 -1.34375,1.09375 C 0.75,2.28125 0.71875,2.328125 0.71875,2.375 0.71875,2.5 0.828125,2.5 0.921875,2.5 1.890625,2.5 2.8125,2 2.828125,1.25 v -2.28125 c 0,-0.390625 0,-0.703125 0.390625,-1.03125 C 3.5625,-2.359375 3.953125,-2.375 4.171875,-2.375 4.21875,-2.390625 4.25,-2.4375 4.25,-2.5 4.25,-2.59375 4.203125,-2.59375 4.09375,-2.609375 3.4375,-2.640625 2.953125,-3 2.84375,-3.484375 2.828125,-3.59375 2.828125,-3.625 2.828125,-3.984375 v -1.96875 c 0,-0.421875 0,-0.734375 -0.484375,-1.109375 C 1.9375,-7.375 1.25,-7.484375 0.921875,-7.484375 c -0.09375,0 -0.203125,0 -0.203125,0.125 0,0.09375 0.0625,0.09375 0.15625,0.109375 0.625,0.03125 1.125,0.359375 1.25,0.859375 0.03125,0.09375 0.03125,0.109375 0.03125,0.46875 v 2.09375 c 0,0.453125 0.078125,0.625 0.390625,0.953125 0.21875,0.203125 0.5,0.296875 0.78125,0.375 -0.8125,0.234375 -1.171875,0.703125 -1.171875,1.28125 z m 0,0"
   id="path20" />
      </g>
    </g>
  </g>
</g></g></svg>
