<?xml version="1.0" encoding="UTF-8" standalone="no"?>
<!-- Created with Inkscape (http://www.inkscape.org/) -->

<svg
   width="330.87399mm"
   height="87.886734mm"
   viewBox="0 0 330.87399 87.886734"
   version="1.1"
   id="svg1"
   xml:space="preserve"
   inkscape:version="1.3.2 (1:1.3.2+202311252150+091e20ef0f)"
   sodipodi:docname="geometric-logic-algorithm.svg"
   inkscape:export-filename="Halmos-nutshell.png"
   inkscape:export-xdpi="192"
   inkscape:export-ydpi="192"
   xmlns:inkscape="http://www.inkscape.org/namespaces/inkscape"
   xmlns:sodipodi="http://sodipodi.sourceforge.net/DTD/sodipodi-0.dtd"
   xmlns="http://www.w3.org/2000/svg"
   xmlns:svg="http://www.w3.org/2000/svg"><sodipodi:namedview
     id="namedview1"
     pagecolor="#ffffff"
     bordercolor="#cccccc"
     borderopacity="1"
     inkscape:showpageshadow="0"
     inkscape:pageopacity="1"
     inkscape:pagecheckerboard="0"
     inkscape:deskcolor="#ffffff"
     inkscape:document-units="mm"
     showborder="false"
     inkscape:zoom="1"
     inkscape:cx="737"
     inkscape:cy="70"
     inkscape:window-width="1920"
     inkscape:window-height="1055"
     inkscape:window-x="0"
     inkscape:window-y="0"
     inkscape:window-maximized="1"
     inkscape:current-layer="layer1"
     showgrid="false" /><defs
     id="defs1"><marker
   style="overflow:visible"
   id="Arrow2Send"
   refX="0"
   refY="0"
   orient="auto"
   inkscape:stockid="Arrow2Send"><path
     transform="matrix(-0.3,0,0,-0.3,0.69,0)"
     d="M 8.7185878,4.0337352 -2.2072895,0.01601326 8.7185884,-4.0017078 c -1.7454984,2.3720609 -1.7354408,5.6174519 -6e-7,8.035443 z"
     style="fill-rule:evenodd;stroke-width:0.625;stroke-linejoin:round"
     id="path3909"
     inkscape:connector-curvature="0" /></marker><marker
   style="overflow:visible"
   id="Arrow1Lend"
   refX="0"
   refY="0"
   orient="auto"
   inkscape:stockid="Arrow1Lend"><path
     transform="matrix(-0.8,0,0,-0.8,-10,0)"
     style="fill-rule:evenodd;stroke:#000000;stroke-width:1pt"
     d="M 0,0 5,-5 -12.5,0 5,5 Z"
     id="path3879"
     inkscape:connector-curvature="0" /></marker><marker
   style="overflow:visible"
   id="Arrow2Lend"
   refX="0"
   refY="0"
   orient="auto"
   inkscape:stockid="Arrow2Lend"><path
     transform="matrix(-1.1,0,0,-1.1,-1.1,0)"
     d="M 8.7185878,4.0337352 -2.2072895,0.01601326 8.7185884,-4.0017078 c -1.7454984,2.3720609 -1.7354408,5.6174519 -6e-7,8.035443 z"
     style="fill-rule:evenodd;stroke-width:0.625;stroke-linejoin:round"
     id="path3897"
     inkscape:connector-curvature="0" /></marker><marker
   style="overflow:visible"
   id="Arrow2Mend"
   refX="0"
   refY="0"
   orient="auto"
   inkscape:stockid="Arrow2Mend"><path
     transform="scale(-0.6)"
     d="M 8.7185878,4.0337352 -2.2072895,0.01601326 8.7185884,-4.0017078 c -1.7454984,2.3720609 -1.7354408,5.6174519 -6e-7,8.035443 z"
     style="fill-rule:evenodd;stroke-width:0.625;stroke-linejoin:round"
     id="path3903"
     inkscape:connector-curvature="0" /></marker><marker
   style="overflow:visible"
   id="Arrow1Mend"
   refX="0"
   refY="0"
   orient="auto"
   inkscape:stockid="Arrow1Mend"><path
     transform="matrix(-0.4,0,0,-0.4,-4,0)"
     style="fill-rule:evenodd;stroke:#000000;stroke-width:1pt"
     d="M 0,0 5,-5 -12.5,0 5,5 Z"
     id="path3885"
     inkscape:connector-curvature="0" /></marker><marker
   style="overflow:visible"
   id="Arrow2Lend-2"
   refX="0"
   refY="0"
   orient="auto"
   inkscape:stockid="Arrow2Lend"><path
     transform="matrix(-1.1,0,0,-1.1,-1.1,0)"
     d="M 8.7185878,4.0337352 -2.2072895,0.01601326 8.7185884,-4.0017078 c -1.7454984,2.3720609 -1.7354408,5.6174519 -6e-7,8.035443 z"
     style="fill-rule:evenodd;stroke-width:0.625;stroke-linejoin:round"
     id="path3897-9"
     inkscape:connector-curvature="0" /></marker><marker
   style="overflow:visible"
   id="Arrow2Lend-1"
   refX="0"
   refY="0"
   orient="auto"
   inkscape:stockid="Arrow2Lend"><path
     transform="matrix(-1.1,0,0,-1.1,-1.1,0)"
     d="M 8.7185878,4.0337352 -2.2072895,0.01601326 8.7185884,-4.0017078 c -1.7454984,2.3720609 -1.7354408,5.6174519 -6e-7,8.035443 z"
     style="fill-rule:evenodd;stroke-width:0.625;stroke-linejoin:round"
     id="path3897-94"
     inkscape:connector-curvature="0" /></marker><marker
   style="overflow:visible"
   id="Arrow2Lend-8"
   refX="0"
   refY="0"
   orient="auto"
   inkscape:stockid="Arrow2Lend"><path
     transform="matrix(-1.1,0,0,-1.1,-1.1,0)"
     d="M 8.7185878,4.0337352 -2.2072895,0.01601326 8.7185884,-4.0017078 c -1.7454984,2.3720609 -1.7354408,5.6174519 -6e-7,8.035443 z"
     style="fill-rule:evenodd;stroke-width:0.625;stroke-linejoin:round"
     id="path3897-4"
     inkscape:connector-curvature="0" /></marker><marker
   style="overflow:visible"
   id="Arrow2Lend-0"
   refX="0"
   refY="0"
   orient="auto"
   inkscape:stockid="Arrow2Lend"><path
     transform="matrix(-1.1,0,0,-1.1,-1.1,0)"
     d="M 8.7185878,4.0337352 -2.2072895,0.01601326 8.7185884,-4.0017078 c -1.7454984,2.3720609 -1.7354408,5.6174519 -6e-7,8.035443 z"
     style="fill-rule:evenodd;stroke-width:0.625;stroke-linejoin:round"
     id="path3897-3"
     inkscape:connector-curvature="0" /></marker><marker
   style="overflow:visible"
   id="Arrow2Lend-10"
   refX="0"
   refY="0"
   orient="auto"
   inkscape:stockid="Arrow2Lend"><path
     transform="matrix(-1.1,0,0,-1.1,-1.1,0)"
     d="M 8.7185878,4.0337352 -2.2072895,0.01601326 8.7185884,-4.0017078 c -1.7454984,2.3720609 -1.7354408,5.6174519 -6e-7,8.035443 z"
     style="fill-rule:evenodd;stroke-width:0.625;stroke-linejoin:round"
     id="path3897-6"
     inkscape:connector-curvature="0" /></marker><marker
   style="overflow:visible"
   id="Arrow2Lend-06"
   refX="0"
   refY="0"
   orient="auto"
   inkscape:stockid="Arrow2Lend"><path
     transform="matrix(-1.1,0,0,-1.1,-1.1,0)"
     d="M 8.7185878,4.0337352 -2.2072895,0.01601326 8.7185884,-4.0017078 c -1.7454984,2.3720609 -1.7354408,5.6174519 -6e-7,8.035443 z"
     style="fill-rule:evenodd;stroke-width:0.625;stroke-linejoin:round"
     id="path3897-1"
     inkscape:connector-curvature="0" /></marker><marker
   style="overflow:visible"
   id="Arrow2Lend-4"
   refX="0"
   refY="0"
   orient="auto"
   inkscape:stockid="Arrow2Lend"><path
     transform="matrix(-1.1,0,0,-1.1,-1.1,0)"
     d="M 8.7185878,4.0337352 -2.2072895,0.01601326 8.7185884,-4.0017078 c -1.7454984,2.3720609 -1.7354408,5.6174519 -6e-7,8.035443 z"
     style="fill-rule:evenodd;stroke-width:0.625;stroke-linejoin:round"
     id="path3897-7"
     inkscape:connector-curvature="0" /></marker><marker
   style="overflow:visible"
   id="Arrow2MendS"
   refX="0"
   refY="0"
   orient="auto"
   inkscape:stockid="Arrow2MendS"><path
     transform="scale(-0.6)"
     d="M 8.7185878,4.0337352 -2.2072895,0.01601326 8.7185884,-4.0017078 c -1.7454984,2.3720609 -1.7354408,5.6174519 -6e-7,8.035443 z"
     style="fill:#0000ff;fill-rule:evenodd;stroke:#0000ff;stroke-width:0.625;stroke-linejoin:round"
     id="path7051"
     inkscape:connector-curvature="0" /></marker><marker
   style="overflow:visible"
   id="Arrow2MendSG"
   refX="0"
   refY="0"
   orient="auto"
   inkscape:stockid="Arrow2MendSG"><path
     transform="scale(-0.6)"
     d="M 8.7185878,4.0337352 -2.2072895,0.01601326 8.7185884,-4.0017078 c -1.7454984,2.3720609 -1.7354408,5.6174519 -6e-7,8.035443 z"
     style="fill:#ff0000;fill-rule:evenodd;stroke:#ff0000;stroke-width:0.625;stroke-linejoin:round"
     id="path7329"
     inkscape:connector-curvature="0" /></marker><marker
   style="overflow:visible"
   id="Arrow2MendSGT"
   refX="0"
   refY="0"
   orient="auto"
   inkscape:stockid="Arrow2MendSGT"><path
     transform="scale(-0.6)"
     d="M 8.7185878,4.0337352 -2.2072895,0.01601326 8.7185884,-4.0017078 c -1.7454984,2.3720609 -1.7354408,5.6174519 -6e-7,8.035443 z"
     style="fill:#000000;fill-rule:evenodd;stroke:#000000;stroke-width:0.625;stroke-linejoin:round"
     id="path4633"
     inkscape:connector-curvature="0" /></marker><defs
   id="id-d353f4ce-4449-42a9-b4ca-8c5628c06b5e">
    <g
   id="id-f4a03e63-cc2f-4d8b-a29a-b2ede943ca72">
      <symbol
   overflow="visible"
   id="id-4bfdd170-549e-44fb-a83a-e71956987fc4">
        <path
   style="stroke:none;stroke-width:0"
   d=""
   id="id-f255a034-98f8-487f-ae57-8ffc05d4342c" />
      </symbol>
      <symbol
   overflow="visible"
   id="id-4376af16-2162-4a41-93d1-f9802d92b6d1">
        <path
   style="stroke:none;stroke-width:0"
   d="M 3.015625,-3.15625 H 4.71875 c 1.40625,0 2.796875,-1.03125 2.796875,-2.140625 0,-0.78125 -0.65625,-1.515625 -1.96875,-1.515625 h -3.21875 c -0.1875,0 -0.296875,0 -0.296875,0.1875 0,0.125 0.078125,0.125 0.28125,0.125 0.125,0 0.3125,0.015625 0.421875,0.015625 0.171875,0.03125 0.21875,0.046875 0.21875,0.171875 0,0.03125 0,0.0625 -0.03125,0.1875 l -1.34375,5.34375 c -0.09375,0.390625 -0.109375,0.46875 -0.90625,0.46875 -0.15625,0 -0.265625,0 -0.265625,0.1875 C 0.40625,0 0.515625,0 0.546875,0 0.828125,0 1.53125,-0.03125 1.8125,-0.03125 c 0.21875,0 0.4375,0.015625 0.640625,0.015625 0.21875,0 0.4375,0.015625 0.640625,0.015625 0.078125,0 0.203125,0 0.203125,-0.203125 0,-0.109375 -0.09375,-0.109375 -0.28125,-0.109375 -0.359375,0 -0.640625,0 -0.640625,-0.171875 0,-0.0625 0.015625,-0.109375 0.03125,-0.171875 z M 3.734375,-6.125 C 3.828125,-6.46875 3.84375,-6.5 4.28125,-6.5 h 0.953125 c 0.828125,0 1.359375,0.265625 1.359375,0.953125 0,0.390625 -0.203125,1.25 -0.59375,1.609375 -0.5,0.453125 -1.09375,0.53125 -1.53125,0.53125 H 3.0625 Z m 0,0"
   id="id-1f863375-b1fa-4d11-9e55-838e35e4cd57" />
      </symbol>
      <symbol
   overflow="visible"
   id="id-00a32764-e981-47b7-b72b-e8a1831ac42b">
        <path
   style="stroke:none;stroke-width:0"
   d="M 4.359375,-0.0625 C 5.90625,-0.640625 7.375,-2.421875 7.375,-4.34375 c 0,-1.609375 -1.0625,-2.6875 -2.546875,-2.6875 -2.140625,0 -4.34375,2.265625 -4.34375,4.59375 0,1.65625 1.125,2.65625 2.5625,2.65625 0.25,0 0.578125,-0.046875 0.96875,-0.15625 -0.03125,0.625 -0.03125,0.640625 -0.03125,0.78125 0,0.3125 0,1.09375 0.828125,1.09375 1.171875,0 1.65625,-1.828125 1.65625,-1.9375 0,-0.0625 -0.0625,-0.09375 -0.109375,-0.09375 -0.078125,0 -0.09375,0.046875 -0.125,0.109375 C 6,0.71875 5.421875,0.96875 5.078125,0.96875 c -0.46875,0 -0.609375,-0.265625 -0.71875,-1.03125 z m -1.875,-0.078125 c -0.78125,-0.3125 -1.125,-1.078125 -1.125,-1.984375 0,-0.6875 0.265625,-2.109375 1.015625,-3.171875 C 3.109375,-6.3125 4.046875,-6.78125 4.78125,-6.78125 5.765625,-6.78125 6.5,-6 6.5,-4.671875 c 0,1 -0.515625,3.34375 -2.1875,4.265625 -0.046875,-0.34375 -0.140625,-1.0625 -0.875,-1.0625 -0.53125,0 -1.015625,0.484375 -1.015625,1.015625 0,0.1875 0.0625,0.296875 0.0625,0.3125 z M 3.09375,-0.03125 c -0.140625,0 -0.453125,0 -0.453125,-0.421875 0,-0.40625 0.375,-0.796875 0.796875,-0.796875 0.421875,0 0.609375,0.234375 0.609375,0.84375 0,0.140625 -0.015625,0.15625 -0.109375,0.203125 C 3.671875,-0.09375 3.375,-0.03125 3.09375,-0.03125 Z m 0,0"
   id="id-8922b435-2dc3-402d-adcd-6a0db016a677" />
      </symbol>
      <symbol
   overflow="visible"
   id="id-eb4accdf-71db-4cfd-98b1-c4ac6a797627">
        <path
   style="stroke:none;stroke-width:0"
   d="m 3.734375,-6.125 c 0.0625,-0.234375 0.09375,-0.328125 0.28125,-0.359375 C 4.109375,-6.5 4.421875,-6.5 4.625,-6.5 c 0.703125,0 1.8125,0 1.8125,0.984375 0,0.34375 -0.15625,1.03125 -0.546875,1.421875 -0.265625,0.25 -0.78125,0.578125 -1.6875,0.578125 H 3.09375 Z m 1.4375,2.734375 c 1.015625,-0.21875 2.1875,-0.921875 2.1875,-1.921875 0,-0.859375 -0.890625,-1.5 -2.203125,-1.5 H 2.328125 c -0.203125,0 -0.296875,0 -0.296875,0.203125 C 2.03125,-6.5 2.125,-6.5 2.3125,-6.5 c 0.015625,0 0.203125,0 0.375,0.015625 0.1875,0.03125 0.265625,0.03125 0.265625,0.171875 0,0.03125 0,0.0625 -0.03125,0.1875 l -1.34375,5.34375 C 1.484375,-0.390625 1.46875,-0.3125 0.671875,-0.3125 0.5,-0.3125 0.40625,-0.3125 0.40625,-0.109375 0.40625,0 0.53125,0 0.546875,0 c 0.28125,0 0.984375,-0.03125 1.25,-0.03125 0.28125,0 1,0.03125 1.28125,0.03125 0.078125,0 0.1875,0 0.1875,-0.203125 0,-0.109375 -0.078125,-0.109375 -0.28125,-0.109375 -0.359375,0 -0.640625,0 -0.640625,-0.171875 0,-0.0625 0.015625,-0.109375 0.03125,-0.171875 l 0.65625,-2.640625 h 1.1875 c 0.90625,0 1.078125,0.5625 1.078125,0.90625 0,0.140625 -0.078125,0.453125 -0.140625,0.6875 C 5.09375,-1.421875 5,-1.0625 5,-0.859375 5,0.21875 6.203125,0.21875 6.328125,0.21875 c 0.84375,0 1.203125,-1 1.203125,-1.140625 0,-0.125 -0.109375,-0.125 -0.125,-0.125 -0.09375,0 -0.109375,0.0625 -0.125,0.140625 C 7.03125,-0.171875 6.59375,0 6.375,0 6.046875,0 5.96875,-0.21875 5.96875,-0.609375 c 0,-0.3125 0.0625,-0.8125 0.109375,-1.140625 0.015625,-0.140625 0.03125,-0.328125 0.03125,-0.46875 0,-0.765625 -0.671875,-1.078125 -0.9375,-1.171875 z m 0,0"
   id="id-cf26a903-2b5c-4d19-90b8-4093c698aa43" />
      </symbol>
      <symbol
   overflow="visible"
   id="id-08dc06af-e462-4757-b048-12857bcf819d">
        <path
   style="stroke:none;stroke-width:0"
   d="m 1.90625,-0.53125 c 0,-0.28125 -0.234375,-0.53125 -0.515625,-0.53125 -0.296875,0 -0.53125,0.25 -0.53125,0.53125 C 0.859375,-0.234375 1.09375,0 1.390625,0 1.671875,0 1.90625,-0.234375 1.90625,-0.53125 Z m 0,0"
   id="id-b36712b2-3738-4083-8d5a-1556b0e8d486" />
      </symbol>
      <symbol
   overflow="visible"
   id="id-068b5312-106e-4409-8a69-d10ffb50fce8">
        <path
   style="stroke:none;stroke-width:0"
   d="m 7.171875,-6.5625 c 0.015625,-0.046875 0.03125,-0.09375 0.03125,-0.15625 0,-0.09375 -0.046875,-0.09375 -0.25,-0.09375 H 2.75 c -0.234375,0 -0.25,0.015625 -0.3125,0.203125 L 1.890625,-4.8125 c -0.015625,0.046875 -0.03125,0.125 -0.03125,0.140625 0,0 0,0.109375 0.125,0.109375 0.09375,0 0.109375,-0.078125 0.125,-0.109375 C 2.5,-5.84375 3.015625,-6.5 4.5625,-6.5 h 1.625 L 0.625,-0.265625 c 0,0 -0.046875,0.140625 -0.046875,0.171875 C 0.578125,0 0.640625,0 0.828125,0 H 5.15625 c 0.25,0 0.25,-0.015625 0.3125,-0.203125 L 6.1875,-2.40625 c 0,-0.03125 0.03125,-0.109375 0.03125,-0.140625 0,-0.0625 -0.03125,-0.109375 -0.125,-0.109375 -0.09375,0 -0.109375,0.03125 -0.171875,0.25 C 5.484375,-1.0625 5,-0.34375 3.3125,-0.34375 H 1.609375 Z m 0,0"
   id="id-ec73132d-eed6-441c-8a69-1ac8dcba79a1" />
      </symbol>
      <symbol
   overflow="visible"
   id="id-3a72e553-226c-4dcb-be50-313e0592ad38">
        <path
   style="stroke:none;stroke-width:0"
   d=""
   id="id-a1f934c0-ec24-4b4a-af3e-d4a2f944a6d8" />
      </symbol>
      <symbol
   overflow="visible"
   id="id-e7a6c1fd-5da7-43a8-a711-81c719982595">
        <path
   style="stroke:none;stroke-width:0"
   d="M 3.546875,-5.75 C 3.46875,-5.921875 3.40625,-5.96875 3.3125,-5.96875 c -0.125,0 -0.15625,0.078125 -0.21875,0.21875 L 0.625,-0.171875 c -0.0625,0.125 -0.078125,0.140625 -0.078125,0.1875 0,0.109375 0.09375,0.203125 0.203125,0.203125 0.0625,0 0.140625,-0.015625 0.234375,-0.203125 L 3.3125,-5.28125 5.65625,0.015625 C 5.75,0.21875 5.859375,0.21875 5.890625,0.21875 6,0.21875 6.09375,0.125 6.09375,0.015625 c 0,-0.015625 0,-0.03125 -0.0625,-0.15625 z m 0,0"
   id="id-3bd22309-0304-4e3f-80e6-3be7ef967540" />
      </symbol>
      <symbol
   overflow="visible"
   id="id-a9163ad6-e9b5-4a68-bab2-2244e7750f37">
        <path
   style="stroke:none;stroke-width:0"
   d="M 8.3125,-2.296875 C 7.765625,-1.875 7.5,-1.46875 7.421875,-1.328125 c -0.453125,0.6875 -0.53125,1.3125 -0.53125,1.3125 0,0.125 0.125,0.125 0.203125,0.125 C 7.25,0.109375 7.265625,0.09375 7.3125,-0.09375 7.53125,-1.0625 8.125,-1.90625 9.25,-2.359375 9.375,-2.40625 9.40625,-2.421875 9.40625,-2.5 c 0,-0.0625 -0.0625,-0.09375 -0.078125,-0.109375 C 8.875,-2.765625 7.671875,-3.265625 7.296875,-4.9375 7.265625,-5.0625 7.25,-5.09375 7.09375,-5.09375 c -0.078125,0 -0.203125,0 -0.203125,0.125 0,0.015625 0.09375,0.640625 0.5,1.3125 0.203125,0.296875 0.5,0.640625 0.921875,0.96875 H 0.90625 c -0.171875,0 -0.359375,0 -0.359375,0.1875 0,0.203125 0.1875,0.203125 0.359375,0.203125 z m 0,0"
   id="id-4002e39c-8142-425f-accf-c10a9df212e3" />
      </symbol>
    </g>
  </defs>
  

    
    
    
    
    
    
    
    
    
  
      
      
      
      
      
      
      
      
      
      </defs><g
     inkscape:label="Layer 1"
     inkscape:groupmode="layer"
     id="layer1"
     transform="translate(176.494, -101.941)"><path
       id="path1"
       style="fill:#aaeeff;stroke:#0000ff;stroke-width:0.529167;stroke-linecap:round;stroke-dasharray:none;stroke-opacity:1"
       d="m 58.688808,137.41675 c -1.511824,6.05788 5.594738,4.34993 8.918918,4.47793 2.948362,0.11353 7.634374,-0.45435 8.192572,-3.35161 0.601503,-3.12204 -3.705212,-6.19528 -6.854379,-6.6331 -3.843652,-0.53437 -9.645969,3.05794 -10.257111,5.50678 z"
       sodipodi:nodetypes="saaas"
       inkscape:export-filename="geometric-logic-algorithm.png"
       inkscape:export-xdpi="192"
       inkscape:export-ydpi="192" /><path
       id="path1-6"
       style="fill:#aaeeff;stroke:#0000ff;stroke-width:0.529167;stroke-linecap:round;stroke-dasharray:none;stroke-opacity:1"
       d="m 83.734655,132.88825 c -1.387549,3.1344 4.665495,5.18356 7.646125,6.87637 2.862167,1.62552 7.504157,5.59152 9.43195,2.92358 2.08624,-2.88722 -3.127878,-6.90936 -6.208503,-8.69768 -3.149556,-1.82833 -9.395404,-4.43234 -10.869572,-1.10227 z"
       sodipodi:nodetypes="aaaaa" /><path
       id="path1-9"
       style="fill:#aaeeff;stroke:#0000ff;stroke-width:0.529167;stroke-linecap:round;stroke-dasharray:none;stroke-opacity:1"
       d="m 154.0834,137.0168 c -0.32805,-4.45926 -8.53468,-5.73897 -12.73629,-4.20957 -2.9143,1.06081 -6.27911,5.14254 -4.89001,7.91541 1.30706,2.60908 5.85384,1.3219 8.72017,0.77435 3.26414,-0.62356 9.14994,-1.16598 8.90613,-4.48019 z"
       sodipodi:nodetypes="aaaaa" /><path
       id="path1-1"
       style="fill:#aaeeff;stroke:#0000ff;stroke-width:0.529167;stroke-linecap:round;stroke-dasharray:none;stroke-opacity:1"
       d="m 51.171226,132.5037 c 2.136125,4.3069 -5.097885,9.7628 -9.841713,10.54291 -3.060257,0.50325 -8.009141,-1.31402 -8.192572,-4.40995 -0.172596,-2.91305 4.430151,-4.01194 7.164711,-5.03069 3.412648,-1.27135 9.251434,-4.36481 10.869574,-1.10227 z"
       sodipodi:nodetypes="aaaaa" /><path
       id="path1-1-6"
       style="fill:#aaeeff;stroke:#0000ff;stroke-width:0.529167;stroke-linecap:round;stroke-dasharray:none;stroke-opacity:1"
       d="m -91.188084,129.9283 c 1.42294,7.06952 -11.176476,12.16605 -18.352616,11.45466 -4.62934,-0.45893 -11.09421,-5.01324 -10.15806,-9.5701 0.88087,-4.28769 7.97635,-4.09295 12.33393,-4.50737 5.43812,-0.51716 15.098856,-2.73245 16.176746,2.62281 z"
       sodipodi:nodetypes="aaaaa"
       inkscape:export-filename="Halmos-nutshell.png"
       inkscape:export-xdpi="192"
       inkscape:export-ydpi="192" /><text
       xml:space="preserve"
       style="font-weight:300;font-size:14.1111px;line-height:1.25;font-family:'Alibaba PuHuiTi';-inkscape-font-specification:'Alibaba PuHuiTi, Light';letter-spacing:0px;word-spacing:0px;stroke-width:0.264583"
       x="107.3102"
       y="138.37663"
       id="text8"><tspan
         sodipodi:role="line"
         id="tspan8"
         style="font-size:14.1111px;stroke-width:0.264583"
         x="107.3102"
         y="138.37663">. . . .</tspan></text><path
       sodipodi:nodetypes="csscssccsscsscc"
       inkscape:connector-curvature="0"
       id="path7003"
       style="font-style:normal;font-variant:normal;font-weight:normal;font-stretch:normal;font-size:300px;line-height:125%;font-family:'TeX Gyre Pagella';-inkscape-font-specification:'TeX Gyre Pagella';text-align:center;letter-spacing:0px;word-spacing:0px;writing-mode:lr-tb;text-anchor:middle;fill:#4d4d4d;fill-opacity:1;stroke:none;stroke-width:0.15739"
       d="m 146.71852,126.64271 c -2.06263,-0.95998 -6.19416,-1.5826 -15.77308,-1.81462 l -20.99036,-0.50843 c -11.76149,-0.28489 -15.045122,-1.26867 -17.593094,-2.3388 -2.426606,1.03867 -5.829937,2.0984 -16.501072,2.3388 l -22.567649,0.50843 c -9.579754,0.21583 -13.346458,0.82317 -15.894409,1.81462 0.121409,-0.95998 0.970655,-0.92364 3.154613,-1.28562 2.79062,-0.44063 7.405394,-0.987 14.80243,-1.15364 l 22.567649,-0.50842 c 8.730937,-0.19677 12.011832,-1.79285 14.438438,-2.72134 2.426648,0.97571 5.102656,2.47937 14.802474,2.72134 l 20.38367,0.50842 c 8.36609,0.20868 13.10382,0.69727 15.89444,1.10645 2.3053,0.3462 3.15461,0.3099 3.27595,1.33281" /><path
       sodipodi:nodetypes="csscssccsscsscc"
       inkscape:connector-curvature="0"
       id="path7003-1"
       style="font-style:normal;font-variant:normal;font-weight:normal;font-stretch:normal;font-size:300px;line-height:125%;font-family:'TeX Gyre Pagella';-inkscape-font-specification:'TeX Gyre Pagella';text-align:center;letter-spacing:0px;word-spacing:0px;writing-mode:lr-tb;text-anchor:middle;fill:#4d4d4d;fill-opacity:1;stroke:none;stroke-width:0.133909"
       d="m -50.155264,181.07461 c 0.95998,-1.49309 1.5826,-4.48378 1.81462,-11.41771 l 0.50843,-15.19436 c 0.28489,-8.51383 1.26867,-10.89076 2.3388,-12.73516 -1.03867,-1.75656 -2.0984,-4.22014 -2.3388,-11.94469 l -0.50843,-16.33611 c -0.21583,-6.93453 -0.82317,-9.66114 -1.81462,-11.50554 0.95998,0.0879 0.92364,0.70263 1.28562,2.28354 0.44063,2.02006 0.987,5.36057 1.15364,10.71508 l 0.50842,16.33612 c 0.19677,6.32009 1.79285,8.69504 2.72134,10.4516 -0.97571,1.75657 -2.47937,3.69367 -2.72134,10.7151 l -0.50842,14.75519 c -0.20868,6.05599 -0.69727,9.48552 -1.10645,11.50556 -0.3462,1.66876 -0.3099,2.28354 -1.33281,2.37138" /><text
       xml:space="preserve"
       style="font-weight:300;font-size:6.35px;line-height:1.25;font-family:'Alibaba PuHuiTi';-inkscape-font-specification:'Alibaba PuHuiTi, Light';letter-spacing:0px;word-spacing:0px;stroke-width:0.264583"
       x="54.196869"
       y="116.78802"
       id="text1"><tspan
         sodipodi:role="line"
         id="tspan1"
         style="font-style:normal;font-variant:normal;font-weight:normal;font-stretch:normal;font-size:8.46667px;font-family:'Latin Modern Roman';-inkscape-font-specification:'Latin Modern Roman, Normal';font-variant-ligatures:normal;font-variant-caps:normal;font-variant-numeric:normal;font-variant-east-asian:normal;stroke-width:0.264583"
         x="54.196869"
         y="116.78802"><tspan
   style="font-style:italic"
   id="tspan9">K</tspan> trained predicates</tspan></text><text
       xml:space="preserve"
       style="font-weight:300;font-size:6.35px;line-height:1.25;font-family:'Alibaba PuHuiTi';-inkscape-font-specification:'Alibaba PuHuiTi, Light';letter-spacing:0px;word-spacing:0px;stroke-width:0.264583"
       x="115.87482"
       y="156.76477"
       id="text1-5"><tspan
         sodipodi:role="line"
         id="tspan1-3"
         style="font-style:normal;font-variant:normal;font-weight:normal;font-stretch:normal;font-size:6.35px;font-family:'Latin Modern Roman';-inkscape-font-specification:'Latin Modern Roman, Normal';font-variant-ligatures:normal;font-variant-caps:normal;font-variant-numeric:normal;font-variant-east-asian:normal;stroke-width:0.264583"
         x="115.87482"
         y="156.76477"><tspan
   style="font-style:italic;font-size:6.35px"
   id="tspan9-5">K</tspan> choose 1</tspan></text><text
       xml:space="preserve"
       style="font-weight:300;font-size:6.35px;line-height:1.25;font-family:'Alibaba PuHuiTi';-inkscape-font-specification:'Alibaba PuHuiTi, Light';letter-spacing:0px;word-spacing:0px;stroke-width:0.264583"
       x="35.837303"
       y="156.35413"
       id="text1-5-1"><tspan
         sodipodi:role="line"
         id="tspan1-3-2"
         style="font-style:normal;font-variant:normal;font-weight:normal;font-stretch:normal;font-size:6.35px;font-family:'Latin Modern Roman';-inkscape-font-specification:'Latin Modern Roman, Normal';font-variant-ligatures:normal;font-variant-caps:normal;font-variant-numeric:normal;font-variant-east-asian:normal;stroke-width:0.264583"
         x="35.837303"
         y="156.35413"><tspan
   style="font-style:italic;font-size:6.35px"
   id="tspan9-5-7">K</tspan> choose <tspan
   style="font-style:italic"
   id="tspan60">J</tspan></tspan></text><path
       style="fill:none;stroke:#000000;stroke-width:0.264583px;stroke-linecap:butt;stroke-linejoin:miter;stroke-opacity:1"
       d="m 46.399346,169.43107 4.2297,-11.09832 14.598335,11.33921"
       id="path4"
       sodipodi:nodetypes="ccc" /><path
       style="fill:none;stroke:#000000;stroke-width:0.264583px;stroke-linecap:butt;stroke-linejoin:miter;stroke-opacity:1"
       d="M 85.559634,169.82223 50.629046,158.33275"
       id="path5"
       sodipodi:nodetypes="cc" /><path
       style="fill:none;stroke:#000000;stroke-width:0.264583px;stroke-linecap:butt;stroke-linejoin:miter;stroke-opacity:1"
       d="M 131.03247,169.87064 V 159.02588"
       id="path5-9"
       sodipodi:nodetypes="cc" /><path
       style="fill:none;stroke:#0000ff;stroke-width:0.264583px;stroke-linecap:butt;stroke-linejoin:miter;stroke-opacity:1"
       d="m -154.13116,133.80832 c 0,0 26.44948,10.72587 35.80256,2.72492"
       id="path5-9-3"
       sodipodi:nodetypes="cc" /><path
       style="fill:none;stroke:#0000ff;stroke-width:0.264583px;stroke-linecap:butt;stroke-linejoin:miter;stroke-opacity:1"
       d="m -112.85643,134.22188 c 0,0 8.43183,20.20897 7.78717,38.85813"
       id="path25"
       sodipodi:nodetypes="cc" /><path
       style="fill:none;stroke:#0000ff;stroke-width:0.264583px;stroke-linecap:butt;stroke-linejoin:miter;stroke-opacity:1"
       d="m -97.522314,130.86483 c 0,0 -7.902656,23.38397 -7.257996,42.03313"
       id="path24" /><path
       style="fill:none;stroke:#000000;stroke-width:0.264583px;stroke-linecap:butt;stroke-linejoin:miter;stroke-opacity:1"
       d="m -76.093644,139.7463 c 0,0 -14.73696,14.09992 -15.38162,32.74908"
       id="path5-9-3-5" /><g
       transform="matrix(1.05833,0,0,1.05833,41.010998,180.16242)"
       id="g7726"
       style="fill:#000000;fill-opacity:1"><path
   style="stroke:none;stroke-width:0"
   d="M 3.015625,-3.15625 H 4.71875 c 1.40625,0 2.796875,-1.03125 2.796875,-2.140625 0,-0.78125 -0.65625,-1.515625 -1.96875,-1.515625 h -3.21875 c -0.1875,0 -0.296875,0 -0.296875,0.1875 0,0.125 0.078125,0.125 0.28125,0.125 0.125,0 0.3125,0.015625 0.421875,0.015625 0.171875,0.03125 0.21875,0.046875 0.21875,0.171875 0,0.03125 0,0.0625 -0.03125,0.1875 l -1.34375,5.34375 c -0.09375,0.390625 -0.109375,0.46875 -0.90625,0.46875 -0.15625,0 -0.265625,0 -0.265625,0.1875 C 0.40625,0 0.515625,0 0.546875,0 0.828125,0 1.53125,-0.03125 1.8125,-0.03125 c 0.21875,0 0.4375,0.015625 0.640625,0.015625 0.21875,0 0.4375,0.015625 0.640625,0.015625 0.078125,0 0.203125,0 0.203125,-0.203125 0,-0.109375 -0.09375,-0.109375 -0.28125,-0.109375 -0.359375,0 -0.640625,0 -0.640625,-0.171875 0,-0.0625 0.015625,-0.109375 0.03125,-0.171875 z M 3.734375,-6.125 C 3.828125,-6.46875 3.84375,-6.5 4.28125,-6.5 h 0.953125 c 0.828125,0 1.359375,0.265625 1.359375,0.953125 0,0.390625 -0.203125,1.25 -0.59375,1.609375 -0.5,0.453125 -1.09375,0.53125 -1.53125,0.53125 H 3.0625 Z m 0,0"
   id="id-939e8c50-f1f2-48ac-a837-5b8fba354fbd" />
      </g><g
       transform="matrix(1.05833,0,0,1.05833,51.587948,180.16242)"
       id="g5664"
       style="fill:#000000;fill-opacity:1"><path
   style="stroke:none;stroke-width:0"
   d="M 3.546875,-5.75 C 3.46875,-5.921875 3.40625,-5.96875 3.3125,-5.96875 c -0.125,0 -0.15625,0.078125 -0.21875,0.21875 L 0.625,-0.171875 c -0.0625,0.125 -0.078125,0.140625 -0.078125,0.1875 0,0.109375 0.09375,0.203125 0.203125,0.203125 0.0625,0 0.140625,-0.015625 0.234375,-0.203125 L 3.3125,-5.28125 5.65625,0.015625 C 5.75,0.21875 5.859375,0.21875 5.890625,0.21875 6,0.21875 6.09375,0.125 6.09375,0.015625 c 0,-0.015625 0,-0.03125 -0.0625,-0.15625 z m 0,0"
   id="id-d131c6c6-f5a3-4ea0-905b-4216a4c31920" />
      </g><g
       transform="matrix(1.05833,0,0,1.05833,60.960518,180.16242)"
       id="g5662"
       style="fill:#000000;fill-opacity:1"><path
   style="stroke:none;stroke-width:0"
   d="M 4.359375,-0.0625 C 5.90625,-0.640625 7.375,-2.421875 7.375,-4.34375 c 0,-1.609375 -1.0625,-2.6875 -2.546875,-2.6875 -2.140625,0 -4.34375,2.265625 -4.34375,4.59375 0,1.65625 1.125,2.65625 2.5625,2.65625 0.25,0 0.578125,-0.046875 0.96875,-0.15625 -0.03125,0.625 -0.03125,0.640625 -0.03125,0.78125 0,0.3125 0,1.09375 0.828125,1.09375 1.171875,0 1.65625,-1.828125 1.65625,-1.9375 0,-0.0625 -0.0625,-0.09375 -0.109375,-0.09375 -0.078125,0 -0.09375,0.046875 -0.125,0.109375 C 6,0.71875 5.421875,0.96875 5.078125,0.96875 c -0.46875,0 -0.609375,-0.265625 -0.71875,-1.03125 z m -1.875,-0.078125 c -0.78125,-0.3125 -1.125,-1.078125 -1.125,-1.984375 0,-0.6875 0.265625,-2.109375 1.015625,-3.171875 C 3.109375,-6.3125 4.046875,-6.78125 4.78125,-6.78125 5.765625,-6.78125 6.5,-6 6.5,-4.671875 c 0,1 -0.515625,3.34375 -2.1875,4.265625 -0.046875,-0.34375 -0.140625,-1.0625 -0.875,-1.0625 -0.53125,0 -1.015625,0.484375 -1.015625,1.015625 0,0.1875 0.0625,0.296875 0.0625,0.3125 z M 3.09375,-0.03125 c -0.140625,0 -0.453125,0 -0.453125,-0.421875 0,-0.40625 0.375,-0.796875 0.796875,-0.796875 0.421875,0 0.609375,0.234375 0.609375,0.84375 0,0.140625 -0.015625,0.15625 -0.109375,0.203125 C 3.671875,-0.09375 3.375,-0.03125 3.09375,-0.03125 Z m 0,0"
   id="id-82352025-fd6e-4100-a649-540f166d921e" />
      </g><g
       transform="matrix(1.05833,0,0,1.05833,71.639068,180.16242)"
       id="g1228"
       style="fill:#000000;fill-opacity:1"><path
   style="stroke:none;stroke-width:0"
   d="M 3.546875,-5.75 C 3.46875,-5.921875 3.40625,-5.96875 3.3125,-5.96875 c -0.125,0 -0.15625,0.078125 -0.21875,0.21875 L 0.625,-0.171875 c -0.0625,0.125 -0.078125,0.140625 -0.078125,0.1875 0,0.109375 0.09375,0.203125 0.203125,0.203125 0.0625,0 0.140625,-0.015625 0.234375,-0.203125 L 3.3125,-5.28125 5.65625,0.015625 C 5.75,0.21875 5.859375,0.21875 5.890625,0.21875 6,0.21875 6.09375,0.125 6.09375,0.015625 c 0,-0.015625 0,-0.03125 -0.0625,-0.15625 z m 0,0"
   id="id-ee1f8839-4777-4ee0-8d8c-e42e6e214f04" />
      </g><g
       transform="matrix(1.05833,0,0,1.05833,81.01058,180.16242)"
       id="g940"
       style="fill:#000000;fill-opacity:1"><path
   style="stroke:none;stroke-width:0"
   d="m 3.734375,-6.125 c 0.0625,-0.234375 0.09375,-0.328125 0.28125,-0.359375 C 4.109375,-6.5 4.421875,-6.5 4.625,-6.5 c 0.703125,0 1.8125,0 1.8125,0.984375 0,0.34375 -0.15625,1.03125 -0.546875,1.421875 -0.265625,0.25 -0.78125,0.578125 -1.6875,0.578125 H 3.09375 Z m 1.4375,2.734375 c 1.015625,-0.21875 2.1875,-0.921875 2.1875,-1.921875 0,-0.859375 -0.890625,-1.5 -2.203125,-1.5 H 2.328125 c -0.203125,0 -0.296875,0 -0.296875,0.203125 C 2.03125,-6.5 2.125,-6.5 2.3125,-6.5 c 0.015625,0 0.203125,0 0.375,0.015625 0.1875,0.03125 0.265625,0.03125 0.265625,0.171875 0,0.03125 0,0.0625 -0.03125,0.1875 l -1.34375,5.34375 C 1.484375,-0.390625 1.46875,-0.3125 0.671875,-0.3125 0.5,-0.3125 0.40625,-0.3125 0.40625,-0.109375 0.40625,0 0.53125,0 0.546875,0 c 0.28125,0 0.984375,-0.03125 1.25,-0.03125 0.28125,0 1,0.03125 1.28125,0.03125 0.078125,0 0.1875,0 0.1875,-0.203125 0,-0.109375 -0.078125,-0.109375 -0.28125,-0.109375 -0.359375,0 -0.640625,0 -0.640625,-0.171875 0,-0.0625 0.015625,-0.109375 0.03125,-0.171875 l 0.65625,-2.640625 h 1.1875 c 0.90625,0 1.078125,0.5625 1.078125,0.90625 0,0.140625 -0.078125,0.453125 -0.140625,0.6875 C 5.09375,-1.421875 5,-1.0625 5,-0.859375 5,0.21875 6.203125,0.21875 6.328125,0.21875 c 0.84375,0 1.203125,-1 1.203125,-1.140625 0,-0.125 -0.109375,-0.125 -0.125,-0.125 -0.09375,0 -0.109375,0.0625 -0.125,0.140625 C 7.03125,-0.171875 6.59375,0 6.375,0 6.046875,0 5.96875,-0.21875 5.96875,-0.609375 c 0,-0.3125 0.0625,-0.8125 0.109375,-1.140625 0.015625,-0.140625 0.03125,-0.328125 0.03125,-0.46875 0,-0.765625 -0.671875,-1.078125 -0.9375,-1.171875 z m 0,0"
   id="id-79f85cf5-8edc-49a3-989b-2d8d2053ae1d" />
      </g><g
       transform="matrix(1.05833,0,0,1.05833,91.44148,180.16242)"
       id="g4094"
       style="fill:#000000;fill-opacity:1"><path
   style="stroke:none;stroke-width:0"
   d="M 3.546875,-5.75 C 3.46875,-5.921875 3.40625,-5.96875 3.3125,-5.96875 c -0.125,0 -0.15625,0.078125 -0.21875,0.21875 L 0.625,-0.171875 c -0.0625,0.125 -0.078125,0.140625 -0.078125,0.1875 0,0.109375 0.09375,0.203125 0.203125,0.203125 0.0625,0 0.140625,-0.015625 0.234375,-0.203125 L 3.3125,-5.28125 5.65625,0.015625 C 5.75,0.21875 5.859375,0.21875 5.890625,0.21875 6,0.21875 6.09375,0.125 6.09375,0.015625 c 0,-0.015625 0,-0.03125 -0.0625,-0.15625 z m 0,0"
   id="id-9a1e441d-a0cc-42f7-800d-cc5dacf6ed25" />
      </g><g
       transform="matrix(1.05833,0,0,1.05833,100.81299,180.16242)"
       id="g6705"
       style="fill:#000000;fill-opacity:1"><path
   style="stroke:none;stroke-width:0"
   d="m 1.90625,-0.53125 c 0,-0.28125 -0.234375,-0.53125 -0.515625,-0.53125 -0.296875,0 -0.53125,0.25 -0.53125,0.53125 C 0.859375,-0.234375 1.09375,0 1.390625,0 1.671875,0 1.90625,-0.234375 1.90625,-0.53125 Z m 0,0"
   id="id-a9328b70-7190-4661-86df-35fa90993c99" />
      </g><g
       transform="matrix(1.05833,0,0,1.05833,103.74245,180.16242)"
       id="g3117"
       style="fill:#000000;fill-opacity:1"><path
   style="stroke:none;stroke-width:0"
   d="m 1.90625,-0.53125 c 0,-0.28125 -0.234375,-0.53125 -0.515625,-0.53125 -0.296875,0 -0.53125,0.25 -0.53125,0.53125 C 0.859375,-0.234375 1.09375,0 1.390625,0 1.671875,0 1.90625,-0.234375 1.90625,-0.53125 Z m 0,0"
   id="id-0bb389d9-0ad5-4ee8-94bd-f50354728047" />
      </g><g
       transform="matrix(1.05833,0,0,1.05833,106.67085,180.16242)"
       id="g3165"
       style="fill:#000000;fill-opacity:1"><path
   style="stroke:none;stroke-width:0"
   d="m 1.90625,-0.53125 c 0,-0.28125 -0.234375,-0.53125 -0.515625,-0.53125 -0.296875,0 -0.53125,0.25 -0.53125,0.53125 C 0.859375,-0.234375 1.09375,0 1.390625,0 1.671875,0 1.90625,-0.234375 1.90625,-0.53125 Z m 0,0"
   id="id-5c23d5d6-0c7c-435e-852c-a34d118c0a03" />
      </g><path
       style="fill:#000000;fill-opacity:1;stroke:none;stroke-width:0"
       d="m 121.32608,177.73157 c -0.57878,0.44648 -0.85989,0.87643 -0.94258,1.02526 -0.47955,0.7276 -0.56223,1.38905 -0.56223,1.38905 0,0.13229 0.13229,0.13229 0.21497,0.13229 0.16536,0 0.1819,-0.0165 0.23151,-0.21497 0.23151,-1.02526 0.85989,-1.91822 2.05051,-2.39778 0.13229,-0.0496 0.16537,-0.0661 0.16537,-0.14883 0,-0.0661 -0.0662,-0.0992 -0.0827,-0.11575 -0.47955,-0.16536 -1.75285,-0.69453 -2.14973,-2.46392 -0.0331,-0.1323 -0.0496,-0.16537 -0.21497,-0.16537 -0.0827,0 -0.21497,0 -0.21497,0.13229 0,0.0165 0.0992,0.678 0.52916,1.38906 0.21497,0.31419 0.52917,0.67799 0.97565,1.02526 h -7.83826 c -0.1819,0 -0.38034,0 -0.38034,0.19843 0,0.21498 0.19844,0.21498 0.38034,0.21498 z m 0,0"
       id="id-2739868b-d14e-4882-a38e-0134ef49b327" /><path
       style="fill:#000000;fill-opacity:1;stroke:none;stroke-width:0"
       d="m -97.981614,172.76994 c -0.47253,-0.61254 -0.92755,-0.91005 -1.08506,-0.99756 -0.77005,-0.50752 -1.470086,-0.59502 -1.470086,-0.59502 -0.14,0 -0.14,0.14 -0.14,0.22751 0,0.175 0.0175,0.19251 0.22751,0.24501 1.085056,0.24501 2.030116,0.91005 2.537646,2.17012 0.0525,0.14 0.07,0.17501 0.15751,0.17501 0.07,0 0.105,-0.07 0.12251,-0.0875 0.175,-0.50752 0.73504,-1.8551 2.60764,-2.27513 0.14001,-0.035 0.17501,-0.0525 0.17501,-0.22751 0,-0.0875 0,-0.2275 -0.14001,-0.2275 -0.0175,0 -0.71755,0.10498 -1.47008,0.56002 -0.33252,0.22751 -0.71754,0.56004 -1.08506,1.03256 v -18.87879 c 0,-0.19252 0,-0.40253 -0.21001,-0.40253 -0.22751,0 -0.22751,0.21001 -0.22751,0.40253 z"
       id="id-2739868b-d14e-4882-a38e-0134ef49b327-5"
       sodipodi:nodetypes="cccsccsccssccsssc" /><g
       transform="matrix(1.05833,0,0,1.05833,126.00125,180.16242)"
       id="g9137"
       style="fill:#000000;fill-opacity:1"><path
   style="stroke:none;stroke-width:0"
   d="m 7.171875,-6.5625 c 0.015625,-0.046875 0.03125,-0.09375 0.03125,-0.15625 0,-0.09375 -0.046875,-0.09375 -0.25,-0.09375 H 2.75 c -0.234375,0 -0.25,0.015625 -0.3125,0.203125 L 1.890625,-4.8125 c -0.015625,0.046875 -0.03125,0.125 -0.03125,0.140625 0,0 0,0.109375 0.125,0.109375 0.09375,0 0.109375,-0.078125 0.125,-0.109375 C 2.5,-5.84375 3.015625,-6.5 4.5625,-6.5 h 1.625 L 0.625,-0.265625 c 0,0 -0.046875,0.140625 -0.046875,0.171875 C 0.578125,0 0.640625,0 0.828125,0 H 5.15625 c 0.25,0 0.25,-0.015625 0.3125,-0.203125 L 6.1875,-2.40625 c 0,-0.03125 0.03125,-0.109375 0.03125,-0.140625 0,-0.0625 -0.03125,-0.109375 -0.125,-0.109375 -0.09375,0 -0.109375,0.03125 -0.171875,0.25 C 5.484375,-1.0625 5,-0.34375 3.3125,-0.34375 H 1.609375 Z m 0,0"
   id="id-30ec64b6-333a-4f3f-98a4-0a6688a841f4" />
      </g><text
       xml:space="preserve"
       style="font-weight:300;font-size:6.35px;line-height:1.25;font-family:'Alibaba PuHuiTi';-inkscape-font-specification:'Alibaba PuHuiTi, Light';letter-spacing:0px;word-spacing:0px;stroke-width:0.264583"
       x="81.130386"
       y="102.12196"
       id="text7"><tspan
         sodipodi:role="line"
         id="tspan7"
         style="stroke-width:0.264583"
         x="81.130386"
         y="102.12196" /></text><text
       xml:space="preserve"
       style="font-weight:300;font-size:2.82222px;line-height:1.25;font-family:'Alibaba PuHuiTi';-inkscape-font-specification:'Alibaba PuHuiTi, Light';letter-spacing:0px;word-spacing:0px;fill:#0000ff;stroke-width:0.264583"
       x="-114.40601"
       y="135.5154"
       id="text2"><tspan
         sodipodi:role="line"
         id="tspan2"
         style="font-size:2.82222px;fill:#0000ff;stroke-width:0.264583"
         x="-114.40601"
         y="135.5154">●</tspan></text><text
       xml:space="preserve"
       style="font-weight:300;font-size:2.82222px;line-height:1.25;font-family:'Alibaba PuHuiTi';-inkscape-font-specification:'Alibaba PuHuiTi, Light';letter-spacing:0px;word-spacing:0px;fill:#0000ff;stroke-width:0.264583"
       x="-98.925957"
       y="131.78326"
       id="text2-2"><tspan
         sodipodi:role="line"
         id="tspan2-7"
         style="font-size:2.82222px;fill:#0000ff;stroke-width:0.264583"
         x="-98.925957"
         y="131.78326">●</tspan></text><text
       xml:space="preserve"
       style="font-weight:300;font-size:2.82222px;line-height:1.25;font-family:'Alibaba PuHuiTi';-inkscape-font-specification:'Alibaba PuHuiTi, Light';letter-spacing:0px;word-spacing:0px;stroke-width:0.264583"
       x="-77.556664"
       y="140.80031"
       id="text2-6"><tspan
         sodipodi:role="line"
         id="tspan2-0"
         style="font-size:2.82222px;stroke-width:0.264583"
         x="-77.556664"
         y="140.80031">●</tspan></text><text
       xml:space="preserve"
       style="font-weight:300;font-size:4.93889px;line-height:1.25;font-family:'Alibaba PuHuiTi';-inkscape-font-specification:'Alibaba PuHuiTi, Light';letter-spacing:0px;word-spacing:0px;fill:#0000ff;stroke-width:0.264583"
       x="-127.90084"
       y="125.40681"
       id="text3"><tspan
         sodipodi:role="line"
         id="tspan3"
         style="font-style:normal;font-variant:normal;font-weight:normal;font-stretch:normal;font-size:4.93889px;font-family:'Alibaba PuHuiTi';-inkscape-font-specification:'Alibaba PuHuiTi';fill:#0000ff;stroke-width:0.264583"
         x="-127.90084"
         y="125.40681">Socrates</tspan></text><text
       xml:space="preserve"
       style="font-weight:300;font-size:4.93889px;line-height:1.25;font-family:'Alibaba PuHuiTi';-inkscape-font-specification:'Alibaba PuHuiTi, Light';letter-spacing:0px;word-spacing:0px;fill:#0000ff;stroke-width:0.264583"
       x="-155.20137"
       y="124.7241"
       id="text3-6"><tspan
         sodipodi:role="line"
         id="tspan3-3"
         style="font-style:normal;font-variant:normal;font-weight:normal;font-stretch:normal;font-size:4.93889px;font-family:'Alibaba PuHuiTi';-inkscape-font-specification:'Alibaba PuHuiTi';text-align:center;text-anchor:middle;fill:#0000ff;stroke-width:0.264583"
         x="-155.20137"
         y="124.7241">the predicate</tspan><tspan
         sodipodi:role="line"
         style="font-style:normal;font-variant:normal;font-weight:normal;font-stretch:normal;font-size:4.93889px;font-family:'Alibaba PuHuiTi';-inkscape-font-specification:'Alibaba PuHuiTi';text-align:center;text-anchor:middle;fill:#0000ff;stroke-width:0.264583"
         x="-155.20137"
         y="130.89771"
         id="tspan6">&quot;human&quot;</tspan></text><text
       xml:space="preserve"
       style="font-weight:300;font-size:4.93889px;line-height:1.25;font-family:'Alibaba PuHuiTi';-inkscape-font-specification:'Alibaba PuHuiTi, Light';letter-spacing:0px;word-spacing:0px;fill:#0000ff;stroke-width:0.264583"
       x="-101.87783"
       y="123.60541"
       id="text3-1"><tspan
         sodipodi:role="line"
         id="tspan3-8"
         style="font-style:normal;font-variant:normal;font-weight:normal;font-stretch:normal;font-size:4.93889px;font-family:'Alibaba PuHuiTi';-inkscape-font-specification:'Alibaba PuHuiTi';fill:#0000ff;stroke-width:0.264583"
         x="-101.87783"
         y="123.60541">Plato</tspan></text><text
       xml:space="preserve"
       style="font-weight:300;font-size:6.35px;line-height:1.25;font-family:'Alibaba PuHuiTi';-inkscape-font-specification:'Alibaba PuHuiTi, Light';letter-spacing:0px;word-spacing:0px;stroke-width:0.264583"
       x="-121.24975"
       y="109.38534"
       id="text3-1-9"><tspan
         sodipodi:role="line"
         id="tspan3-8-22"
         style="font-style:normal;font-variant:normal;font-weight:normal;font-stretch:normal;font-size:6.35px;font-family:'Alibaba PuHuiTi';-inkscape-font-specification:'Alibaba PuHuiTi';stroke-width:0.264583"
         x="-121.24975"
         y="109.38534">Subject Space <tspan
   style="font-style:italic;font-variant:normal;font-weight:normal;font-stretch:normal;font-size:7.05556px;font-family:'Latin Modern Roman';-inkscape-font-specification:'Latin Modern Roman, '"
   id="tspan5">X</tspan></tspan></text><text
       xml:space="preserve"
       style="font-weight:300;font-size:6.35px;line-height:1.25;font-family:'Alibaba PuHuiTi';-inkscape-font-specification:'Alibaba PuHuiTi, Light';letter-spacing:0px;word-spacing:0px;stroke-width:0.264583"
       x="-42.85162"
       y="131.68921"
       id="text3-1-9-5"><tspan
         sodipodi:role="line"
         id="tspan3-8-22-9"
         style="font-style:normal;font-variant:normal;font-weight:normal;font-stretch:normal;font-size:6.35px;font-family:'Alibaba PuHuiTi';-inkscape-font-specification:'Alibaba PuHuiTi';stroke-width:0.264583"
         x="-42.85162"
         y="131.68921">This is also</tspan><tspan
         sodipodi:role="line"
         style="font-style:normal;font-variant:normal;font-weight:normal;font-stretch:normal;font-size:6.35px;font-family:'Alibaba PuHuiTi';-inkscape-font-specification:'Alibaba PuHuiTi';stroke-width:0.264583"
         x="-42.85162"
         y="139.62671"
         id="tspan28">a Boolean</tspan><tspan
         sodipodi:role="line"
         style="font-style:normal;font-variant:normal;font-weight:normal;font-stretch:normal;font-size:6.35px;font-family:'Alibaba PuHuiTi';-inkscape-font-specification:'Alibaba PuHuiTi';stroke-width:0.264583"
         x="-42.85162"
         y="147.56421"
         id="tspan29">(commutative)</tspan><tspan
         sodipodi:role="line"
         style="font-style:normal;font-variant:normal;font-weight:normal;font-stretch:normal;font-size:6.35px;font-family:'Alibaba PuHuiTi';-inkscape-font-specification:'Alibaba PuHuiTi';stroke-width:0.264583"
         x="-42.85162"
         y="155.50171"
         id="tspan30">algebra</tspan></text><text
       xml:space="preserve"
       style="font-weight:300;font-size:6.35px;line-height:0.95;font-family:'Alibaba PuHuiTi';-inkscape-font-specification:'Alibaba PuHuiTi, Light';letter-spacing:0px;word-spacing:0px;stroke-width:0.264583"
       x="-146.27893"
       y="175.82249"
       id="text3-1-9-5-7"><tspan
         sodipodi:role="line"
         id="tspan3-8-22-6-4"
         style="font-style:normal;font-variant:normal;font-weight:normal;font-stretch:normal;font-size:6.35px;line-height:0.95;font-family:'Alibaba PuHuiTi';-inkscape-font-specification:'Alibaba PuHuiTi';text-align:center;text-anchor:middle;stroke-width:0.264583"
         x="-146.27893"
         y="175.82249">truth-value object <tspan
   style="font-style:italic;font-variant:normal;font-weight:normal;font-stretch:normal;font-size:7.05556px;line-height:0.95;font-family:'Latin Modern Roman';-inkscape-font-specification:'Latin Modern Roman, '"
   id="tspan27">Ω</tspan></tspan><tspan
         sodipodi:role="line"
         style="font-style:normal;font-variant:normal;font-weight:normal;font-stretch:normal;font-size:6.35px;line-height:0.95;font-family:'Alibaba PuHuiTi';-inkscape-font-specification:'Alibaba PuHuiTi';text-align:center;text-anchor:middle;stroke-width:0.264583"
         x="-146.27893"
         y="182.25363"
         id="tspan26">or</tspan><tspan
         sodipodi:role="line"
         style="font-style:normal;font-variant:normal;font-weight:normal;font-stretch:normal;font-size:6.35px;line-height:0.95;font-family:'Alibaba PuHuiTi';-inkscape-font-specification:'Alibaba PuHuiTi';text-align:center;text-anchor:middle;stroke-width:0.264583"
         x="-146.27893"
         y="188.55777"
         id="tspan25">Boolean algebra <tspan
   style="font-style:italic;font-variant:normal;font-weight:normal;font-stretch:normal;font-size:7.05556px;line-height:0.95;font-family:'Latin Modern Roman';-inkscape-font-specification:'Latin Modern Roman, ';text-align:center;text-anchor:middle"
   id="tspan5-9-4">O</tspan></tspan></text><text
       xml:space="preserve"
       style="font-weight:300;font-size:4.93889px;line-height:1.25;font-family:'Alibaba PuHuiTi';-inkscape-font-specification:'Alibaba PuHuiTi, Light';letter-spacing:0px;word-spacing:0px;stroke-width:0.264583"
       x="-76.193291"
       y="135.92754"
       id="text3-1-0"><tspan
         sodipodi:role="line"
         style="font-style:normal;font-variant:normal;font-weight:normal;font-stretch:normal;font-size:4.93889px;font-family:'Alibaba PuHuiTi';-inkscape-font-specification:'Alibaba PuHuiTi';text-align:center;text-anchor:middle;stroke-width:0.264583"
         x="-76.193291"
         y="135.92754"
         id="tspan4">Zeus</tspan></text><rect
       style="opacity:1;fill:none;fill-opacity:0.999942;stroke:#000000;stroke-width:0.529167;stroke-linecap:round;stroke-dasharray:none"
       id="rect4"
       width="80.849739"
       height="38.218235"
       x="-136.56827"
       y="112.20229"
       ry="6.7756686" /><g
       inkscape:label=""
       transform="translate(-110.19,175.98761)"
       id="g24"><g
   id="g23"
   transform="matrix(0.705556,0,0,0.705556,-203.911,-60.9837)">
    <g
   style="fill:#000000;fill-opacity:1"
   id="g17">
      <g
   id="g12"
   transform="translate(288.289,93.917999)">
        <path
   style="stroke:none"
   d="m 2.828125,-6.15625 c 0,-0.390625 0.25,-1.03125 1.34375,-1.09375 C 4.21875,-7.265625 4.25,-7.3125 4.25,-7.359375 c 0,-0.125 -0.078125,-0.125 -0.1875,-0.125 -0.984375,0 -1.90625,0.515625 -1.90625,1.25 v 2.28125 c 0,0.390625 0,0.703125 -0.40625,1.03125 -0.34375,0.296875 -0.71875,0.3125 -0.9375,0.3125 C 0.75,-2.59375 0.71875,-2.546875 0.71875,-2.5 c 0,0.109375 0.0625,0.109375 0.15625,0.125 0.65625,0.03125 1.140625,0.390625 1.25,0.875 0.03125,0.109375 0.03125,0.140625 0.03125,0.5 v 1.96875 c 0,0.421875 0,0.734375 0.46875,1.109375 C 3.015625,2.375 3.671875,2.5 4.0625,2.5 4.171875,2.5 4.25,2.5 4.25,2.375 4.25,2.28125 4.203125,2.28125 4.09375,2.265625 3.46875,2.234375 2.984375,1.90625 2.84375,1.40625 2.828125,1.3125 2.828125,1.296875 2.828125,0.9375 v -2.09375 c 0,-0.453125 -0.09375,-0.625 -0.40625,-0.953125 C 2.21875,-2.3125 1.921875,-2.40625 1.640625,-2.5 c 0.828125,-0.21875 1.1875,-0.6875 1.1875,-1.265625 z m 0,0"
   id="path10" />
      </g>
      <g
   id="g16"
   transform="translate(293.27029,93.917999)">
        <path
   style="fill:#0000ff;stroke:none"
   d="m 4.078125,-6.265625 h 2.78125 c 0.171875,0 0.34375,0 0.34375,-0.1875 0,-0.203125 -0.171875,-0.203125 -0.34375,-0.203125 H 0.90625 c -0.15625,0 -0.359375,0 -0.359375,0.203125 0,0.1875 0.203125,0.1875 0.359375,0.1875 h 2.765625 v 5.90625 C 3.671875,-0.203125 3.671875,0 3.875,0 4.078125,0 4.078125,-0.171875 4.078125,-0.359375 Z m 0,0"
   id="path16" />
      </g>
    </g>
    <g
   style="fill:#000000;fill-opacity:1"
   id="g19">
      <g
   id="g18"
   transform="translate(303.78601,93.917999)">
        <path
   style="stroke:none"
   d="m 2.03125,-0.015625 c 0,-0.65625 -0.25,-1.046875 -0.640625,-1.046875 -0.328125,0 -0.53125,0.25 -0.53125,0.53125 C 0.859375,-0.265625 1.0625,0 1.390625,0 1.5,0 1.640625,-0.046875 1.734375,-0.125 1.765625,-0.15625 1.78125,-0.15625 1.78125,-0.15625 c 0.015625,0 0.015625,0 0.015625,0.140625 0,0.75 -0.34375,1.34375 -0.671875,1.671875 -0.109375,0.109375 -0.109375,0.125 -0.109375,0.15625 0,0.078125 0.046875,0.109375 0.09375,0.109375 0.109375,0 0.921875,-0.765625 0.921875,-1.9375 z m 0,0"
   id="path17" />
      </g>
    </g>
    <g
   style="fill:#000000;fill-opacity:1"
   id="g22">
      <g
   id="g20"
   transform="translate(310.98099,93.917999)">
        <path
   style="stroke:none"
   d="m 4.078125,-6.296875 c 0,-0.1875 0,-0.359375 -0.203125,-0.359375 -0.203125,0 -0.203125,0.203125 -0.203125,0.359375 V -0.40625 H 0.90625 c -0.15625,0 -0.359375,0 -0.359375,0.203125 C 0.546875,0 0.75,0 0.90625,0 h 5.953125 c 0.171875,0 0.34375,0 0.34375,-0.203125 0,-0.203125 -0.171875,-0.203125 -0.34375,-0.203125 h -2.78125 z m 0,0"
   id="path19" />
      </g>
      <g
   id="g21"
   transform="translate(318.72992,93.917999)">
        <path
   style="stroke:none"
   d="m 2.15625,1.171875 c 0,0.390625 -0.265625,1.03125 -1.34375,1.09375 C 0.75,2.28125 0.71875,2.328125 0.71875,2.375 0.71875,2.5 0.828125,2.5 0.921875,2.5 1.890625,2.5 2.8125,2 2.828125,1.25 v -2.28125 c 0,-0.390625 0,-0.703125 0.390625,-1.03125 C 3.5625,-2.359375 3.953125,-2.375 4.171875,-2.375 4.21875,-2.390625 4.25,-2.4375 4.25,-2.5 4.25,-2.59375 4.203125,-2.59375 4.09375,-2.609375 3.4375,-2.640625 2.953125,-3 2.84375,-3.484375 2.828125,-3.59375 2.828125,-3.625 2.828125,-3.984375 v -1.96875 c 0,-0.421875 0,-0.734375 -0.484375,-1.109375 C 1.9375,-7.375 1.25,-7.484375 0.921875,-7.484375 c -0.09375,0 -0.203125,0 -0.203125,0.125 0,0.09375 0.0625,0.09375 0.15625,0.109375 0.625,0.03125 1.125,0.359375 1.25,0.859375 0.03125,0.09375 0.03125,0.109375 0.03125,0.46875 v 2.09375 c 0,0.453125 0.078125,0.625 0.390625,0.953125 0.21875,0.203125 0.5,0.296875 0.78125,0.375 -0.8125,0.234375 -1.171875,0.703125 -1.171875,1.28125 z m 0,0"
   id="path20" />
      </g>
    </g>
  </g>
</g></g></svg>
