<?xml version="1.0" encoding="UTF-8" standalone="no"?>
<!-- Created with Inkscape (http://www.inkscape.org/) -->

<svg
   width="222.60573mm"
   height="17.442921mm"
   viewBox="0 0 222.60573 17.442921"
   version="1.1"
   id="svg5"
   sodipodi:docname="logic-variables.svg"
   inkscape:version="1.3.2 (1:1.3.2+202311252150+091e20ef0f)"
   inkscape:export-filename="/home/yky/latex/masters-thesis/logic-variables.png"
   inkscape:export-xdpi="192"
   inkscape:export-ydpi="192"
   xmlns:inkscape="http://www.inkscape.org/namespaces/inkscape"
   xmlns:sodipodi="http://sodipodi.sourceforge.net/DTD/sodipodi-0.dtd"
   xmlns:xlink="http://www.w3.org/1999/xlink"
   xmlns="http://www.w3.org/2000/svg"
   xmlns:svg="http://www.w3.org/2000/svg">
  <sodipodi:namedview
     id="namedview7"
     pagecolor="#ffffff"
     bordercolor="#666666"
     borderopacity="1.0"
     inkscape:pageshadow="2"
     inkscape:pageopacity="1"
     inkscape:pagecheckerboard="0"
     inkscape:document-units="mm"
     showgrid="false"
     showborder="false"
     inkscape:zoom="1"
     inkscape:cx="312"
     inkscape:cy="100"
     inkscape:window-width="1920"
     inkscape:window-height="1055"
     inkscape:window-x="0"
     inkscape:window-y="0"
     inkscape:window-maximized="1"
     inkscape:current-layer="layer1"
     inkscape:showpageshadow="2"
     inkscape:deskcolor="#ffffff" />
  <defs
     id="defs2">
    <g
       id="g7276">
      <symbol
         overflow="visible"
         id="symbol695">
        <path
           style="stroke:none"
           d=""
           id="path2394" />
      </symbol>
      <symbol
         overflow="visible"
         id="symbol1308">
        <path
           style="stroke:none"
           d="m 1.75,-3.84375 h 1.09375 v -0.578125 h -1.125 v -1.1875 c 0,-0.734375 0.671875,-0.8125 0.9375,-0.8125 0.1875,0 0.46875,0.015625 0.796875,0.171875 V -6.921875 C 3.34375,-6.953125 3.03125,-7.03125 2.65625,-7.03125 1.71875,-7.03125 1,-6.3125 1,-5.328125 v 0.90625 H 0.265625 V -3.84375 H 1 V 0 h 0.75 z m 0,0"
           id="path9913" />
      </symbol>
      <symbol
         overflow="visible"
         id="symbol3936">
        <path
           style="stroke:none"
           d="m 3.984375,-2.875 c 0,-1.015625 -0.734375,-1.71875 -1.65625,-1.71875 -0.640625,0 -1.09375,0.15625 -1.5625,0.421875 l 0.0625,0.65625 C 1.34375,-3.875 1.84375,-4 2.328125,-4 c 0.46875,0 0.875,0.390625 0.875,1.125 v 0.4375 C 1.703125,-2.421875 0.4375,-2 0.4375,-1.125 c 0,0.421875 0.265625,1.234375 1.140625,1.234375 0.140625,0 1.078125,-0.015625 1.65625,-0.46875 V 0 h 0.75 z m -0.78125,1.5625 c 0,0.1875 0,0.4375 -0.34375,0.625 C 2.578125,-0.515625 2.1875,-0.5 2.078125,-0.5 1.609375,-0.5 1.15625,-0.734375 1.15625,-1.140625 c 0,-0.703125 1.609375,-0.765625 2.046875,-0.796875 z m 0,0"
           id="path6401" />
      </symbol>
      <symbol
         overflow="visible"
         id="symbol7672">
        <path
           style="stroke:none"
           d="M 1.75,-3.84375 H 3.15625 V -4.421875 H 1.75 V -5.6875 H 1.0625 v 1.265625 h -0.875 v 0.578125 h 0.84375 v 2.65625 c 0,0.59375 0.140625,1.296875 0.828125,1.296875 0.6875,0 1.203125,-0.25 1.453125,-0.375 L 3.15625,-0.859375 C 2.890625,-0.640625 2.578125,-0.53125 2.25,-0.53125 c -0.359375,0 -0.5,-0.296875 -0.5,-0.828125 z m 0,0"
           id="path3048" />
      </symbol>
      <symbol
         overflow="visible"
         id="symbol8797">
        <path
           style="stroke:none"
           d="m 4.34375,-2.96875 c 0,-0.65625 -0.15625,-1.5625 -1.375,-1.5625 -0.609375,0 -1.09375,0.296875 -1.40625,0.71875 v -3.109375 h -0.75 V 0 h 0.765625 v -2.4375 c 0,-0.65625 0.25,-1.484375 1.015625,-1.484375 0.953125,0 0.96875,0.703125 0.96875,1.015625 V 0 h 0.78125 z m 0,0"
           id="path6553" />
      </symbol>
      <symbol
         overflow="visible"
         id="symbol1887">
        <path
           style="stroke:none"
           d="M 4.125,-2.1875 C 4.125,-2.515625 4.109375,-3.265625 3.734375,-3.875 3.3125,-4.484375 2.71875,-4.59375 2.359375,-4.59375 1.25,-4.59375 0.34375,-3.53125 0.34375,-2.25 c 0,1.3125 0.96875,2.359375 2.15625,2.359375 0.625,0 1.203125,-0.234375 1.59375,-0.515625 L 4.03125,-1.0625 C 3.40625,-0.53125 2.734375,-0.5 2.515625,-0.5 1.71875,-0.5 1.078125,-1.203125 1.046875,-2.1875 Z M 1.09375,-2.734375 c 0.15625,-0.75 0.6875,-1.25 1.265625,-1.25 0.515625,0 1.0625,0.328125 1.203125,1.25 z m 0,0"
           id="path3731" />
      </symbol>
      <symbol
         overflow="visible"
         id="symbol3076">
        <path
           style="stroke:none"
           d="M 1.5625,-2.140625 C 1.5625,-3.125 2.28125,-3.84375 3.265625,-3.875 v -0.65625 c -0.890625,0 -1.4375,0.5 -1.75,0.953125 v -0.90625 H 0.8125 V 0 h 0.75 z m 0,0"
           id="path5814" />
      </symbol>
      <symbol
         overflow="visible"
         id="symbol5018">
        <path
           style="stroke:none"
           d="M 3.515625,-3.890625 C 3.734375,-3.890625 4,-3.9375 4.25,-3.9375 c 0.171875,0 0.5625,0.03125 0.578125,0.03125 l -0.109375,-0.625 c -0.6875,0 -1.265625,0.1875 -1.5625,0.3125 -0.21875,-0.171875 -0.546875,-0.3125 -0.953125,-0.3125 -0.859375,0 -1.578125,0.71875 -1.578125,1.625 0,0.359375 0.125,0.71875 0.328125,0.984375 C 0.65625,-1.515625 0.65625,-1.125 0.65625,-1.078125 0.65625,-0.8125 0.75,-0.53125 0.921875,-0.3125 0.40625,-0.015625 0.28125,0.453125 0.28125,0.703125 c 0,0.75 0.984375,1.34375 2.203125,1.34375 1.21875,0 2.203125,-0.578125 2.203125,-1.34375 C 4.6875,-0.6875 3.03125,-0.6875 2.640625,-0.6875 h -0.875 c -0.125,0 -0.578125,0 -0.578125,-0.53125 0,-0.109375 0.03125,-0.265625 0.109375,-0.359375 0.203125,0.15625 0.53125,0.296875 0.90625,0.296875 0.890625,0 1.59375,-0.75 1.59375,-1.625 0,-0.484375 -0.21875,-0.859375 -0.328125,-1 z m -1.3125,2.03125 c -0.375,0 -0.890625,-0.21875 -0.890625,-1.046875 0,-0.828125 0.515625,-1.0625 0.890625,-1.0625 0.421875,0 0.890625,0.28125 0.890625,1.0625 0,0.765625 -0.46875,1.046875 -0.890625,1.046875 z M 2.65625,0.03125 c 0.21875,0 1.34375,0 1.34375,0.6875 0,0.4375 -0.6875,0.765625 -1.5,0.765625 -0.8125,0 -1.515625,-0.3125 -1.515625,-0.78125 0,-0.03125 0,-0.671875 0.765625,-0.671875 z m 0,0"
           id="path4932" />
      </symbol>
      <symbol
         overflow="visible"
         id="symbol7721">
        <path
           style="stroke:none"
           d="m 4.34375,-2.96875 c 0,-0.65625 -0.15625,-1.5625 -1.375,-1.5625 -0.890625,0 -1.390625,0.671875 -1.4375,0.75 V -4.484375 H 0.8125 V 0 h 0.765625 v -2.4375 c 0,-0.65625 0.25,-1.484375 1.015625,-1.484375 0.953125,0 0.96875,0.703125 0.96875,1.015625 V 0 h 0.78125 z m 0,0"
           id="path7321" />
      </symbol>
      <symbol
         overflow="visible"
         id="symbol9498">
        <path
           style="stroke:none"
           d="m 4.328125,-6.921875 h -0.75 v 2.9375 C 3.046875,-4.421875 2.5,-4.53125 2.125,-4.53125 c -0.984375,0 -1.765625,1.03125 -1.765625,2.3125 0,1.3125 0.765625,2.328125 1.71875,2.328125 0.328125,0 0.90625,-0.09375 1.46875,-0.625 V 0 h 0.78125 z m -0.78125,5.53125 C 3.546875,-1.25 3.53125,-1.0625 3.21875,-0.78125 2.984375,-0.578125 2.734375,-0.5 2.484375,-0.5 c -0.625,0 -1.34375,-0.46875 -1.34375,-1.703125 0,-1.3125 0.859375,-1.71875 1.4375,-1.71875 0.453125,0 0.75,0.21875 0.96875,0.546875 z m 0,0"
           id="path4630" />
      </symbol>
      <symbol
         overflow="visible"
         id="symbol3115">
        <path
           style="stroke:none"
           d=""
           id="path8854" />
      </symbol>
      <symbol
         overflow="visible"
         id="symbol6166">
        <path
           style="stroke:none"
           d="m 3.296875,2.390625 c 0,-0.03125 0,-0.046875 -0.171875,-0.21875 C 1.890625,0.921875 1.5625,-0.96875 1.5625,-2.5 c 0,-1.734375 0.375,-3.46875 1.609375,-4.703125 0.125,-0.125 0.125,-0.140625 0.125,-0.171875 0,-0.078125 -0.03125,-0.109375 -0.09375,-0.109375 -0.109375,0 -1,0.6875 -1.59375,1.953125 -0.5,1.09375 -0.625,2.203125 -0.625,3.03125 0,0.78125 0.109375,1.984375 0.65625,3.125 C 2.25,1.84375 3.09375,2.5 3.203125,2.5 c 0.0625,0 0.09375,-0.03125 0.09375,-0.109375 z m 0,0"
           id="path417" />
      </symbol>
      <symbol
         overflow="visible"
         id="symbol3282">
        <path
           style="stroke:none"
           d="m 2.875,-2.5 c 0,-0.765625 -0.109375,-1.96875 -0.65625,-3.109375 -0.59375,-1.21875 -1.453125,-1.875 -1.546875,-1.875 -0.0625,0 -0.109375,0.046875 -0.109375,0.109375 0,0.03125 0,0.046875 0.1875,0.234375 0.984375,0.984375 1.546875,2.5625 1.546875,4.640625 0,1.71875 -0.359375,3.46875 -1.59375,4.71875 C 0.5625,2.34375 0.5625,2.359375 0.5625,2.390625 0.5625,2.453125 0.609375,2.5 0.671875,2.5 0.765625,2.5 1.671875,1.8125 2.25,0.546875 2.765625,-0.546875 2.875,-1.65625 2.875,-2.5 Z m 0,0"
           id="path2964" />
      </symbol>
      <symbol
         overflow="visible"
         id="symbol1028">
        <path
           style="stroke:none"
           d="M 2.75,-1.859375 V -2.4375 H 0.109375 v 0.578125 z m 0,0"
           id="path8587" />
      </symbol>
      <symbol
         overflow="visible"
         id="symbol504">
        <path
           style="stroke:none"
           d=""
           id="path5106" />
      </symbol>
      <symbol
         overflow="visible"
         id="symbol6093">
        <path
           style="stroke:none"
           d="M 4.828125,-4.09375 4,-6.078125 c -0.03125,-0.078125 -0.046875,-0.125 -0.046875,-0.125 0,-0.0625 0.15625,-0.25 0.578125,-0.296875 0.109375,-0.015625 0.203125,-0.015625 0.203125,-0.1875 0,-0.125 -0.125,-0.125 -0.15625,-0.125 -0.40625,0 -0.828125,0.03125 -1.25,0.03125 -0.25,0 -0.859375,-0.03125 -1.109375,-0.03125 -0.0625,0 -0.1875,0 -0.1875,0.203125 C 2.03125,-6.5 2.140625,-6.5 2.265625,-6.5 c 0.59375,0 0.65625,0.09375 0.75,0.3125 l 1.171875,2.78125 -2.109375,2.265625 -0.125,0.109375 C 1.46875,-0.5 1,-0.34375 0.484375,-0.3125 c -0.125,0.015625 -0.21875,0.015625 -0.21875,0.203125 0,0.015625 0,0.109375 0.140625,0.109375 0.296875,0 0.625,-0.03125 0.921875,-0.03125 C 1.703125,-0.03125 2.09375,0 2.453125,0 2.515625,0 2.625,0 2.625,-0.203125 2.625,-0.296875 2.53125,-0.3125 2.515625,-0.3125 c -0.09375,0 -0.40625,-0.03125 -0.40625,-0.3125 0,-0.15625 0.15625,-0.3125 0.265625,-0.4375 L 3.40625,-2.140625 4.296875,-3.125 l 1,2.390625 c 0.046875,0.109375 0.0625,0.109375 0.0625,0.140625 0,0.078125 -0.203125,0.25 -0.578125,0.28125 C 4.671875,-0.296875 4.578125,-0.296875 4.578125,-0.125 4.578125,0 4.6875,0 4.71875,0 5,0 5.703125,-0.03125 5.984375,-0.03125 6.234375,-0.03125 6.84375,0 7.09375,0 c 0.0625,0 0.1875,0 0.1875,-0.1875 0,-0.125 -0.109375,-0.125 -0.1875,-0.125 -0.65625,0 -0.6875,-0.03125 -0.859375,-0.4375 C 5.859375,-1.671875 5.1875,-3.234375 4.953125,-3.828125 5.625,-4.53125 6.671875,-5.71875 7,-5.984375 7.28125,-6.234375 7.671875,-6.46875 8.265625,-6.5 c 0.125,-0.015625 0.21875,-0.015625 0.21875,-0.203125 0,0 0,-0.109375 -0.125,-0.109375 -0.296875,0 -0.640625,0.03125 -0.9375,0.03125 -0.375,0 -0.75,-0.03125 -1.109375,-0.03125 -0.0625,0 -0.1875,0 -0.1875,0.203125 0,0.0625 0.046875,0.09375 0.109375,0.109375 0.09375,0.015625 0.40625,0.03125 0.40625,0.3125 0,0.140625 -0.109375,0.265625 -0.1875,0.359375 z m 0,0"
           id="path4904" />
      </symbol>
      <symbol
         overflow="visible"
         id="symbol521">
        <path
           style="stroke:none"
           d=""
           id="path330" />
      </symbol>
      <symbol
         overflow="visible"
         id="symbol1133">
        <path
           style="stroke:none"
           d="m 2.875,-4.203125 c 0.0625,-0.25 0.078125,-0.3125 0.609375,-0.3125 0.171875,0 0.25,0 0.25,-0.140625 0,-0.0625 -0.046875,-0.109375 -0.109375,-0.109375 -0.140625,0 -0.328125,0.03125 -0.46875,0.03125 -0.15625,0 -0.3125,0 -0.46875,0 0,0 -0.484375,0 -0.484375,0 -0.15625,0 -0.328125,-0.03125 -0.484375,-0.03125 -0.046875,0 -0.140625,0 -0.140625,0.15625 0,0.09375 0.078125,0.09375 0.234375,0.09375 0,0 0.140625,0 0.25,0.015625 0.140625,0.015625 0.203125,0.03125 0.203125,0.109375 0,0.03125 -0.015625,0.078125 -0.03125,0.140625 l -0.9375,3.703125 C 1.25,-0.328125 1.21875,-0.25 0.703125,-0.25 c -0.1875,0 -0.25,0 -0.25,0.15625 0,0 0,0.09375 0.109375,0.09375 C 0.765625,0 1.296875,-0.03125 1.5,-0.03125 l 0.484375,0.015625 C 2.125,-0.015625 2.3125,0 2.453125,0 2.5,0 2.609375,0 2.609375,-0.15625 2.609375,-0.25 2.515625,-0.25 2.390625,-0.25 2.375,-0.25 2.21875,-0.25 2.078125,-0.265625 1.921875,-0.28125 1.921875,-0.3125 1.921875,-0.375 c 0,0 0,-0.046875 0.03125,-0.140625 z m 0,0"
           id="path3029" />
      </symbol>
      <symbol
         overflow="visible"
         id="symbol8932">
        <path
           style="stroke:none"
           d=""
           id="path9071" />
      </symbol>
      <symbol
         overflow="visible"
         id="symbol3490">
        <path
           style="stroke:none"
           d="M 3.546875,-5.75 C 3.46875,-5.921875 3.40625,-5.96875 3.3125,-5.96875 c -0.125,0 -0.15625,0.078125 -0.21875,0.21875 L 0.625,-0.171875 c -0.0625,0.125 -0.078125,0.140625 -0.078125,0.1875 0,0.109375 0.09375,0.203125 0.203125,0.203125 0.0625,0 0.140625,-0.015625 0.234375,-0.203125 L 3.3125,-5.28125 5.65625,0.015625 C 5.75,0.21875 5.859375,0.21875 5.890625,0.21875 6,0.21875 6.09375,0.125 6.09375,0.015625 c 0,-0.015625 0,-0.03125 -0.0625,-0.15625 z m 0,0"
           id="path1106" />
      </symbol>
      <symbol
         overflow="visible"
         id="symbol9866">
        <path
           style="stroke:none"
           d="M 8.3125,-2.296875 C 7.765625,-1.875 7.5,-1.46875 7.421875,-1.328125 c -0.453125,0.6875 -0.53125,1.3125 -0.53125,1.3125 0,0.125 0.125,0.125 0.203125,0.125 C 7.25,0.109375 7.265625,0.09375 7.3125,-0.09375 7.53125,-1.0625 8.125,-1.90625 9.25,-2.359375 9.375,-2.40625 9.40625,-2.421875 9.40625,-2.5 c 0,-0.0625 -0.0625,-0.09375 -0.078125,-0.109375 C 8.875,-2.765625 7.671875,-3.265625 7.296875,-4.9375 7.265625,-5.0625 7.25,-5.09375 7.09375,-5.09375 c -0.078125,0 -0.203125,0 -0.203125,0.125 0,0.015625 0.09375,0.640625 0.5,1.3125 0.203125,0.296875 0.5,0.640625 0.921875,0.96875 H 0.90625 c -0.171875,0 -0.359375,0 -0.359375,0.1875 0,0.203125 0.1875,0.203125 0.359375,0.203125 z m 0,0"
           id="path2876" />
      </symbol>
    </g>
    <g
       id="g5979">
      <symbol
         overflow="visible"
         id="symbol2154">
        <path
           style="stroke:none"
           d=""
           id="path5072" />
      </symbol>
      <symbol
         overflow="visible"
         id="symbol8918">
        <path
           style="stroke:none"
           d="m 1.75,-3.84375 h 1.09375 v -0.578125 h -1.125 v -1.1875 c 0,-0.734375 0.671875,-0.8125 0.9375,-0.8125 0.1875,0 0.46875,0.015625 0.796875,0.171875 V -6.921875 C 3.34375,-6.953125 3.03125,-7.03125 2.65625,-7.03125 1.71875,-7.03125 1,-6.3125 1,-5.328125 v 0.90625 H 0.265625 V -3.84375 H 1 V 0 h 0.75 z m 0,0"
           id="path6163" />
      </symbol>
      <symbol
         overflow="visible"
         id="symbol4476">
        <path
           style="stroke:none"
           d="m 3.984375,-2.875 c 0,-1.015625 -0.734375,-1.71875 -1.65625,-1.71875 -0.640625,0 -1.09375,0.15625 -1.5625,0.421875 l 0.0625,0.65625 C 1.34375,-3.875 1.84375,-4 2.328125,-4 c 0.46875,0 0.875,0.390625 0.875,1.125 v 0.4375 C 1.703125,-2.421875 0.4375,-2 0.4375,-1.125 c 0,0.421875 0.265625,1.234375 1.140625,1.234375 0.140625,0 1.078125,-0.015625 1.65625,-0.46875 V 0 h 0.75 z m -0.78125,1.5625 c 0,0.1875 0,0.4375 -0.34375,0.625 C 2.578125,-0.515625 2.1875,-0.5 2.078125,-0.5 1.609375,-0.5 1.15625,-0.734375 1.15625,-1.140625 c 0,-0.703125 1.609375,-0.765625 2.046875,-0.796875 z m 0,0"
           id="path7718" />
      </symbol>
      <symbol
         overflow="visible"
         id="symbol1800">
        <path
           style="stroke:none"
           d="M 1.75,-3.84375 H 3.15625 V -4.421875 H 1.75 V -5.6875 H 1.0625 v 1.265625 h -0.875 v 0.578125 h 0.84375 v 2.65625 c 0,0.59375 0.140625,1.296875 0.828125,1.296875 0.6875,0 1.203125,-0.25 1.453125,-0.375 L 3.15625,-0.859375 C 2.890625,-0.640625 2.578125,-0.53125 2.25,-0.53125 c -0.359375,0 -0.5,-0.296875 -0.5,-0.828125 z m 0,0"
           id="path7198" />
      </symbol>
      <symbol
         overflow="visible"
         id="symbol7956">
        <path
           style="stroke:none"
           d="m 4.34375,-2.96875 c 0,-0.65625 -0.15625,-1.5625 -1.375,-1.5625 -0.609375,0 -1.09375,0.296875 -1.40625,0.71875 v -3.109375 h -0.75 V 0 h 0.765625 v -2.4375 c 0,-0.65625 0.25,-1.484375 1.015625,-1.484375 0.953125,0 0.96875,0.703125 0.96875,1.015625 V 0 h 0.78125 z m 0,0"
           id="path5146" />
      </symbol>
      <symbol
         overflow="visible"
         id="symbol9084">
        <path
           style="stroke:none"
           d="M 4.125,-2.1875 C 4.125,-2.515625 4.109375,-3.265625 3.734375,-3.875 3.3125,-4.484375 2.71875,-4.59375 2.359375,-4.59375 1.25,-4.59375 0.34375,-3.53125 0.34375,-2.25 c 0,1.3125 0.96875,2.359375 2.15625,2.359375 0.625,0 1.203125,-0.234375 1.59375,-0.515625 L 4.03125,-1.0625 C 3.40625,-0.53125 2.734375,-0.5 2.515625,-0.5 1.71875,-0.5 1.078125,-1.203125 1.046875,-2.1875 Z M 1.09375,-2.734375 c 0.15625,-0.75 0.6875,-1.25 1.265625,-1.25 0.515625,0 1.0625,0.328125 1.203125,1.25 z m 0,0"
           id="path7007" />
      </symbol>
      <symbol
         overflow="visible"
         id="symbol3700">
        <path
           style="stroke:none"
           d="M 1.5625,-2.140625 C 1.5625,-3.125 2.28125,-3.84375 3.265625,-3.875 v -0.65625 c -0.890625,0 -1.4375,0.5 -1.75,0.953125 v -0.90625 H 0.8125 V 0 h 0.75 z m 0,0"
           id="path820" />
      </symbol>
      <symbol
         overflow="visible"
         id="symbol2115">
        <path
           style="stroke:none"
           d="M 3.515625,-3.890625 C 3.734375,-3.890625 4,-3.9375 4.25,-3.9375 c 0.171875,0 0.5625,0.03125 0.578125,0.03125 l -0.109375,-0.625 c -0.6875,0 -1.265625,0.1875 -1.5625,0.3125 -0.21875,-0.171875 -0.546875,-0.3125 -0.953125,-0.3125 -0.859375,0 -1.578125,0.71875 -1.578125,1.625 0,0.359375 0.125,0.71875 0.328125,0.984375 C 0.65625,-1.515625 0.65625,-1.125 0.65625,-1.078125 0.65625,-0.8125 0.75,-0.53125 0.921875,-0.3125 0.40625,-0.015625 0.28125,0.453125 0.28125,0.703125 c 0,0.75 0.984375,1.34375 2.203125,1.34375 1.21875,0 2.203125,-0.578125 2.203125,-1.34375 C 4.6875,-0.6875 3.03125,-0.6875 2.640625,-0.6875 h -0.875 c -0.125,0 -0.578125,0 -0.578125,-0.53125 0,-0.109375 0.03125,-0.265625 0.109375,-0.359375 0.203125,0.15625 0.53125,0.296875 0.90625,0.296875 0.890625,0 1.59375,-0.75 1.59375,-1.625 0,-0.484375 -0.21875,-0.859375 -0.328125,-1 z m -1.3125,2.03125 c -0.375,0 -0.890625,-0.21875 -0.890625,-1.046875 0,-0.828125 0.515625,-1.0625 0.890625,-1.0625 0.421875,0 0.890625,0.28125 0.890625,1.0625 0,0.765625 -0.46875,1.046875 -0.890625,1.046875 z M 2.65625,0.03125 c 0.21875,0 1.34375,0 1.34375,0.6875 0,0.4375 -0.6875,0.765625 -1.5,0.765625 -0.8125,0 -1.515625,-0.3125 -1.515625,-0.78125 0,-0.03125 0,-0.671875 0.765625,-0.671875 z m 0,0"
           id="path1875" />
      </symbol>
      <symbol
         overflow="visible"
         id="symbol690">
        <path
           style="stroke:none"
           d="m 4.34375,-2.96875 c 0,-0.65625 -0.15625,-1.5625 -1.375,-1.5625 -0.890625,0 -1.390625,0.671875 -1.4375,0.75 V -4.484375 H 0.8125 V 0 h 0.765625 v -2.4375 c 0,-0.65625 0.25,-1.484375 1.015625,-1.484375 0.953125,0 0.96875,0.703125 0.96875,1.015625 V 0 h 0.78125 z m 0,0"
           id="path8032" />
      </symbol>
      <symbol
         overflow="visible"
         id="symbol2853">
        <path
           style="stroke:none"
           d="m 4.328125,-6.921875 h -0.75 v 2.9375 C 3.046875,-4.421875 2.5,-4.53125 2.125,-4.53125 c -0.984375,0 -1.765625,1.03125 -1.765625,2.3125 0,1.3125 0.765625,2.328125 1.71875,2.328125 0.328125,0 0.90625,-0.09375 1.46875,-0.625 V 0 h 0.78125 z m -0.78125,5.53125 C 3.546875,-1.25 3.53125,-1.0625 3.21875,-0.78125 2.984375,-0.578125 2.734375,-0.5 2.484375,-0.5 c -0.625,0 -1.34375,-0.46875 -1.34375,-1.703125 0,-1.3125 0.859375,-1.71875 1.4375,-1.71875 0.453125,0 0.75,0.21875 0.96875,0.546875 z m 0,0"
           id="path2243" />
      </symbol>
      <symbol
         overflow="visible"
         id="symbol3514">
        <path
           style="stroke:none"
           d=""
           id="path553" />
      </symbol>
      <symbol
         overflow="visible"
         id="symbol4765">
        <path
           style="stroke:none"
           d="m 3.296875,2.390625 c 0,-0.03125 0,-0.046875 -0.171875,-0.21875 C 1.890625,0.921875 1.5625,-0.96875 1.5625,-2.5 c 0,-1.734375 0.375,-3.46875 1.609375,-4.703125 0.125,-0.125 0.125,-0.140625 0.125,-0.171875 0,-0.078125 -0.03125,-0.109375 -0.09375,-0.109375 -0.109375,0 -1,0.6875 -1.59375,1.953125 -0.5,1.09375 -0.625,2.203125 -0.625,3.03125 0,0.78125 0.109375,1.984375 0.65625,3.125 C 2.25,1.84375 3.09375,2.5 3.203125,2.5 c 0.0625,0 0.09375,-0.03125 0.09375,-0.109375 z m 0,0"
           id="path568" />
      </symbol>
      <symbol
         overflow="visible"
         id="symbol9934">
        <path
           style="stroke:none"
           d="m 2.875,-2.5 c 0,-0.765625 -0.109375,-1.96875 -0.65625,-3.109375 -0.59375,-1.21875 -1.453125,-1.875 -1.546875,-1.875 -0.0625,0 -0.109375,0.046875 -0.109375,0.109375 0,0.03125 0,0.046875 0.1875,0.234375 0.984375,0.984375 1.546875,2.5625 1.546875,4.640625 0,1.71875 -0.359375,3.46875 -1.59375,4.71875 C 0.5625,2.34375 0.5625,2.359375 0.5625,2.390625 0.5625,2.453125 0.609375,2.5 0.671875,2.5 0.765625,2.5 1.671875,1.8125 2.25,0.546875 2.765625,-0.546875 2.875,-1.65625 2.875,-2.5 Z m 0,0"
           id="path2752" />
      </symbol>
      <symbol
         overflow="visible"
         id="symbol8954">
        <path
           style="stroke:none"
           d="M 2.75,-1.859375 V -2.4375 H 0.109375 v 0.578125 z m 0,0"
           id="path1867" />
      </symbol>
      <symbol
         overflow="visible"
         id="symbol5659">
        <path
           style="stroke:none"
           d=""
           id="path2719" />
      </symbol>
      <symbol
         overflow="visible"
         id="symbol8593">
        <path
           style="stroke:none"
           d="M 4.828125,-4.09375 4,-6.078125 c -0.03125,-0.078125 -0.046875,-0.125 -0.046875,-0.125 0,-0.0625 0.15625,-0.25 0.578125,-0.296875 0.109375,-0.015625 0.203125,-0.015625 0.203125,-0.1875 0,-0.125 -0.125,-0.125 -0.15625,-0.125 -0.40625,0 -0.828125,0.03125 -1.25,0.03125 -0.25,0 -0.859375,-0.03125 -1.109375,-0.03125 -0.0625,0 -0.1875,0 -0.1875,0.203125 C 2.03125,-6.5 2.140625,-6.5 2.265625,-6.5 c 0.59375,0 0.65625,0.09375 0.75,0.3125 l 1.171875,2.78125 -2.109375,2.265625 -0.125,0.109375 C 1.46875,-0.5 1,-0.34375 0.484375,-0.3125 c -0.125,0.015625 -0.21875,0.015625 -0.21875,0.203125 0,0.015625 0,0.109375 0.140625,0.109375 0.296875,0 0.625,-0.03125 0.921875,-0.03125 C 1.703125,-0.03125 2.09375,0 2.453125,0 2.515625,0 2.625,0 2.625,-0.203125 2.625,-0.296875 2.53125,-0.3125 2.515625,-0.3125 c -0.09375,0 -0.40625,-0.03125 -0.40625,-0.3125 0,-0.15625 0.15625,-0.3125 0.265625,-0.4375 L 3.40625,-2.140625 4.296875,-3.125 l 1,2.390625 c 0.046875,0.109375 0.0625,0.109375 0.0625,0.140625 0,0.078125 -0.203125,0.25 -0.578125,0.28125 C 4.671875,-0.296875 4.578125,-0.296875 4.578125,-0.125 4.578125,0 4.6875,0 4.71875,0 5,0 5.703125,-0.03125 5.984375,-0.03125 6.234375,-0.03125 6.84375,0 7.09375,0 c 0.0625,0 0.1875,0 0.1875,-0.1875 0,-0.125 -0.109375,-0.125 -0.1875,-0.125 -0.65625,0 -0.6875,-0.03125 -0.859375,-0.4375 C 5.859375,-1.671875 5.1875,-3.234375 4.953125,-3.828125 5.625,-4.53125 6.671875,-5.71875 7,-5.984375 7.28125,-6.234375 7.671875,-6.46875 8.265625,-6.5 c 0.125,-0.015625 0.21875,-0.015625 0.21875,-0.203125 0,0 0,-0.109375 -0.125,-0.109375 -0.296875,0 -0.640625,0.03125 -0.9375,0.03125 -0.375,0 -0.75,-0.03125 -1.109375,-0.03125 -0.0625,0 -0.1875,0 -0.1875,0.203125 0,0.0625 0.046875,0.09375 0.109375,0.109375 0.09375,0.015625 0.40625,0.03125 0.40625,0.3125 0,0.140625 -0.109375,0.265625 -0.1875,0.359375 z m 0,0"
           id="path6316" />
      </symbol>
      <symbol
         overflow="visible"
         id="symbol2318">
        <path
           style="stroke:none"
           d=""
           id="path2782" />
      </symbol>
      <symbol
         overflow="visible"
         id="symbol9755">
        <path
           style="stroke:none"
           d="m 2.875,-4.203125 c 0.0625,-0.25 0.078125,-0.3125 0.609375,-0.3125 0.171875,0 0.25,0 0.25,-0.140625 0,-0.0625 -0.046875,-0.109375 -0.109375,-0.109375 -0.140625,0 -0.328125,0.03125 -0.46875,0.03125 -0.15625,0 -0.3125,0 -0.46875,0 0,0 -0.484375,0 -0.484375,0 -0.15625,0 -0.328125,-0.03125 -0.484375,-0.03125 -0.046875,0 -0.140625,0 -0.140625,0.15625 0,0.09375 0.078125,0.09375 0.234375,0.09375 0,0 0.140625,0 0.25,0.015625 0.140625,0.015625 0.203125,0.03125 0.203125,0.109375 0,0.03125 -0.015625,0.078125 -0.03125,0.140625 l -0.9375,3.703125 C 1.25,-0.328125 1.21875,-0.25 0.703125,-0.25 c -0.1875,0 -0.25,0 -0.25,0.15625 0,0 0,0.09375 0.109375,0.09375 C 0.765625,0 1.296875,-0.03125 1.5,-0.03125 l 0.484375,0.015625 C 2.125,-0.015625 2.3125,0 2.453125,0 2.5,0 2.609375,0 2.609375,-0.15625 2.609375,-0.25 2.515625,-0.25 2.390625,-0.25 2.375,-0.25 2.21875,-0.25 2.078125,-0.265625 1.921875,-0.28125 1.921875,-0.3125 1.921875,-0.375 c 0,0 0,-0.046875 0.03125,-0.140625 z m 0,0"
           id="path8967" />
      </symbol>
      <symbol
         overflow="visible"
         id="symbol716">
        <path
           style="stroke:none"
           d=""
           id="path7881" />
      </symbol>
      <symbol
         overflow="visible"
         id="symbol6075">
        <path
           style="stroke:none"
           d="M 3.546875,-5.75 C 3.46875,-5.921875 3.40625,-5.96875 3.3125,-5.96875 c -0.125,0 -0.15625,0.078125 -0.21875,0.21875 L 0.625,-0.171875 c -0.0625,0.125 -0.078125,0.140625 -0.078125,0.1875 0,0.109375 0.09375,0.203125 0.203125,0.203125 0.0625,0 0.140625,-0.015625 0.234375,-0.203125 L 3.3125,-5.28125 5.65625,0.015625 C 5.75,0.21875 5.859375,0.21875 5.890625,0.21875 6,0.21875 6.09375,0.125 6.09375,0.015625 c 0,-0.015625 0,-0.03125 -0.0625,-0.15625 z m 0,0"
           id="path4491" />
      </symbol>
      <symbol
         overflow="visible"
         id="symbol424">
        <path
           style="stroke:none"
           d="M 8.3125,-2.296875 C 7.765625,-1.875 7.5,-1.46875 7.421875,-1.328125 c -0.453125,0.6875 -0.53125,1.3125 -0.53125,1.3125 0,0.125 0.125,0.125 0.203125,0.125 C 7.25,0.109375 7.265625,0.09375 7.3125,-0.09375 7.53125,-1.0625 8.125,-1.90625 9.25,-2.359375 9.375,-2.40625 9.40625,-2.421875 9.40625,-2.5 c 0,-0.0625 -0.0625,-0.09375 -0.078125,-0.109375 C 8.875,-2.765625 7.671875,-3.265625 7.296875,-4.9375 7.265625,-5.0625 7.25,-5.09375 7.09375,-5.09375 c -0.078125,0 -0.203125,0 -0.203125,0.125 0,0.015625 0.09375,0.640625 0.5,1.3125 0.203125,0.296875 0.5,0.640625 0.921875,0.96875 H 0.90625 c -0.171875,0 -0.359375,0 -0.359375,0.1875 0,0.203125 0.1875,0.203125 0.359375,0.203125 z m 0,0"
           id="path2270" />
      </symbol>
    </g>
  </defs>
  <g
     inkscape:label="Layer 1"
     inkscape:groupmode="layer"
     id="layer1"
     transform="translate(-215.262, -229.204)">
    <g
       style="fill:#000000;fill-opacity:1"
       id="g1053"
       transform="translate(4.5277023,146.40869)">
      <use
         xlink:href="#symbol8918"
         x="210.46899"
         y="93.917999"
         id="use6251"
         width="100%"
         height="100%" />
      <use
         xlink:href="#symbol4476"
         x="213.51357"
         y="93.917999"
         id="use3170"
         width="100%"
         height="100%" />
      <use
         xlink:href="#symbol1800"
         x="218.30159"
         y="93.917999"
         id="use375"
         width="100%"
         height="100%" />
      <use
         xlink:href="#symbol7956"
         x="221.89909"
         y="93.917999"
         id="use7005"
         width="100%"
         height="100%" />
      <use
         xlink:href="#symbol9084"
         x="227.04677"
         y="93.917999"
         id="use2971"
         width="100%"
         height="100%" />
      <use
         xlink:href="#symbol3700"
         x="231.47415"
         y="93.917999"
         id="use4127"
         width="100%"
         height="100%" />
    </g>
    <g
       style="fill:#000000;fill-opacity:1"
       id="g7355"
       transform="translate(4.5277023,146.40869)">
      <use
         xlink:href="#symbol4765"
         x="235.01601"
         y="93.917999"
         id="use8088"
         width="100%"
         height="100%" />
    </g>
    <g
       style="fill:#000000;fill-opacity:1"
       id="g3965"
       transform="translate(14.052702,146.40869)" />
    <g
       style="fill:#000000;fill-opacity:1"
       id="g3174"
       transform="translate(14.052702,146.40869)" />
    <g
       style="fill:#000000;fill-opacity:1"
       id="g5894"
       transform="translate(14.052702,146.40869)">
      <use
         xlink:href="#symbol9934"
         x="252.49699"
         y="93.917999"
         id="use1847"
         width="100%"
         height="100%" />
    </g>
    <g
       style="fill:#000000;fill-opacity:1"
       id="g6891"
       transform="translate(14.052702,146.40869)">
      <use
         xlink:href="#symbol6075"
         x="258.58499"
         y="93.917999"
         id="use9526"
         width="100%"
         height="100%" />
    </g>
    <g
       style="fill:#000000;fill-opacity:1"
       id="g6724"
       transform="translate(14.052702,146.40869)">
      <use
         xlink:href="#symbol8918"
         x="267.44101"
         y="93.917999"
         id="use6973"
         width="100%"
         height="100%" />
      <use
         xlink:href="#symbol4476"
         x="270.48557"
         y="93.917999"
         id="use2628"
         width="100%"
         height="100%" />
      <use
         xlink:href="#symbol1800"
         x="275.27359"
         y="93.917999"
         id="use8723"
         width="100%"
         height="100%" />
      <use
         xlink:href="#symbol7956"
         x="278.87109"
         y="93.917999"
         id="use5363"
         width="100%"
         height="100%" />
      <use
         xlink:href="#symbol9084"
         x="284.01877"
         y="93.917999"
         id="use9540"
         width="100%"
         height="100%" />
      <use
         xlink:href="#symbol3700"
         x="288.44614"
         y="93.917999"
         id="use2571"
         width="100%"
         height="100%" />
    </g>
    <g
       style="fill:#000000;fill-opacity:1"
       id="g7997"
       transform="translate(14.052702,146.40869)">
      <use
         xlink:href="#symbol4765"
         x="291.98801"
         y="93.917999"
         id="use2704"
         width="100%"
         height="100%" />
    </g>
    <g
       style="fill:#000000;fill-opacity:1"
       id="g4849"
       transform="translate(14.052702,146.40869)" />
    <g
       style="fill:#000000;fill-opacity:1"
       id="g1261"
       transform="translate(14.052702,146.40869)" />
    <g
       style="fill:#000000;fill-opacity:1"
       id="g1616"
       transform="translate(26.752701,146.40869)">
      <use
         xlink:href="#symbol9934"
         x="309.46899"
         y="93.917999"
         id="use3327"
         width="100%"
         height="100%" />
    </g>
    <g
       style="fill:#000000;fill-opacity:1"
       id="g6927"
       transform="translate(26.752701,146.40869)">
      <use
         xlink:href="#symbol424"
         x="316.10999"
         y="93.917999"
         id="use3582"
         width="100%"
         height="100%" />
    </g>
    <g
       style="fill:#000000;fill-opacity:1"
       id="g8913"
       transform="translate(26.752701,146.40869)">
      <use
         xlink:href="#symbol2115"
         x="328.84"
         y="93.917999"
         id="use8060"
         width="100%"
         height="100%" />
      <use
         xlink:href="#symbol3700"
         x="333.82129"
         y="93.917999"
         id="use4922"
         width="100%"
         height="100%" />
      <use
         xlink:href="#symbol4476"
         x="337.22552"
         y="93.917999"
         id="use450"
         width="100%"
         height="100%" />
      <use
         xlink:href="#symbol690"
         x="342.01355"
         y="93.917999"
         id="use5264"
         width="100%"
         height="100%" />
      <use
         xlink:href="#symbol2853"
         x="347.16122"
         y="93.917999"
         id="use8537"
         width="100%"
         height="100%" />
    </g>
    <g
       style="fill:#000000;fill-opacity:1"
       id="g4236"
       transform="translate(26.752701,146.40869)">
      <use
         xlink:href="#symbol8954"
         x="352.30801"
         y="93.917999"
         id="use3150"
         width="100%"
         height="100%" />
    </g>
    <g
       style="fill:#000000;fill-opacity:1"
       id="g7138"
       transform="translate(26.752701,146.40869)">
      <use
         xlink:href="#symbol8918"
         x="355.629"
         y="93.917999"
         id="use7470"
         width="100%"
         height="100%" />
      <use
         xlink:href="#symbol4476"
         x="358.67358"
         y="93.917999"
         id="use8905"
         width="100%"
         height="100%" />
      <use
         xlink:href="#symbol1800"
         x="363.46161"
         y="93.917999"
         id="use2960"
         width="100%"
         height="100%" />
      <use
         xlink:href="#symbol7956"
         x="367.05908"
         y="93.917999"
         id="use1752"
         width="100%"
         height="100%" />
      <use
         xlink:href="#symbol9084"
         x="372.20676"
         y="93.917999"
         id="use5239"
         width="100%"
         height="100%" />
      <use
         xlink:href="#symbol3700"
         x="376.63416"
         y="93.917999"
         id="use2788"
         width="100%"
         height="100%" />
    </g>
    <g
       style="fill:#000000;fill-opacity:1"
       id="g1789"
       transform="translate(26.752701,146.40869)">
      <use
         xlink:href="#symbol4765"
         x="380.17599"
         y="93.917999"
         id="use9680"
         width="100%"
         height="100%" />
    </g>
    <g
       style="fill:#000000;fill-opacity:1"
       id="g1968"
       transform="translate(14.052702,146.40869)" />
    <g
       style="fill:#000000;fill-opacity:1"
       id="g6273"
       transform="translate(14.052702,146.40869)" />
    <g
       style="fill:#000000;fill-opacity:1"
       id="g1534"
       transform="translate(37.336041,146.40869)">
      <use
         xlink:href="#symbol9934"
         x="397.65701"
         y="93.917999"
         id="use6817"
         width="100%"
         height="100%" />
    </g>
    <path
       style="fill:#5fbcd3;stroke:#5fbcd3;stroke-width:2.11667;stroke-linecap:butt;stroke-linejoin:miter;stroke-miterlimit:4;stroke-dasharray:none;stroke-opacity:1"
       d="M 250.10163,246.64727 V 229.20435"
       id="path2131"
       sodipodi:nodetypes="cc"
       inkscape:export-filename="/home/yky/latex/masters-thesis/logic-variables1.png"
       inkscape:export-xdpi="192"
       inkscape:export-ydpi="192" />
    <path
       style="fill:#5fbcd3;stroke:#5fbcd3;stroke-width:2.11667;stroke-linecap:butt;stroke-linejoin:miter;stroke-miterlimit:4;stroke-dasharray:none;stroke-opacity:1"
       d="M 255.3933,246.64727 V 229.20435"
       id="path2131-3"
       sodipodi:nodetypes="cc"
       inkscape:export-filename="/home/yky/latex/masters-thesis/logic-variables1.png"
       inkscape:export-xdpi="192"
       inkscape:export-ydpi="192" />
    <path
       style="fill:#5fbcd3;stroke:#5fbcd3;stroke-width:2.11667;stroke-linecap:butt;stroke-linejoin:miter;stroke-miterlimit:4;stroke-dasharray:none;stroke-opacity:1"
       d="m 260.68497,246.64727 v -3.68459"
       id="path2131-6"
       sodipodi:nodetypes="cc"
       inkscape:export-filename="/home/yky/latex/masters-thesis/logic-variables1.png"
       inkscape:export-xdpi="192"
       inkscape:export-ydpi="192" />
    <path
       style="fill:none;stroke:#000000;stroke-width:0.529167;stroke-linecap:butt;stroke-linejoin:miter;stroke-miterlimit:4;stroke-dasharray:none;stroke-opacity:1"
       d="m 246.27076,246.22756 h 18.50127"
       id="path1179"
       sodipodi:nodetypes="cc"
       inkscape:export-filename="/home/yky/latex/masters-thesis/logic-variables1.png"
       inkscape:export-xdpi="192"
       inkscape:export-ydpi="192" />
    <path
       style="fill:#5fbcd3;stroke:#5fbcd3;stroke-width:2.11667;stroke-linecap:butt;stroke-linejoin:miter;stroke-miterlimit:4;stroke-dasharray:none;stroke-opacity:1"
       d="M 327.36003,246.64727 V 229.20435"
       id="path2131-7"
       sodipodi:nodetypes="cc"
       inkscape:export-filename="/home/yky/latex/masters-thesis/logic-variables2.png"
       inkscape:export-xdpi="192"
       inkscape:export-ydpi="192" />
    <path
       style="fill:#5fbcd3;stroke:#5fbcd3;stroke-width:2.11667;stroke-linecap:butt;stroke-linejoin:miter;stroke-miterlimit:4;stroke-dasharray:none;stroke-opacity:1"
       d="M 322.06836,246.64727 V 229.20435"
       id="path2131-3-5"
       sodipodi:nodetypes="cc"
       inkscape:export-filename="/home/yky/latex/masters-thesis/logic-variables2.png"
       inkscape:export-xdpi="192"
       inkscape:export-ydpi="192" />
    <path
       style="fill:#5fbcd3;stroke:#5fbcd3;stroke-width:2.11667;stroke-linecap:butt;stroke-linejoin:miter;stroke-miterlimit:4;stroke-dasharray:none;stroke-opacity:1"
       d="m 316.77669,246.64727 v -3.68459"
       id="path2131-6-3"
       sodipodi:nodetypes="cc"
       inkscape:export-filename="/home/yky/latex/masters-thesis/logic-variables2.png"
       inkscape:export-xdpi="192"
       inkscape:export-ydpi="192" />
    <path
       style="fill:none;stroke:#000000;stroke-width:0.529167;stroke-linecap:butt;stroke-linejoin:miter;stroke-miterlimit:4;stroke-dasharray:none;stroke-opacity:1"
       d="m 312.94582,246.22756 h 18.50127"
       id="path1179-5"
       sodipodi:nodetypes="cc"
       inkscape:export-filename="/home/yky/latex/masters-thesis/logic-variables2.png"
       inkscape:export-xdpi="192"
       inkscape:export-ydpi="192" />
    <path
       style="fill:#5fbcd3;stroke:#5fbcd3;stroke-width:2.11667;stroke-linecap:butt;stroke-linejoin:miter;stroke-miterlimit:4;stroke-dasharray:none;stroke-opacity:1"
       d="M 417.84763,246.64727 V 229.20435"
       id="path2131-7-6"
       sodipodi:nodetypes="cc"
       inkscape:export-filename="/home/yky/latex/masters-thesis/logic-variables3.png"
       inkscape:export-xdpi="192"
       inkscape:export-ydpi="192" />
    <path
       style="fill:#5fbcd3;stroke:#5fbcd3;stroke-width:2.11667;stroke-linecap:butt;stroke-linejoin:miter;stroke-miterlimit:4;stroke-dasharray:none;stroke-opacity:1"
       d="M 428.43097,246.64727 V 229.20435"
       id="path2131-3-5-2"
       sodipodi:nodetypes="cc"
       inkscape:export-filename="/home/yky/latex/masters-thesis/logic-variables3.png"
       inkscape:export-xdpi="192"
       inkscape:export-ydpi="192" />
    <path
       style="fill:#5fbcd3;stroke:#5fbcd3;stroke-width:2.11667;stroke-linecap:butt;stroke-linejoin:miter;stroke-miterlimit:4;stroke-dasharray:none;stroke-opacity:1"
       d="m 423.1393,246.64727 v -3.68459"
       id="path2131-6-3-9"
       sodipodi:nodetypes="cc"
       inkscape:export-filename="/home/yky/latex/masters-thesis/logic-variables3.png"
       inkscape:export-xdpi="192"
       inkscape:export-ydpi="192" />
    <path
       style="fill:none;stroke:#000000;stroke-width:0.529167;stroke-linecap:butt;stroke-linejoin:miter;stroke-miterlimit:4;stroke-dasharray:none;stroke-opacity:1"
       d="m 414.01676,246.22756 h 18.50127"
       id="path1179-5-1"
       sodipodi:nodetypes="cc"
       inkscape:export-filename="/home/yky/latex/masters-thesis/logic-variables3.png"
       inkscape:export-xdpi="192"
       inkscape:export-ydpi="192" />
  </g>
</svg>
